<svg width="73" height="72" viewBox="0 0 73 72" fill="none" xmlns="http://www.w3.org/2000/svg">
<g clip-path="url(#clip0_8_2115)">
<path d="M57.4255 17.7187V50.8725H4.4043V17.7187C4.4043 16.1662 5.6418 14.9175 7.1718 14.9175H54.6468C56.1768 14.9287 57.4255 16.1775 57.4255 17.7187Z" fill="#4272B7"/>
<path d="M8.81445 20.6887H53.0157V46.3162H8.81445V20.6887Z" fill="#A6DEF2"/>
<path d="M56.1763 57.0825H5.65254C4.24629 57.0825 2.95254 56.3625 2.25504 55.1925L0.69129 52.5825C0.12879 51.6375 0.83754 50.4675 1.96254 50.4675H59.8438C60.9688 50.4675 61.6775 51.6375 61.115 52.5825L59.5513 55.1925C58.8763 56.3625 57.5713 57.0825 56.1763 57.0825Z" fill="#2C64AF"/>
<path d="M22.5156 50.4563V51.8063C22.5156 52.9763 23.3931 53.91 24.4731 53.91H37.3431C38.4231 53.91 39.3006 52.9763 39.3006 51.8063V50.4563H22.5156Z" fill="#205AA3"/>
<path d="M72.4998 30.6L72.4773 30.6112L58.8086 27.45L66.1773 14.9175L72.4998 30.6Z" fill="#E9C61C"/>
<path d="M72.4777 30.6112L46.7715 40.9837L54.444 29.205L55.9627 29.6325C56.7502 29.8575 57.594 29.5087 58.0102 28.8112L58.809 27.45L72.4777 30.6112Z" fill="#D7B628"/>
<path d="M54.4442 29.205L46.7717 40.9837L40.4492 25.3125L54.4442 29.205Z" fill="#E9C61C"/>
<path d="M66.178 14.9175L58.8092 27.45L58.0105 28.8112C57.5942 29.5087 56.7505 29.8575 55.963 29.6325L54.4442 29.205L40.4492 25.3125L66.178 14.9175Z" fill="#FFD926"/>
<path d="M39.0091 30.6676C39.4928 30.4763 39.729 29.9251 39.5265 29.4413C39.4811 29.326 39.413 29.2209 39.3264 29.1322C39.2398 29.0436 39.1364 28.9731 39.0222 28.9249C38.908 28.8767 38.7853 28.8517 38.6613 28.8516C38.5374 28.8514 38.4146 28.8759 38.3003 28.9238L34.2503 30.5551C33.7665 30.7463 33.5303 31.2976 33.7328 31.7813C33.8257 32.0137 34.0069 32.1999 34.2367 32.299C34.4665 32.3981 34.7263 32.402 34.959 32.3101L39.0091 30.6676ZM40.0441 35.6063C40.5278 35.4151 40.7641 34.8638 40.5616 34.3801C40.5161 34.2648 40.448 34.1597 40.3614 34.071C40.2748 33.9823 40.1714 33.9118 40.0572 33.8636C39.943 33.8154 39.8203 33.7905 39.6963 33.7903C39.5724 33.7901 39.4496 33.8147 39.3353 33.8626L35.2966 35.4938C34.8128 35.6851 34.5765 36.2363 34.779 36.7201C34.8719 36.9525 35.0531 37.1386 35.283 37.2377C35.5128 37.3368 35.7725 37.3408 36.0053 37.2488L40.0441 35.6063ZM41.6191 39.2963C41.5736 39.181 41.5055 39.0759 41.4189 38.9872C41.3323 38.8986 41.2289 38.8281 41.1147 38.7799C41.0005 38.7317 40.8778 38.7067 40.7538 38.7066C40.6299 38.7064 40.5071 38.7309 40.3928 38.7788L36.3541 40.4101C35.8703 40.6013 35.634 41.1526 35.8365 41.6363C35.9294 41.8687 36.1106 42.0548 36.3405 42.1539C36.5703 42.253 36.83 42.257 37.0628 42.1651L41.1016 40.5338C41.5741 40.3426 41.8103 39.7913 41.6191 39.2963Z" fill="#EFEFEF"/>
</g>
<defs>
<clipPath id="clip0_8_2115">
<rect width="72" height="72" fill="white" transform="translate(0.5)"/>
</clipPath>
</defs>
</svg>
