<svg width="72" height="72" viewBox="0 0 72 72" fill="none" xmlns="http://www.w3.org/2000/svg">
<path d="M68.2725 2.11768H3.7266C2.79483 2.11768 2.11719 2.88003 2.11719 3.72709V13.3836H69.8819V3.72709C69.8819 2.88003 69.1195 2.11768 68.2725 2.11768Z" fill="#64798A"/>
<path d="M52.5178 9.6565C53.547 9.6565 54.3814 8.82217 54.3814 7.79297C54.3814 6.76377 53.547 5.92944 52.5178 5.92944C51.4886 5.92944 50.6543 6.76377 50.6543 7.79297C50.6543 8.82217 51.4886 9.6565 52.5178 9.6565Z" fill="#FCD462"/>
<path d="M59.1253 9.6565C60.1544 9.6565 60.9888 8.82217 60.9888 7.79297C60.9888 6.76377 60.1544 5.92944 59.1253 5.92944C58.0961 5.92944 57.2617 6.76377 57.2617 7.79297C57.2617 8.82217 58.0961 9.6565 59.1253 9.6565Z" fill="#44C4A1"/>
<path d="M65.7327 9.6565C66.7619 9.6565 67.5962 8.82217 67.5962 7.79297C67.5962 6.76377 66.7619 5.92944 65.7327 5.92944C64.7035 5.92944 63.8691 6.76377 63.8691 7.79297C63.8691 8.82217 64.7035 9.6565 65.7327 9.6565Z" fill="#E56353"/>
<path d="M16.6019 13.3836C16.2631 13.3836 15.9242 13.1294 15.8395 12.8753L14.9078 10.1647C14.8231 9.82591 14.4842 9.65649 14.1454 9.65649H5.84425C5.50542 9.65649 5.1666 9.91061 5.08189 10.1647L4.15013 12.8753C4.06542 13.2141 3.7266 13.3836 3.38778 13.3836H2.11719V68.1883C2.11719 69.12 2.87954 69.7977 3.7266 69.7977H68.1878C69.1195 69.7977 69.7972 69.0353 69.7972 68.1883V13.3836H16.6019Z" fill="#EBF0F3"/>
<path d="M16.6019 13.3836C16.2631 13.3836 15.9242 13.1294 15.8395 12.8753L14.9078 10.1647C14.8231 9.82591 14.4842 9.65649 14.1454 9.65649H5.84425C5.50542 9.65649 5.1666 9.91061 5.08189 10.1647L4.15013 12.8753C4.06542 13.2141 3.7266 13.3836 3.38778 13.3836H2.11719V66.4941C2.11719 67.4259 2.87954 68.1036 3.7266 68.1036H68.1878C69.1195 68.1036 69.7972 67.3412 69.7972 66.4941V13.3836H16.6019Z" fill="white"/>
<path d="M16.9415 12.1977H28.4615L27.6992 10.1647C27.6145 9.82591 27.2756 9.65649 26.9368 9.65649H16.0098C16.0098 9.7412 16.0945 9.7412 16.0945 9.82591L16.9415 12.1977Z" fill="#EBF0F3"/>
<path d="M35.9995 40.2354C42.1747 40.2354 47.1807 35.2294 47.1807 29.0542C47.1807 22.879 42.1747 17.873 35.9995 17.873C29.8243 17.873 24.8184 22.879 24.8184 29.0542C24.8184 35.2294 29.8243 40.2354 35.9995 40.2354Z" fill="#EBF0F3"/>
<path d="M36.0009 27.36C38.34 27.36 40.2362 25.4638 40.2362 23.1247C40.2362 20.7856 38.34 18.8894 36.0009 18.8894C33.6618 18.8894 31.7656 20.7856 31.7656 23.1247C31.7656 25.4638 33.6618 27.36 36.0009 27.36Z" fill="#64798A"/>
<path d="M35.9995 38.3718C39.3877 38.3718 42.2677 36.593 43.9618 33.9671C42.6065 30.9177 39.5571 28.8 35.9995 28.8C32.4418 28.8 29.3924 30.9177 28.0371 33.9671C29.7312 36.593 32.6112 38.3718 35.9995 38.3718Z" fill="#64798A"/>
<path d="M19.2285 45.5718H52.772V50.8235H19.2285V45.5718ZM19.2285 55.5671H52.772V60.8188H19.2285V55.5671Z" fill="#EBF0F3"/>
</svg>
