<svg width="200" height="160" viewBox="0 0 200 160" fill="none" xmlns="http://www.w3.org/2000/svg">
<rect y="8" width="200" height="141" rx="8" fill="url(#paint0_linear_941_8808)" fill-opacity="0.1"/>
<path d="M174.081 110.77C173.83 111.147 173.705 111.649 173.454 112.026C172.449 114.286 171.319 116.42 170.063 118.555C169.812 118.932 169.561 119.434 169.31 119.811H31.5664C31.3152 119.434 31.0641 118.932 30.813 118.555C29.5573 116.42 28.4273 114.286 27.4227 112.026C27.1716 111.649 27.046 111.147 26.7949 110.77H174.081Z" fill="white"/>
<path d="M148.466 99.0925H54.7949V39.7008C54.7949 37.3151 56.6784 35.4316 59.0641 35.4316H144.071C146.457 35.4316 148.34 37.3151 148.34 39.7008V99.0925H148.466Z" fill="#A3BBD0"/>
<path d="M143.694 35.4316H119.335C119.335 64.3113 95.9799 87.6662 67.1002 87.6662H54.7949V99.0925H148.466V40.2031C148.466 37.5662 146.331 35.4316 143.694 35.4316Z" fill="#8AA7BC"/>
<path d="M61.1981 35.4316H59.1891C56.8034 35.4316 54.9199 37.3151 54.9199 39.7008V99.0925H56.9289V39.7008C56.8034 37.3151 58.8124 35.4316 61.1981 35.4316Z" fill="white"/>
<path d="M60.4453 40.9563H142.941V93.5676H60.4453V40.9563Z" fill="white"/>
<path d="M134.654 40.9563C134.654 65.9435 114.312 86.2849 89.325 86.2849H60.4453V93.5676H142.941V40.9563H134.654Z" fill="#E8EAEF"/>
<path d="M148.841 110.77H54.4172C50.148 110.77 46.7578 107.38 46.7578 103.111V99.0925H156.501V103.111C156.501 107.38 153.11 110.77 148.841 110.77Z" fill="#A3BBD0"/>
<mask id="mask0_941_8808" style="mask-type:luminance" maskUnits="userSpaceOnUse" x="46" y="35" width="111" height="76">
<path d="M148.465 40.2031C148.465 37.5662 146.33 35.4316 143.693 35.4316H119.334C119.334 64.3113 95.9789 87.6662 67.0992 87.6662H54.7939V99.0925H148.465V40.2031ZM46.7578 99.0925V103.111C46.7578 107.38 50.148 110.77 54.4172 110.77H148.841C153.11 110.77 156.501 107.38 156.501 103.111V99.0925H46.7578Z" fill="white"/>
</mask>
<g mask="url(#mask0_941_8808)">
<path d="M144.07 127.219C156.553 127.219 166.672 117.1 166.672 104.617C166.672 92.1349 156.553 82.0159 144.07 82.0159C131.588 82.0159 121.469 92.1349 121.469 104.617C121.469 117.1 131.588 127.219 144.07 127.219Z" fill="#8AA7BC"/>
</g>
<mask id="mask1_941_8808" style="mask-type:luminance" maskUnits="userSpaceOnUse" x="60" y="40" width="83" height="54">
<path d="M134.654 40.9563C134.654 65.9435 114.312 86.2849 89.325 86.2849H60.4453V93.5676H142.941V40.9563H134.654Z" fill="white"/>
</mask>
<g mask="url(#mask1_941_8808)">
<path d="M144.07 127.219C156.553 127.219 166.672 117.1 166.672 104.617C166.672 92.1347 156.553 82.0156 144.07 82.0156C131.588 82.0156 121.469 92.1347 121.469 104.617C121.469 117.1 131.588 127.219 144.07 127.219Z" fill="#DEE0E6"/>
</g>
<path d="M138.671 99.0925C138.671 102.859 135.657 105.873 131.89 105.873H47.6367C49.0179 108.761 51.9059 110.77 55.2961 110.77H148.088C152.734 110.77 156.501 107.003 156.501 102.357V99.2181H138.671V99.0925Z" fill="#8AA7BC"/>
<path d="M49.2705 103.111V99.0925H46.8848V103.111C46.8848 107.38 50.275 110.77 54.5442 110.77H56.9299C52.6607 110.77 49.2705 107.38 49.2705 103.111Z" fill="white"/>
<path d="M64.3379 45.1001H85.4326V89.5497H64.3379V45.1001Z" fill="#A3BBD0"/>
<path d="M79.4056 45.1001V70.8407C79.4056 79.1279 72.6251 85.9084 64.3379 85.9084V89.5497H85.4326V45.1001H79.4056Z" fill="#8AA7BC"/>
<path d="M88.8223 45.1001H138.797V61.9257H88.8223V45.1001Z" fill="#FDD600"/>
<path d="M131.388 45.1001C131.388 52.7595 125.236 58.9121 117.576 58.9121H88.8223V61.9257H138.797V45.1001H131.388Z" fill="#EFC100"/>
<path d="M88.8223 65.4414H138.797V89.5497H88.8223V65.4414Z" fill="#7CC7FF"/>
<path d="M129.128 65.4414C129.128 76.1143 120.464 84.9038 109.666 84.9038H88.8223V89.6752H138.797V65.4414H129.128Z" fill="#5EB8EF"/>
<path d="M100.878 77.2443V68.8315C99.2137 68.8315 97.5872 69.3249 96.2037 70.2494C94.8203 71.1738 93.742 72.4877 93.1052 74.0249C92.4685 75.5621 92.3019 77.2537 92.6265 78.8856C92.9511 80.5175 93.7523 82.0165 94.9289 83.1931C96.1054 84.3696 97.6045 85.1708 99.2364 85.4955C100.868 85.8201 102.56 85.6535 104.097 85.0167C105.634 84.38 106.948 83.3017 107.873 81.9182C108.797 80.5347 109.29 78.9082 109.29 77.2443H100.878Z" fill="#FDD600"/>
<path d="M109.415 77.2444H103.514C103.514 80.1324 101.128 82.5181 98.2401 82.5181H94.3477C95.8544 84.4015 98.2401 85.6572 101.003 85.6572C105.648 85.7827 109.415 82.0158 109.415 77.2444Z" fill="#EFC100"/>
<path d="M102.51 78.1233H109.29V77.2444H102.384V78.1233H102.51ZM94.2227 78.2489C94.2227 74.2309 97.1107 70.8406 100.878 69.9617V68.8316C96.2318 68.8316 92.4648 72.5985 92.4648 77.2444C92.4648 80.8858 94.725 83.8993 97.8641 85.1549C95.7295 83.6482 94.2227 81.1369 94.2227 78.2489ZM94.0972 49.2437H111.551V58.2843H94.0972V49.2437Z" fill="white"/>
<path d="M108.159 49.2437C108.159 52.3828 105.522 55.0196 102.383 55.0196H94.0957V58.2843H111.549V49.2437H108.159Z" fill="#E8EAEF"/>
<path d="M144.071 123.452C154.473 123.452 162.906 115.019 162.906 104.617C162.906 94.2152 154.473 85.7827 144.071 85.7827C133.669 85.7827 125.236 94.2152 125.236 104.617C125.236 115.019 133.669 123.452 144.071 123.452Z" fill="#FFA573"/>
<path d="M127.119 106.375C127.119 95.9535 135.532 87.5407 145.954 87.5407C150.6 87.5407 154.869 89.2986 158.259 92.061C154.869 88.1685 149.846 85.6572 144.196 85.6572C133.774 85.6572 125.361 94.07 125.361 104.492C125.361 110.268 127.873 115.29 131.891 118.806C128.877 115.541 127.119 111.147 127.119 106.375Z" fill="white"/>
<path d="M153.111 88.043V91.4332C153.111 104.743 142.312 115.667 128.877 115.667C132.895 121.066 139.55 124.331 147.084 123.201C155.245 121.945 161.775 115.29 162.779 107.003C163.784 98.967 159.64 91.6843 153.111 88.043Z" fill="#ED8E5F"/>
<path d="M163.532 109.514C163.909 108.008 164.16 106.25 164.16 104.617C164.16 95.4512 158.008 87.7918 149.72 85.2805V39.7008C149.72 36.6873 147.209 34.176 144.196 34.176H59.1888C56.1752 34.176 53.664 36.6873 53.664 39.7008V97.8369H46.8835C46.2557 97.8369 45.6279 98.3392 45.6279 99.0926V103.111C45.6279 105.622 46.6324 107.882 48.3903 109.514H26.291C26.5421 110.142 26.7933 110.644 27.4211 112.026H125.361C126.365 114.537 127.747 116.672 129.63 118.555H30.8113C31.188 119.183 31.8158 120.313 32.3181 121.066H132.644C135.908 123.326 139.926 124.708 144.07 124.708C148.339 124.708 152.357 123.326 155.496 121.066H168.555C168.806 120.69 169.057 120.187 169.308 119.811C169.559 119.434 169.811 118.932 170.062 118.555H158.384C160.142 116.672 161.649 114.411 162.653 112.026H173.452C173.703 111.398 174.331 110.142 174.582 109.514H163.532ZM56.0497 39.7008C56.0497 38.0685 57.4309 36.6873 59.0632 36.6873H144.07C145.702 36.6873 147.083 38.0685 147.083 39.7008V84.7783C146.079 84.6527 145.074 84.5272 143.944 84.5272C135.28 84.5272 127.747 90.052 124.984 97.8369H55.9241V39.7008H56.0497ZM54.4173 109.514C50.9015 109.514 48.0136 106.626 48.0136 103.111V100.348H124.482C124.231 101.729 123.98 103.111 123.98 104.617C123.98 106.25 124.231 107.882 124.608 109.514H54.4173ZM144.07 122.196C134.402 122.196 126.491 114.286 126.491 104.617C126.491 94.949 134.402 87.0384 144.07 87.0384C145.074 87.0384 146.205 87.164 147.209 87.2896C155.371 88.6708 161.649 95.9535 161.649 104.617C161.649 114.286 153.864 122.196 144.07 122.196Z" fill="#175D8D"/>
<path d="M109.414 75.9888H102.131V68.8316C102.131 68.455 102.006 68.2038 101.755 67.9527C101.504 67.7016 101.252 67.576 100.876 67.576C95.6021 67.7016 91.3329 71.9707 91.3329 77.2444C91.3329 82.6437 95.7276 86.9128 101.127 86.9128C106.526 86.9128 110.795 82.5181 110.795 77.1189C110.67 76.6166 110.167 75.9888 109.414 75.9888ZM101.001 84.5271C96.9833 84.5271 93.7186 81.2625 93.7186 77.37C93.7186 73.8542 96.2299 70.9662 99.6201 70.3384V77.37C99.6201 78.1234 100.122 78.6256 100.876 78.6256H108.158C107.531 81.8903 104.517 84.5271 101.001 84.5271ZM115.567 73.2264H123.979C124.733 73.2264 125.235 72.7241 125.235 71.9707C125.235 71.2174 124.733 70.7151 123.979 70.7151H115.567C114.813 70.7151 114.311 71.2174 114.311 71.9707C114.311 72.7241 114.939 73.2264 115.567 73.2264ZM115.567 78.8768H134.15C134.904 78.8768 135.406 78.3745 135.406 77.6211C135.406 76.8677 134.904 76.3655 134.15 76.3655H115.567C114.813 76.3655 114.311 76.8677 114.311 77.6211C114.311 78.3745 114.939 78.8768 115.567 78.8768ZM135.531 83.3971C135.531 82.6437 135.029 82.1414 134.276 82.1414H115.567C114.813 82.1414 114.311 82.6437 114.311 83.3971C114.311 84.1504 114.813 84.6527 115.567 84.6527H134.15C134.904 84.6527 135.531 84.0249 135.531 83.3971ZM68.4802 51.755H73.5028C74.2562 51.755 74.7584 51.2527 74.7584 50.4993C74.7584 49.7459 74.2562 49.2437 73.5028 49.2437H68.4802C67.7269 49.2437 67.2246 49.7459 67.2246 50.4993C67.2246 51.2527 67.8524 51.755 68.4802 51.755ZM80.6599 56.4008H68.4802C67.7269 56.4008 67.2246 56.9031 67.2246 57.6565C67.2246 58.4098 67.7269 58.9121 68.4802 58.9121H80.6599C81.4133 58.9121 81.9156 58.4098 81.9156 57.6565C81.9156 56.9031 81.2878 56.4008 80.6599 56.4008ZM80.6599 62.9301H68.4802C67.7269 62.9301 67.2246 63.4324 67.2246 64.1858C67.2246 64.9392 67.7269 65.4414 68.4802 65.4414H80.6599C81.4133 65.4414 81.9156 64.9392 81.9156 64.1858C81.9156 63.4324 81.2878 62.9301 80.6599 62.9301ZM80.6599 69.4595H68.4802C67.7269 69.4595 67.2246 69.9617 67.2246 70.7151C67.2246 71.4685 67.7269 71.9707 68.4802 71.9707H80.6599C81.4133 71.9707 81.9156 71.4685 81.9156 70.7151C81.9156 69.9617 81.2878 69.4595 80.6599 69.4595ZM80.6599 75.8632H68.4802C67.7269 75.8632 67.2246 76.3655 67.2246 77.1189C67.2246 77.8723 67.7269 78.3745 68.4802 78.3745H80.6599C81.4133 78.3745 81.9156 77.8723 81.9156 77.1189C81.9156 76.3655 81.2878 75.8632 80.6599 75.8632ZM80.6599 82.3925H68.4802C67.7269 82.3925 67.2246 82.8948 67.2246 83.6482C67.2246 84.4016 67.7269 84.9038 68.4802 84.9038H80.6599C81.4133 84.9038 81.9156 84.4016 81.9156 83.6482C81.9156 82.8948 81.2878 82.3925 80.6599 82.3925ZM111.549 47.988H94.0953C93.3419 47.988 92.8396 48.4903 92.8396 49.2437V58.2843C92.8396 58.9121 93.3419 59.5399 94.0953 59.5399H111.423C112.176 59.5399 112.679 58.9121 112.679 58.2843V49.2437C112.804 48.4903 112.176 47.988 111.549 47.988ZM110.293 57.0286H95.3509V50.4993H110.167V57.0286H110.293ZM118.831 52.1316H132.643C133.397 52.1316 133.899 51.6294 133.899 50.876C133.899 50.1226 133.397 49.6204 132.643 49.6204H118.831C118.078 49.6204 117.576 50.1226 117.576 50.876C117.576 51.6294 118.078 52.1316 118.831 52.1316ZM118.831 57.5309H125.989C126.742 57.5309 127.244 57.0286 127.244 56.2753C127.244 55.5219 126.742 55.0196 125.989 55.0196H118.831C118.078 55.0196 117.576 55.5219 117.576 56.2753C117.576 57.0286 118.078 57.5309 118.831 57.5309Z" fill="#175D8D"/>
<path d="M153.111 113.909V111.9C153.111 107.129 149.219 103.236 144.447 103.236C139.676 103.236 135.783 107.129 135.783 111.9V113.909H153.111Z" fill="white"/>
<path d="M144.448 103.362C147.152 103.362 149.345 101.169 149.345 98.4646C149.345 95.7601 147.152 93.5676 144.448 93.5676C141.743 93.5676 139.551 95.7601 139.551 98.4646C139.551 101.169 141.743 103.362 144.448 103.362Z" fill="white"/>
<defs>
<linearGradient id="paint0_linear_941_8808" x1="35.3333" y1="44.4655" x2="188.593" y2="75.1405" gradientUnits="userSpaceOnUse">
<stop stop-color="#FF6262"/>
<stop offset="1" stop-color="#F37F14"/>
</linearGradient>
</defs>
</svg>
