<svg width="72" height="72" viewBox="0 0 72 72" fill="none" xmlns="http://www.w3.org/2000/svg">
<path fill-rule="evenodd" clip-rule="evenodd" d="M31.1792 53.5379L29.7688 58.4675L25.0273 62.0066V62.7647H35.9994H46.9714V62.0066L42.23 58.4675L40.8195 53.5379L35.9994 53.4746L31.1792 53.5379Z" fill="#C9CACC"/>
<path fill-rule="evenodd" clip-rule="evenodd" d="M25.0273 62.0066V62.7647H35.9994H46.9714V62.0066H25.0273Z" fill="white"/>
<path fill-rule="evenodd" clip-rule="evenodd" d="M11.5182 19.4773H60.4809C62.0898 19.4773 63.4053 20.648 63.4053 22.0798V48.9202H8.59375V22.0798C8.59375 20.648 9.90931 19.4773 11.5182 19.4773Z" fill="#666666"/>
<path fill-rule="evenodd" clip-rule="evenodd" d="M10.5812 47.1535H61.4213V22.0797C61.4213 21.6239 60.9953 21.2439 60.482 21.2439H11.5193C11.0071 21.2439 10.5801 21.6229 10.5801 22.0797V47.1535H10.5812Z" fill="#6B7F9E"/>
<path fill-rule="evenodd" clip-rule="evenodd" d="M63.4053 48.9202V51.7664C63.4053 53.1981 61.955 54.3698 60.1811 54.3698H11.818C10.0441 54.3698 8.59375 53.1991 8.59375 51.7664V48.9202H63.4053Z" fill="white"/>
<path d="M41.3778 38.8413H39.123V44.6873H41.3778V38.8413Z" fill="#83CF8F"/>
<path d="M45.8427 33.5645H43.5879V44.6864H45.8427V33.5645Z" fill="#FFE356"/>
<path d="M50.3036 36.2024H48.0488V44.6864H50.3036V36.2024Z" fill="#83CF8F"/>
<path d="M54.7665 29.4785H52.5117V44.6875H54.7665V29.4785Z" fill="#FFE356"/>
<path fill-rule="evenodd" clip-rule="evenodd" d="M25.0116 24.8511L20.9258 28.417L25.2531 31.7498C26.1223 30.8564 26.6485 29.6914 26.6485 28.417C26.6485 27.0284 26.0241 25.7694 25.0116 24.8511Z" fill="#FFE356"/>
<path fill-rule="evenodd" clip-rule="evenodd" d="M21.0938 22.551V27.6437L25.1795 24.0778C24.1411 23.1354 22.694 22.551 21.0938 22.551Z" fill="#83CF8F"/>
<path fill-rule="evenodd" clip-rule="evenodd" d="M20.6114 23.571C17.4508 23.571 14.8887 25.8511 14.8887 28.6637C14.8887 31.4764 17.4508 33.7564 20.6114 33.7564C22.3399 33.7564 23.8895 33.0741 24.9387 31.9965L20.6114 28.6637V23.571Z" fill="white"/>
<path fill-rule="evenodd" clip-rule="evenodd" d="M16.4707 35.9539H29.2532V36.4701H16.4707V35.9539ZM16.4707 39.3403H23.8282V39.8566H16.4707V39.3403ZM16.4707 38.2118H29.2532V38.7281H16.4707V38.2118ZM16.4707 37.0833H29.2532V37.5996H16.4707V37.0833Z" fill="#FFE356"/>
<path fill-rule="evenodd" clip-rule="evenodd" d="M16.4707 41.8518H27.2896V42.3681H16.4707V41.8518ZM16.4707 45.2383H21.6737V45.7546H16.4707V45.2383ZM16.4707 44.1098H25.6408V44.6261H16.4707V44.1098ZM16.4707 42.9813H29.2532V43.4975H16.4707V42.9813Z" fill="#83CF8F"/>
<path d="M54.6896 24.311L53.6232 27.1592L53.4474 25.6286L45.0946 30.7673L44.8865 30.8988L44.6881 30.7558L42.2532 29.016L36 33.6414L42.1109 28.1457L42.3093 28.2877L44.9113 30.1474L52.8403 24.8974L51.2983 24.4799L54.6896 24.311Z" fill="white"/>
<path d="M35.9999 52.3479C36.5997 52.3479 37.0858 51.9153 37.0858 51.3816C37.0858 50.8479 36.5997 50.4153 35.9999 50.4153C35.4002 50.4153 34.9141 50.8479 34.9141 51.3816C34.9141 51.9153 35.4002 52.3479 35.9999 52.3479Z" fill="#E4E7ED"/>
</svg>
