<svg width="72" height="72" viewBox="0 0 72 72" fill="none" xmlns="http://www.w3.org/2000/svg">
<path d="M49.9687 7.19994V64.7999C49.9687 67.9679 47.3767 70.5599 44.2087 70.5599H9.64867C6.48067 70.5599 3.88867 67.9679 3.88867 64.7999V7.19994C3.88867 4.03194 6.48067 1.43994 9.64867 1.43994H44.2087C47.3767 1.43994 49.9687 4.03194 49.9687 7.19994Z" fill="#444445"/>
<path d="M44.2084 11.52H9.64844V60.48H44.2084V11.52Z" fill="#E4E4E3"/>
<path d="M49.3924 49.3921L30.8164 31.2481L49.3924 22.4641L68.1124 31.2481L49.3924 49.3921Z" fill="#696967"/>
<path d="M65.2313 24.6241V44.9281H33.6953V19.8721C33.6953 18.0001 35.1353 16.5601 37.0073 16.5601H57.1673V22.3201C57.1673 23.4721 58.1753 24.4801 59.3273 24.4801H65.2313V24.6241Z" fill="#7AC1E1"/>
<path d="M68.1124 31.248V52.128C68.1124 54 66.6724 55.44 64.8004 55.44H34.1284C32.2564 55.44 30.8164 54 30.8164 52.128V31.248L49.5364 49.392L68.1124 31.248Z" fill="#E9715F"/>
<path d="M67.1047 54.5761C66.5287 55.1521 65.6647 55.4401 64.8007 55.4401H34.1287C33.2647 55.4401 32.4007 55.1521 31.9688 54.5761L44.3527 44.3521L46.3687 42.7681C46.9447 42.3361 47.5207 42.0481 48.2407 42.0481H50.8327C51.5527 42.0481 52.1287 42.3361 52.7047 42.7681L54.7207 44.3521L67.1047 54.5761Z" fill="#D75548"/>
<path d="M65.2325 24.6241H59.4725C58.3205 24.6241 57.3125 23.6161 57.3125 22.4641V16.7041L65.2325 24.6241Z" fill="#35A9D9"/>
<path d="M34.1285 6.48004C34.1285 7.20004 33.4085 7.92004 32.6885 7.92004H21.1685C20.3045 7.92004 19.7285 7.20004 19.7285 6.48004C19.7285 5.61604 20.3045 5.04004 21.1685 5.04004H32.6885C33.4085 5.04004 34.1285 5.61604 34.1285 6.48004ZM29.9525 65.52C29.9525 67.248 28.5125 68.688 26.7845 68.688C25.0565 68.688 23.6165 67.248 23.6165 65.52C23.6165 63.792 25.0565 62.352 26.7845 62.352C28.5125 62.352 29.9525 63.792 29.9525 65.52Z" fill="#696967"/>
</svg>
