<svg width="72" height="72" viewBox="0 0 72 72" fill="none" xmlns="http://www.w3.org/2000/svg">
<path d="M0 33L15 9.28198H57L72 33V49.5H0V33Z" fill="#7A3202"/>
<path d="M15 33C16.5913 33 18.1174 33.6321 19.2426 34.7574C20.3679 35.8826 21 37.4087 21 39C21 40.5913 21.6321 42.1174 22.7574 43.2426C23.8826 44.3679 25.4087 45 27 45H45C46.5913 45 48.1174 44.3679 49.2426 43.2426C50.3679 42.1174 51 40.5913 51 39C51 37.4087 51.6321 35.8826 52.7574 34.7574C53.8826 33.6321 55.4087 33 57 33H60L55.5 24H16.5L12 33H15Z" fill="url(#paint0_linear_8_2127)"/>
<path opacity="0.1" d="M0.765 33H0L15 9.28198L15.099 10.266L0.765 33Z" fill="black"/>
<path opacity="0.2" d="M71.9994 33L56.9994 9.28198L56.9004 10.266L71.2344 33" fill="white"/>
<path d="M60 51H12C10.4087 51 8.88258 50.3679 7.75736 49.2426C6.63214 48.1174 6 46.5913 6 45V15C6 13.4087 6.63214 11.8826 7.75736 10.7574C8.88258 9.63214 10.4087 9 12 9H60C61.5913 9 63.1174 9.63214 64.2426 10.7574C65.3679 11.8826 66 13.4087 66 15V45C66 46.5913 65.3679 48.1174 64.2426 49.2426C63.1174 50.3679 61.5913 51 60 51Z" fill="#E6E6E6"/>
<path d="M60.0005 9.00001H12.0005C10.0805 9.00001 8.37053 9.90001 7.26953 11.31L31.1165 31.71C32.4541 32.8468 34.1522 33.4709 35.9075 33.4709C37.6629 33.4709 39.361 32.8468 40.6985 31.71L64.5995 11.145C64.0369 10.4724 63.3333 9.93161 62.5386 9.56095C61.7439 9.19029 60.8774 8.99879 60.0005 9.00001Z" fill="#F2F2F2"/>
<path d="M64.5801 11.1599L40.6971 31.7099C39.3595 32.8467 37.6614 33.4708 35.9061 33.4708C34.1507 33.4708 32.4526 32.8467 31.1151 31.7099L7.28906 11.3219L46.9581 50.9999H59.9991C61.5904 50.9999 63.1165 50.3678 64.2417 49.2426C65.3669 48.1173 65.9991 46.5912 65.9991 44.9999V14.9999C65.9991 13.5299 65.4591 12.1979 64.5801 11.1599Z" fill="url(#paint1_linear_8_2127)"/>
<path opacity="0.1" d="M40.6985 30.9601C39.361 32.0969 37.6629 32.721 35.9075 32.721C34.1522 32.721 32.4541 32.0969 31.1165 30.9601C31.1165 30.9601 7.38653 11.1601 7.26953 11.3101L31.1165 31.7101C32.4541 32.8469 34.1522 33.471 35.9075 33.471C37.6629 33.471 39.361 32.8469 40.6985 31.7101L64.5995 11.1451C64.4795 10.9981 40.6985 30.9601 40.6985 30.9601Z" fill="black"/>
<path opacity="0.2" d="M60 9H12C10.4087 9 8.88258 9.63214 7.75736 10.7574C6.63214 11.8826 6 13.4087 6 15V15.75C6 14.1587 6.63214 12.6326 7.75736 11.5074C8.88258 10.3821 10.4087 9.75 12 9.75H60C61.5913 9.75 63.1174 10.3821 64.2426 11.5074C65.3679 12.6326 66 14.1587 66 15.75V15C66 13.4087 65.3679 11.8826 64.2426 10.7574C63.1174 9.63214 61.5913 9 60 9Z" fill="white"/>
<path d="M51 39C51 40.5913 50.3679 42.1174 49.2426 43.2426C48.1174 44.3679 46.5913 45 45 45H27C25.4087 45 23.8826 44.3679 22.7574 43.2426C21.6321 42.1174 21 40.5913 21 39C21 37.4087 20.3679 35.8826 19.2426 34.7574C18.1174 33.6321 16.5913 33 15 33H0V57C0 58.5913 0.632141 60.1174 1.75736 61.2426C2.88258 62.3679 4.4087 63 6 63H66C67.5913 63 69.1174 62.3679 70.2426 61.2426C71.3679 60.1174 72 58.5913 72 57V33H57C55.4087 33 53.8826 33.6321 52.7574 34.7574C51.6321 35.8826 51 37.4087 51 39Z" fill="#D58347"/>
<path opacity="0.1" d="M66 62.25H6C4.4087 62.25 2.88258 61.6179 1.75736 60.4926C0.632141 59.3674 0 57.8413 0 56.25V57C0 58.5913 0.632141 60.1174 1.75736 61.2426C2.88258 62.3679 4.4087 63 6 63H66C67.5913 63 69.1174 62.3679 70.2426 61.2426C71.3679 60.1174 72 58.5913 72 57V56.25C72 57.8413 71.3679 59.3674 70.2426 60.4926C69.1174 61.6179 67.5913 62.25 66 62.25Z" fill="black"/>
<path opacity="0.2" d="M71.235 33H57C55.4087 33 53.8826 33.6321 52.7574 34.7574C51.6321 35.8826 51 37.4087 51 39C51 40.5913 50.3679 42.1174 49.2426 43.2426C48.1174 44.3679 46.5913 45 45 45H27C25.4087 45 23.8826 44.3679 22.7574 43.2426C21.6321 42.1174 21 40.5913 21 39C21 37.4087 20.3679 35.8826 19.2426 34.7574C18.1174 33.6321 16.5913 33 15 33H0V33.75H15C16.5913 33.75 18.1174 34.3821 19.2426 35.5074C20.3679 36.6326 21 38.1587 21 39.75C21 41.3413 21.6321 42.8674 22.7574 43.9926C23.8826 45.1179 25.4087 45.75 27 45.75H45C46.5913 45.75 48.1174 45.1179 49.2426 43.9926C50.3679 42.8674 51 41.3413 51 39.75C51 38.1587 51.6321 36.6326 52.7574 35.5074C53.8826 34.3821 55.4087 33.75 57 33.75H72V33" fill="white"/>
<path d="M66 23.514V15C66 13.4087 65.3679 11.8826 64.2426 10.7574C63.1174 9.63214 61.5913 9 60 9H12C10.4087 9 8.88258 9.63214 7.75736 10.7574C6.63214 11.8826 6 13.4087 6 15V23.514L0 33V57C0 58.5913 0.632141 60.1174 1.75736 61.2426C2.88258 62.3679 4.4087 63 6 63H66C67.5913 63 69.1174 62.3679 70.2426 61.2426C71.3679 60.1174 72 58.5913 72 57V33L66 23.514Z" fill="url(#paint2_linear_8_2127)"/>
<defs>
<linearGradient id="paint0_linear_8_2127" x1="22.875" y1="17.625" x2="49.125" y2="43.875" gradientUnits="userSpaceOnUse">
<stop stop-opacity="0.1"/>
<stop offset="1" stop-opacity="0"/>
</linearGradient>
<linearGradient id="paint1_linear_8_2127" x1="21.6501" y1="-3.03909" x2="69.0861" y2="44.3969" gradientUnits="userSpaceOnUse">
<stop stop-opacity="0.1"/>
<stop offset="1" stop-opacity="0"/>
</linearGradient>
<linearGradient id="paint2_linear_8_2127" x1="2.268" y1="21.669" x2="73.59" y2="54.927" gradientUnits="userSpaceOnUse">
<stop stop-color="white" stop-opacity="0.2"/>
<stop offset="1" stop-color="white" stop-opacity="0"/>
</linearGradient>
</defs>
</svg>
