<svg width="24" height="25" viewBox="0 0 24 25" fill="none" xmlns="http://www.w3.org/2000/svg">
<path d="M9.90837 4.22154C10.3566 1.9242 13.6434 1.9242 14.0916 4.22154C14.3644 5.61951 15.9053 6.3616 17.1683 5.70321C19.2439 4.62125 21.2933 7.19104 19.7766 8.97381C18.8536 10.0587 19.2342 11.7261 20.5365 12.3031C22.6765 13.2512 21.9451 16.4557 19.6056 16.3815C18.182 16.3363 17.1156 17.6735 17.4764 19.0513C18.0694 21.3156 15.108 22.7418 13.7075 20.8664C12.8552 19.7252 11.1448 19.7252 10.2926 20.8664C8.89198 22.7418 5.93059 21.3156 6.52357 19.0513C6.88441 17.6735 5.81802 16.3363 4.39442 16.3815C2.05494 16.4557 1.32354 13.2512 3.46356 12.3031C4.76578 11.7261 5.14637 10.0587 4.22344 8.97381C2.70674 7.19104 4.75609 4.62125 6.83166 5.70321C8.09468 6.3616 9.63564 5.61951 9.90837 4.22154Z" stroke="#262F56" stroke-width="1.8"/>
<path d="M15 12.5001C15 14.157 13.6569 15.5001 12 15.5001C10.3432 15.5001 9.00001 14.157 9.00001 12.5001C9.00001 10.8433 10.3432 9.50012 12 9.50012C13.6569 9.50012 15 10.8433 15 12.5001Z" stroke="#262F56" stroke-width="1.8"/>
</svg>
