<svg width="85" height="85" viewBox="0 0 85 85" fill="none" xmlns="http://www.w3.org/2000/svg">
<g clip-path="url(#clip0_941_6766)">
<path d="M42.5 84C65.4198 84 84 65.4198 84 42.5C84 19.5802 65.4198 1 42.5 1C19.5802 1 1 19.5802 1 42.5C1 65.4198 19.5802 84 42.5 84Z" fill="#FED000" stroke="white" stroke-width="3"/>
<path d="M63.3116 65.735L62.0283 67.0183C61.395 67.6516 60.3617 67.6516 59.7283 67.035L53.5116 60.8016L53.195 61.1183C52.945 61.3683 52.5283 61.3683 52.2783 61.1183C52.158 60.9961 52.0906 60.8315 52.0906 60.66C52.0906 60.4885 52.158 60.3238 52.2783 60.2016L53.2783 59.2016L52.0616 57.985C49.9957 59.5269 47.4433 60.2729 44.8721 60.0861C42.301 59.8994 39.8832 58.7925 38.0616 56.9683C37.8485 56.7583 37.6481 56.5357 37.4616 56.3016H27.095C25.6783 56.3016 24.545 55.1516 24.545 53.7516V23.385C24.545 21.985 25.6783 20.835 27.095 20.835H57.7617C59.1783 20.835 60.3116 21.985 60.3116 23.385V53.7516C60.3116 55.1516 59.1783 56.3016 57.7617 56.3016H57.5616C57.6283 56.5183 57.5616 56.735 57.4116 56.9016L57.1116 57.2183L63.3283 63.435C63.9617 64.0683 63.9616 65.1016 63.3116 65.735Z" fill="#F39F03"/>
<path d="M58.65 26.3833V52.08C58.65 53.4916 57.5067 54.6366 56.095 54.6366H25.4267C25.0909 54.6369 24.7583 54.5709 24.448 54.4425C24.1377 54.3141 23.8558 54.1257 23.6183 53.8883C23.3809 53.6508 23.1926 53.3689 23.0642 53.0586C22.9358 52.7483 22.8698 52.4158 22.87 52.08V26.3833H58.65Z" fill="white"/>
<path d="M58.6533 26.3867V21.7217C58.6533 20.3101 57.5083 19.1667 56.0967 19.1667H25.43C24.0183 19.1667 22.875 20.3101 22.875 21.7217V26.3884H58.6533V26.3867Z" fill="#EB4B33"/>
<path d="M48.8567 23.9483C49.5038 23.9483 50.0283 23.4237 50.0283 22.7766C50.0283 22.1296 49.5038 21.605 48.8567 21.605C48.2096 21.605 47.685 22.1296 47.685 22.7766C47.685 23.4237 48.2096 23.9483 48.8567 23.9483Z" fill="white"/>
<path d="M52.0916 23.9483C52.7387 23.9483 53.2633 23.4237 53.2633 22.7766C53.2633 22.1296 52.7387 21.605 52.0916 21.605C51.4446 21.605 50.92 22.1296 50.92 22.7766C50.92 23.4237 51.4446 23.9483 52.0916 23.9483Z" fill="white"/>
<path d="M55.3267 23.9483C55.9738 23.9483 56.4984 23.4237 56.4984 22.7766C56.4984 22.1296 55.9738 21.605 55.3267 21.605C54.6796 21.605 54.155 22.1296 54.155 22.7766C54.155 23.4237 54.6796 23.9483 55.3267 23.9483Z" fill="white"/>
<path d="M54.7017 32.4733V37.2483C54.7008 37.6132 54.5555 37.9628 54.2975 38.2208C54.0395 38.4788 53.6899 38.6241 53.325 38.625H28.195C27.8305 38.6237 27.4812 38.4782 27.2236 38.2202C26.966 37.9623 26.8209 37.6129 26.82 37.2483V32.4733C26.82 31.7167 27.4383 31.0967 28.195 31.0967H53.325C54.0817 31.0967 54.7017 31.7167 54.7017 32.4733Z" fill="#EAEEF2"/>
<path d="M50.92 33.7999C51.2026 33.7999 51.4317 33.5709 51.4317 33.2883C51.4317 33.0057 51.2026 32.7766 50.92 32.7766C50.6374 32.7766 50.4083 33.0057 50.4083 33.2883C50.4083 33.5709 50.6374 33.7999 50.92 33.7999Z" fill="#BEC4C9"/>
<path d="M50.92 35.3717C51.2026 35.3717 51.4317 35.1426 51.4317 34.8601C51.4317 34.5775 51.2026 34.3484 50.92 34.3484C50.6374 34.3484 50.4083 34.5775 50.4083 34.8601C50.4083 35.1426 50.6374 35.3717 50.92 35.3717Z" fill="#BEC4C9"/>
<path d="M50.92 36.945C51.2026 36.945 51.4317 36.7159 51.4317 36.4333C51.4317 36.1507 51.2026 35.9216 50.92 35.9216C50.6374 35.9216 50.4083 36.1507 50.4083 36.4333C50.4083 36.7159 50.6374 36.945 50.92 36.945Z" fill="#BEC4C9"/>
<path d="M29.495 33.6917H44.2883V36.0317H29.495V33.6917Z" fill="#BEC4C9"/>
<path d="M54.74 56.2383L52.5317 58.445L47.9767 53.89L50.1834 51.6816L54.74 56.2383Z" fill="#334861"/>
<path d="M51.84 59.1365L58.0634 65.3615C58.3693 65.6656 58.7834 65.8357 59.2147 65.8344C59.646 65.8332 60.0592 65.6607 60.3634 65.3549L61.65 64.0649C61.9555 63.761 62.128 63.3483 62.1296 62.9174C62.1311 62.4865 61.9617 62.0726 61.6584 61.7666L55.4334 55.5432L51.84 59.1365Z" fill="#334861"/>
<path d="M43.995 58.4534C49.9348 58.4534 54.75 53.6382 54.75 47.6984C54.75 41.7585 49.9348 36.9434 43.995 36.9434C38.0552 36.9434 33.24 41.7585 33.24 47.6984C33.24 53.6382 38.0552 58.4534 43.995 58.4534Z" fill="#273E56"/>
<path d="M43.995 56.9382C49.0981 56.9382 53.235 52.8014 53.235 47.6982C53.235 42.5951 49.0981 38.4583 43.995 38.4583C38.8919 38.4583 34.755 42.5951 34.755 47.6982C34.755 52.8014 38.8919 56.9382 43.995 56.9382Z" fill="#33ACFE"/>
<path d="M50.6083 59.4534C50.8583 59.7034 51.275 59.7034 51.525 59.4534L55.7483 55.2284C55.9983 54.9784 55.9983 54.5617 55.7483 54.3117C55.6266 54.1926 55.4627 54.1266 55.2924 54.1282C55.1222 54.1298 54.9595 54.1988 54.84 54.3201L50.615 58.5434C50.5548 58.6027 50.5068 58.6733 50.4739 58.7511C50.441 58.829 50.4237 58.9125 50.4231 58.997C50.4225 59.0815 50.4385 59.1653 50.4703 59.2436C50.5021 59.3219 50.549 59.3932 50.6083 59.4534Z" fill="#1D364C"/>
</g>
<defs>
<clipPath id="clip0_941_6766">
<rect width="85" height="85" fill="white"/>
</clipPath>
</defs>
</svg>
