<svg width="86" height="85" viewBox="0 0 86 85" fill="none" xmlns="http://www.w3.org/2000/svg">
<path d="M43 83.25C65.5056 83.25 83.75 65.0056 83.75 42.5C83.75 19.9944 65.5056 1.75 43 1.75C20.4944 1.75 2.25 19.9944 2.25 42.5C2.25 65.0056 20.4944 83.25 43 83.25Z" fill="#FED000" stroke="white" stroke-width="1.5"/>
<path d="M60.195 29.64V62.74C60.195 64.4567 58.8117 65.84 57.1117 65.84H32.2117C30.5117 65.84 29.1284 64.4567 29.1284 62.74V26.5567L51.2784 19.3233C53.2617 18.6733 55.3117 20.1567 55.3117 22.2567V26.5567H57.1117C58.8117 26.5567 60.195 27.94 60.195 29.64Z" fill="#F39F03"/>
<path d="M53.6484 40.38V20.5883C53.6484 18.4883 51.5984 17.0033 49.605 17.655L27.465 24.8866V40.38H53.6484Z" fill="#BEC4C9"/>
<path d="M55.45 24.885H27.465V61.0833C27.465 62.7867 28.8467 64.1667 30.55 64.1667H55.45C56.2679 64.1667 57.0524 63.8419 57.6309 63.2637C58.2094 62.6855 58.5346 61.9012 58.535 61.0833V27.9717C58.5352 27.5664 58.4556 27.1651 58.3007 26.7906C58.1457 26.4161 57.9185 26.0758 57.632 25.7892C57.3456 25.5025 57.0054 25.2751 56.631 25.12C56.2566 24.9649 55.8553 24.885 55.45 24.885Z" fill="white"/>
<path d="M36.7883 33.1667C35.3717 34.2667 33.7433 35.1983 31.935 35.9033C31.7652 34.0321 31.851 32.1464 32.19 30.2983C33.5501 31.5069 35.1048 32.4767 36.7883 33.1667Z" fill="#1ECA6B"/>
<path d="M42.6433 34.3834C41.6899 35.974 40.5211 37.4249 39.17 38.6951C38.3635 37.025 37.7893 35.2525 37.4633 33.4268C39.135 34.0268 40.8867 34.3451 42.6433 34.3834Z" fill="#33ACFE"/>
<path d="M48.5367 33.4268C48.2097 35.2527 47.6344 37.0252 46.8267 38.6951C45.4768 37.4241 44.3091 35.9726 43.3567 34.3818C45.1235 34.3445 46.8727 34.022 48.5367 33.4268Z" fill="#1ECA6B"/>
<path d="M53.81 30.3C54.1433 32.0817 54.2333 33.97 54.0617 35.905C52.3218 35.2302 50.6883 34.3079 49.2117 33.1667C50.8957 32.4775 52.4493 31.5082 53.81 30.3Z" fill="#33ACFE"/>
<path d="M43 34.8034C38.0067 34.8034 33.3167 32.6034 30.1317 28.7684C30.0951 28.7266 30.0673 28.6779 30.0498 28.6251C30.0323 28.5724 30.0255 28.5167 30.0299 28.4613C30.0343 28.4059 30.0497 28.352 30.0752 28.3026C30.1007 28.2533 30.1359 28.2095 30.1786 28.174C30.2212 28.1384 30.2706 28.1117 30.3237 28.0955C30.3769 28.0793 30.4327 28.0739 30.488 28.0796C30.5433 28.0853 30.5968 28.102 30.6456 28.1287C30.6943 28.1554 30.7372 28.1916 30.7717 28.2351C33.7984 31.8801 38.255 33.9684 43 33.9684C47.745 33.9684 52.2 31.8801 55.2284 28.2351C55.2634 28.1929 55.3064 28.1581 55.3548 28.1326C55.4033 28.1071 55.4563 28.0913 55.5109 28.0863C55.5654 28.0813 55.6205 28.087 55.6728 28.1033C55.7251 28.1195 55.7737 28.1459 55.8159 28.1809C55.858 28.2159 55.8928 28.2589 55.9183 28.3074C55.9439 28.3559 55.9596 28.4089 55.9646 28.4634C55.9696 28.518 55.9639 28.573 55.9477 28.6253C55.9314 28.6777 55.905 28.7263 55.87 28.7684C54.3015 30.6598 52.3345 32.1813 50.1097 33.2243C47.8849 34.2672 45.4572 34.8076 43 34.8034Z" fill="#1D364C"/>
<path d="M51.1534 45.6883C51.1534 50.0799 43 56.1399 43 56.1399C43 56.1399 34.8467 50.0799 34.8467 45.6883C34.8459 44.7292 35.1582 43.7961 35.7362 43.0308C36.3142 42.2655 37.1262 41.7098 38.0489 41.4482C38.9716 41.1866 39.9544 41.2334 40.8481 41.5815C41.7417 41.9295 42.4973 42.5598 43 43.3766C43.5042 42.5623 44.26 41.9344 45.1529 41.588C46.0458 41.2416 47.0273 41.1955 47.9487 41.4568C48.8702 41.718 49.6814 42.2724 50.2596 43.0359C50.8379 43.7994 51.1516 44.7305 51.1534 45.6883Z" fill="#EB4B33"/>
<path d="M31.8517 58.7317H54.1467V60.05H31.8517V58.7317Z" fill="#EAEEF2"/>
</svg>
