<svg width="19" height="19" viewBox="0 0 19 19" fill="none" xmlns="http://www.w3.org/2000/svg">
<path fill-rule="evenodd" clip-rule="evenodd" d="M3.99826 17.5689L15.1941 6.37303C15.5033 6.06386 15.5033 5.5626 15.1941 5.25344L12.9549 3.01427C12.6458 2.7051 12.1445 2.7051 11.8354 3.01427L0.639499 14.2101C0.330334 14.5193 0.330334 15.0205 0.639499 15.3297L2.87867 17.5689C3.18784 17.878 3.68909 17.878 3.99826 17.5689ZM12.3951 4.69365L13.5147 5.81323L10.7158 8.6122L9.59618 7.49261L12.3951 4.69365Z" fill="#2C2C2C"/>
<path opacity="0.44" fill-rule="evenodd" clip-rule="evenodd" d="M15.8335 7.625C15.8335 7.34886 16.0574 7.125 16.3335 7.125H16.9168C17.193 7.125 17.4168 7.34886 17.4168 7.625V8.20833C17.4168 8.48448 17.193 8.70833 16.9168 8.70833H16.3335C16.0574 8.70833 15.8335 8.48448 15.8335 8.20833V7.625ZM13.4585 10C13.4585 9.72386 13.6824 9.5 13.9585 9.5H14.5418C14.818 9.5 15.0418 9.72386 15.0418 10V10.5833C15.0418 10.8595 14.818 11.0833 14.5418 11.0833H13.9585C13.6824 11.0833 13.4585 10.8595 13.4585 10.5833V10ZM17.1252 10.2917C16.849 10.2917 16.6252 10.5155 16.6252 10.7917V11.375C16.6252 11.6511 16.849 11.875 17.1252 11.875H17.7085C17.9846 11.875 18.2085 11.6511 18.2085 11.375V10.7917C18.2085 10.5155 17.9846 10.2917 17.7085 10.2917H17.1252Z" fill="#2C2C2C"/>
</svg>
