<svg width="19" height="19" viewBox="0 0 19 19" fill="none" xmlns="http://www.w3.org/2000/svg">
<path d="M17.0705 4.56257L6.07378 15.5593L2.59181 15.9771L3.00965 12.4951L14.0063 1.49844C14.0205 1.49429 14.0355 1.49002 14.0515 1.48571C14.1993 1.44565 14.4129 1.4039 14.6635 1.40044C15.1447 1.39381 15.784 1.52414 16.4144 2.15453C17.0448 2.78492 17.1751 3.42425 17.1685 3.90544C17.165 4.156 17.1233 4.36958 17.0832 4.51745C17.0789 4.53339 17.0746 4.54844 17.0705 4.56257ZM17.0213 4.70675L17.0215 4.70631C17.0208 4.7081 17.0207 4.70826 17.0213 4.70675Z" stroke="#2C2C2C" stroke-width="2" stroke-linecap="round"/>
<path d="M11.2949 2.7959L15.56 7.06099" stroke="#2C2C2C" stroke-width="2"/>
</svg>
