<svg width="200" height="141" viewBox="0 0 200 141" fill="none" xmlns="http://www.w3.org/2000/svg">
<rect width="200" height="141" rx="8" fill="url(#paint0_linear_941_6915)" fill-opacity="0.1"/>
<path d="M126.443 100.522L124.812 102.153C124.008 102.957 122.695 102.957 121.89 102.174L113.991 94.2538L113.589 94.6562C113.271 94.9738 112.742 94.9738 112.424 94.6562C112.271 94.5009 112.186 94.2917 112.186 94.0738C112.186 93.8559 112.271 93.6468 112.424 93.4915L113.695 92.2209L112.149 90.675C109.524 92.6342 106.281 93.582 103.014 93.3447C99.7471 93.1075 96.675 91.7011 94.3606 89.3832C94.0898 89.1164 93.8352 88.8336 93.5983 88.5362H80.4265C78.6265 88.5362 77.1865 87.075 77.1865 85.2962V46.7127C77.1865 44.9338 78.6265 43.4727 80.4265 43.4727H119.391C121.191 43.4727 122.631 44.9338 122.631 46.7127V85.2962C122.631 87.075 121.191 88.5362 119.391 88.5362H119.137C119.222 88.8115 119.137 89.0868 118.947 89.2985L118.565 89.7009L126.464 97.5997C127.269 98.4044 127.269 99.7174 126.443 100.522Z" fill="#F39F03"/>
<path d="M120.52 50.5225V83.1723C120.52 84.966 119.067 86.4208 117.274 86.4208H78.3068C77.8801 86.4211 77.4576 86.3373 77.0634 86.1741C76.6691 86.011 76.3109 85.7717 76.0092 85.47C75.7075 85.1683 75.4682 84.8101 75.3051 84.4158C75.1419 84.0216 75.0581 83.599 75.0584 83.1723V50.5225H120.52Z" fill="white"/>
<path d="M120.524 50.5267V44.5994C120.524 42.8057 119.069 41.353 117.276 41.353H78.3111C76.5174 41.353 75.0647 42.8057 75.0647 44.5994V50.5288H120.524V50.5267Z" fill="#EB4B33"/>
<path d="M108.077 47.4286C108.899 47.4286 109.565 46.7621 109.565 45.9399C109.565 45.1177 108.899 44.4512 108.077 44.4512C107.254 44.4512 106.588 45.1177 106.588 45.9399C106.588 46.7621 107.254 47.4286 108.077 47.4286Z" fill="white"/>
<path d="M112.187 47.4286C113.009 47.4286 113.676 46.7621 113.676 45.9399C113.676 45.1177 113.009 44.4512 112.187 44.4512C111.365 44.4512 110.698 45.1177 110.698 45.9399C110.698 46.7621 111.365 47.4286 112.187 47.4286Z" fill="white"/>
<path d="M116.297 47.4286C117.119 47.4286 117.786 46.7621 117.786 45.9399C117.786 45.1177 117.119 44.4512 116.297 44.4512C115.475 44.4512 114.809 45.1177 114.809 45.9399C114.809 46.7621 115.475 47.4286 116.297 47.4286Z" fill="white"/>
<path d="M115.503 58.2602V64.3272C115.502 64.7908 115.318 65.2351 114.99 65.5628C114.662 65.8906 114.218 66.0753 113.754 66.0764H81.8242C81.361 66.0747 80.9173 65.8898 80.59 65.5621C80.2626 65.2344 80.0783 64.7904 80.0771 64.3272V58.2602C80.0771 57.2987 80.8628 56.511 81.8242 56.511H113.754C114.716 56.511 115.503 57.2987 115.503 58.2602Z" fill="#EAEEF2"/>
<path d="M110.698 59.946C111.058 59.946 111.349 59.6549 111.349 59.2959C111.349 58.9368 111.058 58.6458 110.698 58.6458C110.339 58.6458 110.048 58.9368 110.048 59.2959C110.048 59.6549 110.339 59.946 110.698 59.946Z" fill="#BEC4C9"/>
<path d="M110.698 61.9428C111.058 61.9428 111.349 61.6518 111.349 61.2927C111.349 60.9336 111.058 60.6426 110.698 60.6426C110.339 60.6426 110.048 60.9336 110.048 61.2927C110.048 61.6518 110.339 61.9428 110.698 61.9428Z" fill="#BEC4C9"/>
<path d="M110.698 63.9418C111.058 63.9418 111.349 63.6508 111.349 63.2917C111.349 62.9327 111.058 62.6416 110.698 62.6416C110.339 62.6416 110.048 62.9327 110.048 63.2917C110.048 63.6508 110.339 63.9418 110.698 63.9418Z" fill="#BEC4C9"/>
<path d="M83.4761 59.8083H102.272V62.7815H83.4761V59.8083Z" fill="#BEC4C9"/>
<path d="M115.552 88.4557L112.746 91.2594L106.958 85.4719L109.762 82.666L115.552 88.4557Z" fill="#334861"/>
<path d="M111.867 92.1384L119.774 100.048C120.163 100.434 120.689 100.65 121.237 100.649C121.785 100.647 122.31 100.428 122.697 100.039L124.332 98.4003C124.72 98.0142 124.939 97.4898 124.941 96.9424C124.943 96.3949 124.728 95.8689 124.342 95.48L116.433 87.5728L111.867 92.1384Z" fill="#334861"/>
<path d="M101.9 91.27C109.447 91.27 115.565 85.1519 115.565 77.6049C115.565 70.0578 109.447 63.9397 101.9 63.9397C94.3525 63.9397 88.2344 70.0578 88.2344 77.6049C88.2344 85.1519 94.3525 91.27 101.9 91.27Z" fill="#273E56"/>
<path d="M101.899 89.3452C108.383 89.3452 113.64 84.0889 113.64 77.605C113.64 71.121 108.383 65.8647 101.899 65.8647C95.4155 65.8647 90.1592 71.121 90.1592 77.605C90.1592 84.0889 95.4155 89.3452 101.899 89.3452Z" fill="#33ACFE"/>
<path d="M110.302 92.5406C110.62 92.8582 111.15 92.8582 111.467 92.5406L116.833 87.1724C117.151 86.8547 117.151 86.3253 116.833 86.0076C116.679 85.8563 116.47 85.7725 116.254 85.7744C116.038 85.7764 115.831 85.8641 115.679 86.0182L110.311 91.3844C110.234 91.4597 110.174 91.5494 110.132 91.6483C110.09 91.7472 110.068 91.8533 110.067 91.9607C110.066 92.0681 110.087 92.1746 110.127 92.2741C110.167 92.3736 110.227 92.4641 110.302 92.5406Z" fill="#1D364C"/>
<defs>
<linearGradient id="paint0_linear_941_6915" x1="35.3333" y1="36.4655" x2="188.593" y2="67.1405" gradientUnits="userSpaceOnUse">
<stop stop-color="#FF6262"/>
<stop offset="1" stop-color="#F37F14"/>
</linearGradient>
</defs>
</svg>
