<svg width="93" height="92" viewBox="0 0 93 92" fill="none" xmlns="http://www.w3.org/2000/svg">
<g clip-path="url(#clip0_941_6785)">
<path d="M93.2501 46C93.2501 33.6011 88.3245 21.7103 79.5572 12.943C70.7898 4.17564 58.899 -0.75 46.5001 -0.75C34.1012 -0.75 22.2099 4.17563 13.4426 12.943C4.67528 21.7103 -0.250122 33.6011 -0.250122 46C-0.250122 58.3989 4.67527 70.2902 13.4426 79.0575C22.2099 87.8248 34.1013 92.75 46.5001 92.75C58.899 92.75 70.7898 87.8248 79.5572 79.0575C88.3245 70.2902 93.2501 58.3989 93.2501 46Z" fill="#04DBDD" stroke="white" stroke-width="1.5"/>
<path fill-rule="evenodd" clip-rule="evenodd" d="M59.679 28.2192L30.7316 46.1246L18.9441 43.5449L59.679 28.2192ZM65.5862 28.3648L56.183 61.0824L38.6532 51.8786L65.5862 28.3648Z" fill="white"/>
<path fill-rule="evenodd" clip-rule="evenodd" d="M61.6743 29.2407L36.5046 51.2152C36.3509 51.3483 36.2435 51.5269 36.198 51.7251L33.9478 61.6823L31.941 47.6292L61.6743 29.2407Z" fill="white"/>
<path fill-rule="evenodd" clip-rule="evenodd" d="M37.7465 53.5671L42.0629 55.8327L35.4408 63.7791L37.7465 53.5671Z" fill="white"/>
</g>
<defs>
<clipPath id="clip0_941_6785">
<rect width="92" height="92" fill="white" transform="translate(0.5)"/>
</clipPath>
</defs>
</svg>
