<svg width="24" height="25" viewBox="0 0 24 25" fill="none" xmlns="http://www.w3.org/2000/svg">
<path d="M3.6129 18.2903L3.70711 18.2071L10 11.915L13.2929 15.2071C13.6534 15.5676 14.2206 15.5953 14.6129 15.2903L14.7071 15.2071L19 10.915L20.2929 12.2071C20.8955 12.8097 21.9072 12.4277 21.994 11.6136L22 11.5L21.9983 7.44062L21.9893 7.35305L21.9643 7.23416L21.9401 7.15833L21.9063 7.07678L21.854 6.97929L21.7871 6.88298L21.7071 6.79286C21.6717 6.7575 21.6343 6.72531 21.5953 6.69633L21.4841 6.62467L21.3713 6.57123L21.266 6.53585L21.1485 6.51102L21.0893 6.50397L21 6.5H17C16.1478 6.5 15.7026 7.48551 16.2168 8.12253L16.2929 8.20711L17.585 9.5L14 13.085L10.7071 9.79289C10.3466 9.43241 9.77939 9.40468 9.3871 9.7097L9.29289 9.79289L2.29289 16.7929C1.90237 17.1834 1.90237 17.8166 2.29289 18.2071C2.65338 18.5676 3.22061 18.5953 3.6129 18.2903Z" fill="#7D8592"/>
</svg>
