<svg width="24" height="24" viewBox="0 0 24 24" fill="none" xmlns="http://www.w3.org/2000/svg">
<path d="M18.1826 3H21.1826C21.731 3 22.257 3.21785 22.6447 3.60563C23.0325 3.99341 23.2504 4.51935 23.2504 5.06775V15.1823C23.2504 15.4538 23.1969 15.7227 23.093 15.9735C22.9891 16.2244 22.8367 16.4524 22.6447 16.6444C22.4527 16.8364 22.2248 16.9887 21.9739 17.0926C21.723 17.1965 21.4542 17.25 21.1826 17.25H20.2504" stroke="#7D8592" stroke-width="1.5" stroke-linecap="round" stroke-linejoin="round"/>
<path d="M11.5973 17.25H2.81775C2.54621 17.25 2.27733 17.1965 2.02646 17.0926C1.77559 16.9887 1.54764 16.8364 1.35563 16.6444C1.16362 16.4524 1.01131 16.2244 0.907398 15.9735C0.803484 15.7227 0.75 15.4538 0.75 15.1823V5.06775C0.75 4.51935 0.967852 3.99341 1.35563 3.60563C1.74341 3.21785 2.26935 3 2.81775 3H18.1823C18.7307 3 19.2566 3.21785 19.6444 3.60563C20.0321 3.99341 20.25 4.51935 20.25 5.06775V15.1823C20.2502 15.5111 20.1719 15.8352 20.0216 16.1276C19.8713 16.4201 19.6534 16.6724 19.386 16.8638" stroke="#7D8592" stroke-width="1.5" stroke-linecap="round" stroke-linejoin="round"/>
<path d="M11.2422 12.3674L12.8329 21.3824L14.9539 19.2614L17.3682 21.6749C17.5387 21.8454 17.7411 21.9807 17.9638 22.0729C18.1866 22.1652 18.4253 22.2127 18.6664 22.2127C18.9075 22.2127 19.1463 22.1652 19.369 22.0729C19.5918 21.9807 19.7942 21.8454 19.9647 21.6749L20.5504 21.0892C20.7209 20.9187 20.8562 20.7163 20.9484 20.4935C21.0407 20.2708 21.0882 20.032 21.0882 19.7909C21.0882 19.5498 21.0407 19.3111 20.9484 19.0883C20.8562 18.8656 20.7209 18.6632 20.5504 18.4927L18.1362 16.0784L20.2572 13.9574L11.2422 12.3674Z" stroke="#7D8592" stroke-width="1.5" stroke-linecap="round" stroke-linejoin="round"/>
<path d="M10.5 6V8.25" stroke="#7D8592" stroke-width="1.5" stroke-linecap="round" stroke-linejoin="round"/>
<path d="M8.25 9.75H6" stroke="#7D8592" stroke-width="1.5" stroke-linecap="round" stroke-linejoin="round"/>
<path d="M15 9.75H12.75" stroke="#7D8592" stroke-width="1.5" stroke-linecap="round" stroke-linejoin="round"/>
<path d="M12.75 7.5L13.5 6.75" stroke="#7D8592" stroke-width="1.5" stroke-linecap="round" stroke-linejoin="round"/>
<path d="M8.25 7.5L7.5 6.75" stroke="#7D8592" stroke-width="1.5" stroke-linecap="round" stroke-linejoin="round"/>
<path d="M7.5 12.75L8.25 12" stroke="#7D8592" stroke-width="1.5" stroke-linecap="round" stroke-linejoin="round"/>
</svg>
