<svg width="24" height="24" viewBox="0 0 24 24" fill="none" xmlns="http://www.w3.org/2000/svg">
<path d="M5.40039 2.40002C4.60474 2.40002 3.84168 2.71609 3.27907 3.2787C2.71646 3.84131 2.40039 4.60438 2.40039 5.40002V13.8C2.40039 14.5957 2.71646 15.3587 3.27907 15.9213C3.84168 16.484 4.60474 16.8 5.40039 16.8H7.20039V18.6C7.20039 19.3957 7.51646 20.1587 8.07907 20.7213C8.64168 21.284 9.40474 21.6 10.2004 21.6H18.6004C19.396 21.6 20.1591 21.284 20.7217 20.7213C21.2843 20.1587 21.6004 19.3957 21.6004 18.6V10.2C21.6004 9.40438 21.2843 8.64131 20.7217 8.0787C20.1591 7.5161 19.396 7.20002 18.6004 7.20002H16.8004V5.40002C16.8004 4.60438 16.4843 3.84131 15.9217 3.2787C15.3591 2.71609 14.596 2.40002 13.8004 2.40002H5.40039ZM3.60039 5.40002C3.60039 4.92263 3.79003 4.4648 4.1276 4.12723C4.46516 3.78967 4.923 3.60002 5.40039 3.60002H13.8004C14.2778 3.60002 14.7356 3.78967 15.0732 4.12723C15.4107 4.4648 15.6004 4.92263 15.6004 5.40002V13.8C15.6004 14.2774 15.4107 14.7353 15.0732 15.0728C14.7356 15.4104 14.2778 15.6 13.8004 15.6H5.40039C4.923 15.6 4.46516 15.4104 4.1276 15.0728C3.79003 14.7353 3.60039 14.2774 3.60039 13.8V5.40002Z" fill="#7D8592"/>
</svg>
