<svg width="24" height="24" viewBox="0 0 24 24" fill="none" xmlns="http://www.w3.org/2000/svg">
<path d="M4 5H20V8H4V5Z" fill="#7D8592"/>
<path d="M19.5 0H4.5C4.10218 0 3.72064 0.158035 3.43934 0.43934C3.15804 0.720644 3 1.10218 3 1.5V22.5C3 22.8978 3.15804 23.2794 3.43934 23.5607C3.72064 23.842 4.10218 24 4.5 24H19.5C19.8978 24 20.2794 23.842 20.5607 23.5607C20.842 23.2794 21 22.8978 21 22.5V1.5C21 1.10218 20.842 0.720644 20.5607 0.43934C20.2794 0.158035 19.8978 0 19.5 0ZM4.5 1H19.5C19.6326 1 19.7598 1.05268 19.8536 1.14645C19.9473 1.24021 20 1.36739 20 1.5V4H4V1.5C4 1.36739 4.05268 1.24021 4.14645 1.14645C4.24021 1.05268 4.36739 1 4.5 1ZM19.5 23H4.5C4.36739 23 4.24021 22.9473 4.14645 22.8536C4.05268 22.7598 4 22.6326 4 22.5V5H20V22.5C20 22.6326 19.9473 22.7598 19.8536 22.8536C19.7598 22.9473 19.6326 23 19.5 23Z" fill="#7D8592"/>
<path d="M6 2.5C6 2.63261 5.94732 2.75979 5.85355 2.85355C5.75978 2.94732 5.63261 3 5.5 3C5.36739 3 5.24021 2.94732 5.14645 2.85355C5.05268 2.75979 5 2.63261 5 2.5C5 2.36739 5.05268 2.24021 5.14645 2.14645C5.24021 2.05268 5.36739 2 5.5 2C5.63261 2 5.75978 2.05268 5.85355 2.14645C5.94732 2.24021 6 2.36739 6 2.5ZM8 2.5C8 2.63261 7.94732 2.75979 7.85355 2.85355C7.75978 2.94732 7.63261 3 7.5 3C7.36739 3 7.24021 2.94732 7.14645 2.85355C7.05268 2.75979 7 2.63261 7 2.5C7 2.36739 7.05268 2.24021 7.14645 2.14645C7.24021 2.05268 7.36739 2 7.5 2C7.63261 2 7.75978 2.05268 7.85355 2.14645C7.94732 2.24021 8 2.36739 8 2.5ZM10 2.5C10 2.63261 9.94732 2.75979 9.85355 2.85355C9.75979 2.94732 9.63261 3 9.5 3C9.36739 3 9.24021 2.94732 9.14645 2.85355C9.05268 2.75979 9 2.63261 9 2.5C9 2.36739 9.05268 2.24021 9.14645 2.14645C9.24021 2.05268 9.36739 2 9.5 2C9.63261 2 9.75979 2.05268 9.85355 2.14645C9.94732 2.24021 10 2.36739 10 2.5Z" fill="#7D8592"/>
<path d="M18.5 10H5.5C5.36739 10 5.24021 9.94732 5.14645 9.85355C5.05268 9.75979 5 9.63261 5 9.5C5 9.36739 5.05268 9.24021 5.14645 9.14645C5.24021 9.05268 5.36739 9 5.5 9H18.5C18.6326 9 18.7598 9.05268 18.8536 9.14645C18.9473 9.24021 19 9.36739 19 9.5C19 9.63261 18.9473 9.75979 18.8536 9.85355C18.7598 9.94732 18.6326 10 18.5 10ZM18.5 12H5.5C5.36739 12 5.24021 11.9473 5.14645 11.8536C5.05268 11.7598 5 11.6326 5 11.5C5 11.3674 5.05268 11.2402 5.14645 11.1464C5.24021 11.0527 5.36739 11 5.5 11H18.5C18.6326 11 18.7598 11.0527 18.8536 11.1464C18.9473 11.2402 19 11.3674 19 11.5C19 11.6326 18.9473 11.7598 18.8536 11.8536C18.7598 11.9473 18.6326 12 18.5 12Z" fill="#7D8592"/>
<path d="M11.0752 14.075L11.4302 19.38L12.4902 17.61L16.3802 21.5L18.5002 19.38L14.6102 15.49L16.3802 14.43L11.0752 14.075Z" fill="#7D8592"/>
<path d="M9 14H5.5C5.36739 14 5.24021 13.9473 5.14645 13.8536C5.05268 13.7598 5 13.6326 5 13.5C5 13.3674 5.05268 13.2402 5.14645 13.1464C5.24021 13.0527 5.36739 13 5.5 13H9C9.13261 13 9.25979 13.0527 9.35355 13.1464C9.44732 13.2402 9.5 13.3674 9.5 13.5C9.5 13.6326 9.44732 13.7598 9.35355 13.8536C9.25979 13.9473 9.13261 14 9 14Z" fill="#7D8592"/>
</svg>
