<svg width="18" height="18" viewBox="0 0 18 18" fill="none" xmlns="http://www.w3.org/2000/svg">
<path fill-rule="evenodd" clip-rule="evenodd" d="M0 3.00015C0 2.20446 0.316071 1.44136 0.87868 0.878723C1.44129 0.316086 2.20435 0 3 0H15C15.7956 0 16.5587 0.316086 17.1213 0.878723C17.6839 1.44136 18 2.20446 18 3.00015V15.0007C18 15.7964 17.6839 16.5595 17.1213 17.1222C16.5587 17.6848 15.7956 18.0009 15 18.0009H3C2.20435 18.0009 1.44129 17.6848 0.87868 17.1222C0.316071 16.5595 0 15.7964 0 15.0007V3.00015ZM16 3.00015V11.5866L12.707 8.2934C12.5195 8.10592 12.2652 8.0006 12 8.0006C11.7348 8.0006 11.4805 8.10592 11.293 8.2934L10 9.58647L6.207 5.79328C6.01947 5.6058 5.76516 5.50048 5.5 5.50048C5.23484 5.50048 4.98053 5.6058 4.793 5.79328L2 8.58642V3.00015C2 2.73492 2.10536 2.48055 2.29289 2.29301C2.48043 2.10546 2.73478 2.0001 3 2.0001H15C15.2652 2.0001 15.5196 2.10546 15.7071 2.29301C15.8946 2.48055 16 2.73492 16 3.00015ZM2 15.0007V11.4146L5.5 7.91439L9.293 11.7076C9.48053 11.8951 9.73484 12.0004 10 12.0004C10.2652 12.0004 10.5195 11.8951 10.707 11.7076L12 10.4145L16 14.4147V15.0007C16 15.266 15.8946 15.5203 15.7071 15.7079C15.5196 15.8954 15.2652 16.0008 15 16.0008H3C2.73478 16.0008 2.48043 15.8954 2.29289 15.7079C2.10536 15.5203 2 15.266 2 15.0007ZM11.5 7.00034C11.8978 7.00034 12.2794 6.8423 12.5607 6.56098C12.842 6.27966 13 5.89811 13 5.50027C13 5.10242 12.842 4.72087 12.5607 4.43956C12.2794 4.15824 11.8978 4.0002 11.5 4.0002C11.1022 4.0002 10.7206 4.15824 10.4393 4.43956C10.158 4.72087 10 5.10242 10 5.50027C10 5.89811 10.158 6.27966 10.4393 6.56098C10.7206 6.8423 11.1022 7.00034 11.5 7.00034Z" fill="#7D8592"/>
</svg>
