<svg width="24" height="24" viewBox="0 0 24 24" fill="none" xmlns="http://www.w3.org/2000/svg">
<g clip-path="url(#clip0_483_5779)">
<path d="M21.5557 6.63956C21.5532 6.63498 21.5513 6.63031 21.5488 6.62578C21.5477 6.62386 21.5463 6.62212 21.5452 6.6202C21.411 6.38986 21.2177 6.19951 20.9853 6.06878L12.7354 1.42815C12.5106 1.30268 12.2575 1.23682 12 1.23682C11.7426 1.23682 11.4894 1.30268 11.2646 1.42815L3.01455 6.06882C2.78134 6.20017 2.58754 6.39154 2.45327 6.62308C2.45183 6.6256 2.45009 6.62789 2.44867 6.63045C2.44638 6.63453 2.44473 6.63878 2.44254 6.6429C2.31656 6.86677 2.25026 7.11927 2.25 7.37615V16.6239C2.25021 16.89 2.32112 17.1513 2.45547 17.381C2.58982 17.6107 2.7828 17.8006 3.01465 17.9313L11.2647 22.5719C11.4726 22.6881 11.7051 22.7531 11.943 22.7614C11.9601 22.7628 11.977 22.7643 11.9944 22.7645H12.0012C12.0248 22.7645 12.0481 22.7631 12.0712 22.761C12.3043 22.7506 12.5317 22.6859 12.7354 22.5719L20.9853 17.9313C21.2172 17.8006 21.4102 17.6108 21.5446 17.381C21.6789 17.1513 21.7498 16.89 21.75 16.6239V7.37615C21.7498 7.11798 21.6828 6.86425 21.5557 6.63956ZM12 2.73552L19.476 6.94077L16.6053 8.57165L9.04124 4.39982L12 2.73552ZM12.0853 11.1395L4.53552 6.93432L7.50361 5.26476L15.0753 9.44085L12.0853 11.1395ZM12.7614 20.8362L12.8352 12.4387L15.8459 10.7283V14.2979C15.8459 14.4968 15.9249 14.6876 16.0655 14.8282C16.2062 14.9689 16.3969 15.0479 16.5959 15.0479C16.7948 15.0479 16.9855 14.9689 17.1262 14.8282C17.2668 14.6876 17.3459 14.4968 17.3459 14.2979V9.87609L20.25 8.22622V16.6239L12.7614 20.8362Z" fill="#7D8592"/>
</g>
<defs>
<clipPath id="clip0_483_5779">
<rect width="24" height="24" fill="white"/>
</clipPath>
</defs>
</svg>
