<svg width="24" height="24" viewBox="0 0 24 24" fill="none" xmlns="http://www.w3.org/2000/svg">
<path d="M2.5 21V3C2.5 2.81362 2.55994 2.69716 2.62855 2.62855C2.69716 2.55994 2.81362 2.5 3 2.5H7.5V21.5H3C2.81362 21.5 2.69716 21.4401 2.62855 21.3714C2.55994 21.3028 2.5 21.1864 2.5 21ZM10.5 21.5V2.5H21C21.1864 2.5 21.3028 2.55994 21.3714 2.62855C21.4401 2.69716 21.5 2.81362 21.5 3V21C21.5 21.1864 21.4401 21.3028 21.3714 21.3714C21.3028 21.4401 21.1864 21.5 21 21.5H10.5Z" fill="#7D8592" stroke="#7D8592"/>
</svg>
