<svg width="24" height="24" viewBox="0 0 24 24" fill="none" xmlns="http://www.w3.org/2000/svg">
<path fill-rule="evenodd" clip-rule="evenodd" d="M13.4561 9.89738V15.1373L14.0151 15.3236C14.8017 15.5858 15.6254 15.7195 16.4545 15.7195H18.2793C19.1986 15.7195 19.9901 15.0706 20.1704 14.1691L20.5308 12.3675C20.7798 11.1223 19.7784 9.98047 18.5114 10.0649L16.6582 10.1885L16.8451 8.13293C16.9011 7.51721 16.4162 6.98633 15.798 6.98633C15.4287 6.98633 15.0864 7.1801 14.8964 7.49679L13.4561 9.89738Z" fill="#7D8592"/>
<rect x="9.37988" y="9.31519" width="2.91105" height="6.40431" rx="0.642857" fill="#7D8592"/>
<path d="M5.30419 10.2043C-0.517794 6.98636 3.55767 3.4931 5.30419 5.70202C7.05094 3.4931 11.1264 6.98636 5.30419 10.2043Z" stroke="#7D8592" stroke-width="1.15714"/>
<path d="M3.26678 15.4284H7.92446M2.68457 17.1751H7.34225M7.05115 13.9729L5.30452 18.6306M5.30452 13.9729L3.55789 18.6306" stroke="#7D8592" stroke-linecap="round" stroke-linejoin="round"/>
</svg>
