<svg width="24" height="24" viewBox="0 0 24 24" fill="none" xmlns="http://www.w3.org/2000/svg">
<path fill-rule="evenodd" clip-rule="evenodd" d="M18.7245 20.5342C19.1372 20.5342 19.4717 20.7915 19.4717 21.1089C19.4717 21.4263 19.1372 21.6837 18.7245 21.6837H5.27549C4.86284 21.6837 4.52832 21.4263 4.52832 21.1089C4.52832 20.7915 4.86284 20.5342 5.27549 20.5342H18.7245Z" fill="#7D8592"/>
<path fill-rule="evenodd" clip-rule="evenodd" d="M5.27545 3.86645C4.8628 3.86645 4.52828 3.60913 4.52828 3.29171C4.52828 2.97429 4.8628 2.71696 5.27545 2.71696L18.7245 2.71696C19.1372 2.71696 19.4717 2.97429 19.4717 3.29171C19.4717 3.60913 19.1372 3.86646 18.7245 3.86646L5.27545 3.86645Z" fill="#7D8592"/>
<path fill-rule="evenodd" clip-rule="evenodd" d="M11.9997 19.3846L11.9526 19.3823L11.8843 19.373L11.8203 19.3561L11.7565 19.3308L11.7004 19.3007L11.6576 19.2718L11.5933 19.2163L9.29432 16.9173C9.06986 16.6929 9.06986 16.329 9.29432 16.1045C9.5015 15.8973 9.82752 15.8814 10.053 16.0567L10.1071 16.1045L11.425 17.4219V10.7635C11.425 10.446 11.6823 10.1887 11.9997 10.1887C12.3171 10.1887 12.5745 10.446 12.5745 10.7635V17.4219L13.8923 16.1045C14.0995 15.8973 14.4255 15.8814 14.651 16.0567L14.7051 16.1045C14.9123 16.3117 14.9282 16.6377 14.7529 16.8632L14.7051 16.9173L12.4061 19.2163L12.3808 19.2401L12.3419 19.2718L12.2779 19.313L12.2429 19.3308L12.1961 19.3502L12.1526 19.364L12.0672 19.3807L11.9997 19.3846Z" fill="#7D8592"/>
<path fill-rule="evenodd" clip-rule="evenodd" d="M11.9997 5.01599L12.0468 5.01829L12.1151 5.02762L12.1791 5.04458L12.243 5.06983L12.299 5.0999L12.3418 5.12882L12.4061 5.18433L14.7051 7.48331C14.9295 7.70777 14.9295 8.07168 14.7051 8.29613C14.4979 8.50331 14.1719 8.51925 13.9464 8.34394L13.8923 8.29613L12.5745 6.97875L12.5745 13.6372C12.5745 13.9546 12.3171 14.2119 11.9997 14.2119C11.6823 14.2119 11.425 13.9546 11.425 13.6372L11.425 6.97875L10.1071 8.29613C9.89994 8.50331 9.57393 8.51925 9.34846 8.34394L9.29432 8.29613C9.08713 8.08894 9.07119 7.76293 9.2465 7.53746L9.29432 7.48331L11.5933 5.18433L11.6186 5.16054L11.6576 5.12883L11.7215 5.08765L11.7565 5.06982L11.8033 5.05041L11.8468 5.03659L11.9322 5.01992L11.9997 5.01599Z" fill="#7D8592"/>
</svg>
