<svg width="24" height="24" viewBox="0 0 24 24" fill="none" xmlns="http://www.w3.org/2000/svg">
<path d="M23.4763 2.96456L23.5 3.24179V22.5C23.5 22.7652 23.3946 23.0196 23.2071 23.2071C23.0196 23.3946 22.7652 23.5 22.5 23.5H1.5C1.23478 23.5 0.98043 23.3946 0.792894 23.2071C0.605357 23.0196 0.5 22.7652 0.5 22.5V3.24179L0.523685 2.96456C0.570421 2.41754 1.0072 2 1.5 2H22.5C22.9928 2 23.4296 2.41754 23.4763 2.96456ZM8.5 10.5V11H9H15H15.5V10.5V6V5.5H15H9H8.5V6V10.5ZM15.5 12V11.5H15H9H8.5V12V16.6245V17.1245H9H15H15.5V16.6245V12ZM8 6V5.5H7.5H1.5H1V6V10.5V11H1.5H7.5H8V10.5V6ZM1.5 11.5H1V12V16.6245V17.1245H1.5H7.5H8V16.6245V12V11.5H7.5H1.5ZM1 22.5V23H1.5H7.5H8V22.5V18V17.5H7.5H1.5H1V18V22.5ZM8.5 22.5V23H9H15H15.5V22.5V18V17.5H15H9H8.5V18V22.5ZM22.5 23H23V22.5V18V17.5H22.5H16.5H16V18V22.5V23H16.5H22.5ZM22.5 17.1245H23V16.6245V12V11.5H22.5H16.5H16V12V16.6245V17.1245H16.5H22.5ZM22.5 11H23V10.5V6V5.5H22.5H16.5H16V6V10.5V11H16.5H22.5Z" fill="#7D8592" stroke="#7D8592"/>
</svg>
