<svg width="24" height="24" viewBox="0 0 24 24" fill="none" xmlns="http://www.w3.org/2000/svg">
<g clip-path="url(#clip0_483_5731)">
<path d="M17.625 3.375H13.125H10.875H6.375H4.125V5.625V7.125H6.375V5.625H10.875V18.375H7.875V20.625H10.875H13.125H16.125V18.375H13.125V5.625H17.625V7.125H19.875V5.625V3.375H17.625Z" fill="#7D8592"/>
<path d="M17.625 7.5H19.875C19.9745 7.5 20.0698 7.46049 20.1402 7.39017C20.2105 7.31984 20.25 7.22446 20.25 7.125V3.375C20.25 3.27554 20.2105 3.18016 20.1402 3.10984C20.0698 3.03951 19.9745 3 19.875 3H4.125C4.02554 3 3.93016 3.03951 3.85984 3.10984C3.78951 3.18016 3.75 3.27554 3.75 3.375V7.125C3.75 7.22446 3.78951 7.31984 3.85984 7.39017C3.93016 7.46049 4.02554 7.5 4.125 7.5H6.375C6.47446 7.5 6.56984 7.46049 6.64017 7.39017C6.71049 7.31984 6.75 7.22446 6.75 7.125V6H10.5V18H7.875C7.77554 18 7.68016 18.0395 7.60983 18.1098C7.53951 18.1802 7.5 18.2755 7.5 18.375V20.625C7.5 20.7245 7.53951 20.8198 7.60983 20.8902C7.68016 20.9605 7.77554 21 7.875 21H16.125C16.2245 21 16.3198 20.9605 16.3902 20.8902C16.4605 20.8198 16.5 20.7245 16.5 20.625V18.375C16.5 18.2755 16.4605 18.1802 16.3902 18.1098C16.3198 18.0395 16.2245 18 16.125 18H13.5V6H17.25V7.125C17.25 7.22446 17.2895 7.31984 17.3598 7.39017C17.4302 7.46049 17.5255 7.5 17.625 7.5ZM13.125 5.25C13.0255 5.25 12.9302 5.28951 12.8598 5.35984C12.7895 5.43016 12.75 5.52554 12.75 5.625V18.375C12.75 18.4745 12.7895 18.5698 12.8598 18.6402C12.9302 18.7105 13.0255 18.75 13.125 18.75H15.75V20.25H8.25V18.75H10.875C10.9745 18.75 11.0698 18.7105 11.1402 18.6402C11.2105 18.5698 11.25 18.4745 11.25 18.375V5.625C11.25 5.52554 11.2105 5.43016 11.1402 5.35984C11.0698 5.28951 10.9745 5.25 10.875 5.25H6.375C6.27554 5.25 6.18016 5.28951 6.10983 5.35984C6.03951 5.43016 6 5.52554 6 5.625V6.75H4.5V3.75H19.5V6.75H18V5.625C18 5.52554 17.9605 5.43016 17.8902 5.35984C17.8198 5.28951 17.7245 5.25 17.625 5.25H13.125ZM0.375 9.10725C0.474456 9.10725 0.569839 9.06774 0.640165 8.99742C0.710491 8.92709 0.75 8.83171 0.75 8.73225V6.48225C0.75 6.38279 0.710491 6.28741 0.640165 6.21708C0.569839 6.14676 0.474456 6.10725 0.375 6.10725C0.275544 6.10725 0.180161 6.14676 0.109835 6.21708C0.0395088 6.28741 0 6.38279 0 6.48225L0 8.73225C0 8.83171 0.0395088 8.92709 0.109835 8.99742C0.180161 9.06774 0.275544 9.10725 0.375 9.10725ZM0.375 13.6073C0.474456 13.6073 0.569839 13.5677 0.640165 13.4974C0.710491 13.4271 0.75 13.3317 0.75 13.2323V10.9823C0.75 10.8828 0.710491 10.7874 0.640165 10.7171C0.569839 10.6468 0.474456 10.6073 0.375 10.6073C0.275544 10.6073 0.180161 10.6468 0.109835 10.7171C0.0395088 10.7874 0 10.8828 0 10.9823L0 13.2323C0 13.3317 0.0395088 13.4271 0.109835 13.4974C0.180161 13.5677 0.275544 13.6073 0.375 13.6073ZM6.16125 0.75H8.41125C8.51071 0.75 8.60609 0.710491 8.67641 0.640165C8.74674 0.569839 8.78625 0.474456 8.78625 0.375C8.78625 0.275544 8.74674 0.180161 8.67641 0.109835C8.60609 0.0395088 8.51071 0 8.41125 0L6.16125 0C6.06179 0 5.96641 0.0395088 5.89608 0.109835C5.82576 0.180161 5.78625 0.275544 5.78625 0.375C5.78625 0.474456 5.82576 0.569839 5.89608 0.640165C5.96641 0.710491 6.06179 0.75 6.16125 0.75ZM0.375 18.1073C0.474456 18.1073 0.569839 18.0677 0.640165 17.9974C0.710491 17.9271 0.75 17.8317 0.75 17.7323V15.4823C0.75 15.3828 0.710491 15.2874 0.640165 15.2171C0.569839 15.1468 0.474456 15.1073 0.375 15.1073C0.275544 15.1073 0.180161 15.1468 0.109835 15.2171C0.0395088 15.2874 0 15.3828 0 15.4823L0 17.7323C0 17.8317 0.0395088 17.9271 0.109835 17.9974C0.180161 18.0677 0.275544 18.1073 0.375 18.1073ZM0.375 4.60725C0.474456 4.60725 0.569839 4.56774 0.640165 4.49742C0.710491 4.42709 0.75 4.33171 0.75 4.23225V1.98225C0.75 1.88279 0.710491 1.78741 0.640165 1.71708C0.569839 1.64676 0.474456 1.60725 0.375 1.60725C0.275544 1.60725 0.180161 1.64676 0.109835 1.71708C0.0395088 1.78741 0 1.88279 0 1.98225L0 4.23225C0 4.33171 0.0395088 4.42709 0.109835 4.49742C0.180161 4.56774 0.275544 4.60725 0.375 4.60725ZM0.375 19.6073C0.275544 19.6073 0.180161 19.6468 0.109835 19.7171C0.0395088 19.7874 0 19.8828 0 19.9823L0 22.1175C0 22.1647 0 22.2105 0 22.2555C0.0059243 22.3509 0.0480335 22.4404 0.117728 22.5058C0.187422 22.5711 0.279444 22.6074 0.375 22.6073H0.40125C0.50038 22.6005 0.592785 22.5547 0.658173 22.4799C0.723561 22.4051 0.756588 22.3074 0.75 22.2083V19.9815C0.749801 19.8822 0.710205 19.787 0.6399 19.7168C0.569596 19.6467 0.474326 19.6073 0.375 19.6073ZM19.6613 0.75H21.9113C22.0107 0.75 22.1061 0.710491 22.1764 0.640165C22.2467 0.569839 22.2863 0.474456 22.2863 0.375C22.2863 0.275544 22.2467 0.180161 22.1764 0.109835C22.1061 0.0395088 22.0107 0 21.9113 0L19.6613 0C19.5618 0 19.4664 0.0395088 19.3961 0.109835C19.3258 0.180161 19.2863 0.275544 19.2863 0.375C19.2863 0.474456 19.3258 0.569839 19.3961 0.640165C19.4664 0.710491 19.5618 0.75 19.6613 0.75ZM10.6613 0.75H12.9113C13.0107 0.75 13.1061 0.710491 13.1764 0.640165C13.2467 0.569839 13.2863 0.474456 13.2863 0.375C13.2863 0.275544 13.2467 0.180161 13.1764 0.109835C13.1061 0.0395088 13.0107 0 12.9113 0L10.6613 0C10.5618 0 10.4664 0.0395088 10.3961 0.109835C10.3258 0.180161 10.2863 0.275544 10.2863 0.375C10.2863 0.474456 10.3258 0.569839 10.3961 0.640165C10.4664 0.710491 10.5618 0.75 10.6613 0.75ZM15.1613 0.75H17.4113C17.5107 0.75 17.6061 0.710491 17.6764 0.640165C17.7467 0.569839 17.7863 0.474456 17.7863 0.375C17.7863 0.275544 17.7467 0.180161 17.6764 0.109835C17.6061 0.0395088 17.5107 0 17.4113 0L15.1613 0C15.0618 0 14.9664 0.0395088 14.8961 0.109835C14.8258 0.180161 14.7863 0.275544 14.7863 0.375C14.7863 0.474456 14.8258 0.569839 14.8961 0.640165C14.9664 0.710491 15.0618 0.75 15.1613 0.75ZM23.958 1.47825C23.9372 1.38088 23.8786 1.29576 23.7951 1.24161C23.7115 1.18746 23.6099 1.16871 23.5125 1.1895C23.4151 1.21029 23.33 1.2689 23.2759 1.35245C23.2217 1.436 23.203 1.53763 23.2238 1.635C23.2405 1.71392 23.2493 1.79432 23.25 1.875V3.804C23.25 3.90346 23.2895 3.99884 23.3598 4.06917C23.4302 4.13949 23.5255 4.179 23.625 4.179C23.7245 4.179 23.8198 4.13949 23.8902 4.06917C23.9605 3.99884 24 3.90346 24 3.804V1.875C23.9992 1.74164 23.9857 1.60871 23.958 1.47825ZM23.6257 19.1782C23.5263 19.1782 23.4309 19.2178 23.3606 19.2881C23.2903 19.3584 23.2507 19.4538 23.2507 19.5532V21.8032C23.2507 21.9027 23.2903 21.9981 23.3606 22.0684C23.4309 22.1387 23.5263 22.1782 23.6257 22.1782C23.7252 22.1782 23.8206 22.1387 23.8909 22.0684C23.9612 21.9981 24.0007 21.9027 24.0007 21.8032V19.5532C24.0007 19.504 23.9909 19.4553 23.9719 19.4098C23.953 19.3643 23.9253 19.3231 23.8904 19.2883C23.8555 19.2536 23.8141 19.226 23.7686 19.2073C23.723 19.1885 23.6742 19.1789 23.625 19.179L23.6257 19.1782ZM23.6257 14.6782C23.5263 14.6782 23.4309 14.7178 23.3606 14.7881C23.2903 14.8584 23.2507 14.9538 23.2507 15.0532V17.3032C23.2507 17.4027 23.2903 17.4981 23.3606 17.5684C23.4309 17.6387 23.5263 17.6782 23.6257 17.6782C23.7252 17.6782 23.8206 17.6387 23.8909 17.5684C23.9612 17.4981 24.0007 17.4027 24.0007 17.3032V15.0532C24.0007 15.004 23.9909 14.9553 23.9719 14.9098C23.953 14.8643 23.9253 14.8231 23.8904 14.7883C23.8555 14.7536 23.8141 14.726 23.7686 14.7073C23.723 14.6885 23.6742 14.6789 23.625 14.679L23.6257 14.6782ZM22.4422 23.205C22.3392 23.2353 22.2324 23.2504 22.125 23.25H19.875C19.7755 23.25 19.6802 23.2895 19.6098 23.3598C19.5395 23.4302 19.5 23.5255 19.5 23.625C19.5 23.7245 19.5395 23.8198 19.6098 23.8902C19.6802 23.9605 19.7755 24 19.875 24H22.125C22.3027 24 22.4794 23.9747 22.65 23.925C22.7455 23.8971 22.8259 23.8323 22.8737 23.745C22.9214 23.6578 22.9326 23.5551 22.9046 23.4596C22.8767 23.3641 22.8119 23.2837 22.7247 23.2359C22.6374 23.1882 22.5347 23.1771 22.4393 23.205H22.4422ZM23.625 10.179C23.5255 10.179 23.4302 10.2185 23.3598 10.2888C23.2895 10.3592 23.25 10.4545 23.25 10.554V12.804C23.25 12.9035 23.2895 12.9988 23.3598 13.0692C23.4302 13.1395 23.5255 13.179 23.625 13.179C23.7245 13.179 23.8198 13.1395 23.8902 13.0692C23.9605 12.9988 24 12.9035 24 12.804V10.554C24 10.4545 23.9605 10.3592 23.8902 10.2888C23.8198 10.2185 23.7245 10.179 23.625 10.179ZM23.625 5.679C23.5255 5.679 23.4302 5.71851 23.3598 5.78884C23.2895 5.85916 23.25 5.95454 23.25 6.054V8.304C23.25 8.40346 23.2895 8.49884 23.3598 8.56917C23.4302 8.63949 23.5255 8.679 23.625 8.679C23.7245 8.679 23.8198 8.63949 23.8902 8.56917C23.9605 8.49884 24 8.40346 24 8.304V6.054C24 5.95454 23.9605 5.85916 23.8902 5.78884C23.8198 5.71851 23.7245 5.679 23.625 5.679ZM4.125 23.25H1.875C1.77554 23.25 1.68016 23.2895 1.60984 23.3598C1.53951 23.4302 1.5 23.5255 1.5 23.625C1.5 23.7245 1.53951 23.8198 1.60984 23.8902C1.68016 23.9605 1.77554 24 1.875 24H4.125C4.22446 24 4.31984 23.9605 4.39016 23.8902C4.46049 23.8198 4.5 23.7245 4.5 23.625C4.5 23.5255 4.46049 23.4302 4.39016 23.3598C4.31984 23.2895 4.22446 23.25 4.125 23.25ZM8.625 23.25H6.375C6.27554 23.25 6.18016 23.2895 6.10983 23.3598C6.03951 23.4302 6 23.5255 6 23.625C6 23.7245 6.03951 23.8198 6.10983 23.8902C6.18016 23.9605 6.27554 24 6.375 24H8.625C8.72446 24 8.81984 23.9605 8.89017 23.8902C8.96049 23.8198 9 23.7245 9 23.625C9 23.5255 8.96049 23.4302 8.89017 23.3598C8.81984 23.2895 8.72446 23.25 8.625 23.25ZM1.7145 0.76125C1.76625 0.75 1.8195 0.75675 1.875 0.75H3.91125C4.01071 0.75 4.10609 0.710491 4.17641 0.640165C4.24674 0.569839 4.28625 0.474456 4.28625 0.375C4.28625 0.275544 4.24674 0.180161 4.17641 0.109835C4.10609 0.0395088 4.01071 0 3.91125 0L1.875 0C1.76325 0.0105 1.69425 0.006 1.60725 0.018C1.50913 0.0324114 1.42071 0.0851037 1.36135 0.164546C1.30198 0.243989 1.27651 0.343713 1.29049 0.441895C1.30447 0.540077 1.35678 0.628722 1.43596 0.688433C1.51515 0.748143 1.61476 0.774055 1.713 0.7605L1.7145 0.76125ZM17.625 23.25H15.375C15.2755 23.25 15.1802 23.2895 15.1098 23.3598C15.0395 23.4302 15 23.5255 15 23.625C15 23.7245 15.0395 23.8198 15.1098 23.8902C15.1802 23.9605 15.2755 24 15.375 24H17.625C17.7245 24 17.8198 23.9605 17.8902 23.8902C17.9605 23.8198 18 23.7245 18 23.625C18 23.5255 17.9605 23.4302 17.8902 23.3598C17.8198 23.2895 17.7245 23.25 17.625 23.25ZM13.125 23.25H10.875C10.7755 23.25 10.6802 23.2895 10.6098 23.3598C10.5395 23.4302 10.5 23.5255 10.5 23.625C10.5 23.7245 10.5395 23.8198 10.6098 23.8902C10.6802 23.9605 10.7755 24 10.875 24H13.125C13.2245 24 13.3198 23.9605 13.3902 23.8902C13.4605 23.8198 13.5 23.7245 13.5 23.625C13.5 23.5255 13.4605 23.4302 13.3902 23.3598C13.3198 23.2895 13.2245 23.25 13.125 23.25Z" fill="#7D8592"/>
</g>
<defs>
<clipPath id="clip0_483_5731">
<rect width="24" height="24" fill="white"/>
</clipPath>
</defs>
</svg>
