<svg width="200" height="80" viewBox="0 0 1600 600" fill="none" xmlns="http://www.w3.org/2000/svg">
<path fill-rule="evenodd" clip-rule="evenodd" d="M200.911 183C233.306 183 259.568 209.261 259.568 241.657H146.657C114.261 241.657 88 215.396 88 183H200.911ZM346.005 410.894C342.754 410.188 339.689 409.265 336.81 408.124C329.396 405.13 323.193 401.066 318.203 395.934C313.356 390.658 309.72 384.456 307.296 377.327C305.045 370.293 303.905 362.703 303.875 354.558C298.673 353.047 293.174 352.237 287.485 352.237H174.574C174.574 384.633 200.836 410.894 233.231 410.894H346.005ZM319.132 310.805C311.528 287.226 289.404 270.168 263.295 270.168H112.14C112.14 302.564 138.404 328.825 170.799 328.825H270.959H308.094C308.183 328.595 308.274 328.366 308.366 328.139C311.198 321.314 314.787 315.536 319.132 310.805Z" fill="url(#paint0_linear_380_3506)"/>
<path d="M310.802 351.314C310.802 341.333 312.299 332.636 315.293 325.222C318.429 317.666 322.493 311.392 327.483 306.402C332.473 301.412 338.176 297.634 344.592 295.067C351.151 292.501 357.852 291.218 364.695 291.218C380.664 291.218 393.282 296.137 402.549 305.974C411.817 315.67 416.451 329.999 416.451 348.961C416.451 350.815 416.379 352.882 416.237 355.163C416.094 357.302 415.952 359.227 415.809 360.938H343.523C344.236 367.496 347.301 372.7 352.719 376.55C358.137 380.399 365.408 382.324 374.533 382.324C380.379 382.324 386.082 381.825 391.642 380.827V380.827C398.853 379.385 406.711 383.824 407.91 391.079L408.627 395.422C409.337 399.714 407.144 403.957 402.977 405.208V405.208C400.126 406.063 396.918 406.776 393.353 407.346C389.931 408.059 386.224 408.629 382.232 409.057C378.24 409.485 374.248 409.699 370.256 409.699C360.133 409.699 351.293 408.202 343.737 405.208C336.323 402.214 330.121 398.15 325.13 393.017C320.283 387.742 316.647 381.54 314.223 374.411C311.942 367.282 310.802 359.583 310.802 351.314ZM385.654 339.123C385.512 336.414 385.013 333.777 384.157 331.21C383.444 328.644 382.232 326.363 380.521 324.367C378.953 322.371 376.886 320.731 374.319 319.448C371.895 318.165 368.83 317.523 365.123 317.523C361.559 317.523 358.493 318.165 355.927 319.448C353.361 320.589 351.222 322.157 349.511 324.153C347.8 326.149 346.446 328.502 345.448 331.21C344.592 333.777 343.951 336.414 343.523 339.123H385.654Z" fill="#333333"/>
<path d="M485.739 328.43L506.852 295.95C507.556 294.866 508.761 294.212 510.054 294.212H533.512C536.615 294.212 538.423 297.717 536.624 300.246L502.421 348.32C510.975 359.013 518.746 369.421 525.732 379.544C530.659 386.683 534.877 393.291 538.386 399.367C540.295 402.673 537.859 406.705 534.041 406.705H511.251C509.37 406.705 507.643 405.668 506.751 404.012C505.914 402.461 504.97 400.721 503.918 398.792C502.207 395.512 500.282 392.162 498.144 388.74C496.005 385.176 493.724 381.683 491.3 378.261C489.019 374.696 486.737 371.488 484.456 368.637C482.318 371.346 480.108 374.34 477.826 377.619C475.688 380.898 473.62 384.249 471.624 387.671C469.628 390.95 467.632 394.229 465.636 397.508C464.375 399.739 463.214 401.87 462.151 403.903C461.257 405.612 459.499 406.705 457.57 406.705H436.303C432.553 406.705 430.14 402.812 432.004 399.558C432.991 397.836 434.078 396.012 435.267 394.087C438.261 389.239 441.469 384.249 444.891 379.116C448.456 373.841 452.163 368.637 456.012 363.504C459.862 358.229 463.64 353.31 467.347 348.747C460.931 339.765 454.515 330.711 448.099 321.587C443.109 314.378 438.162 307.256 433.257 300.22C431.492 297.687 433.303 294.212 436.392 294.212H461.425C462.717 294.212 463.923 294.866 464.627 295.95L485.739 328.43Z" fill="#333333"/>
<path d="M631.533 351.314C631.533 341.476 629.323 333.634 624.903 327.789C620.484 321.8 613.925 318.806 605.228 318.806C602.376 318.806 599.739 318.949 597.315 319.234V319.234C593.831 319.439 591.327 322.412 591.327 325.902V370.454C591.327 374.786 593.523 378.934 597.661 380.216C598.103 380.353 598.558 380.486 599.026 380.613C602.305 381.469 605.584 381.896 608.864 381.896C623.977 381.896 631.533 371.702 631.533 351.314ZM664.041 350.458C664.041 359.155 662.971 367.068 660.833 374.197C658.694 381.326 655.557 387.457 651.423 392.59C647.288 397.722 642.155 401.714 636.024 404.566C629.894 407.418 622.836 408.843 614.852 408.843C610.432 408.843 606.297 408.416 602.448 407.56C598.598 406.705 594.891 405.493 591.327 403.924V441.177C591.327 443.99 589.047 446.27 586.234 446.27H564.553C561.741 446.27 559.461 443.99 559.461 441.177V308.181C559.461 302.175 563.4 296.843 569.299 295.709V295.709C573.006 294.853 576.855 294.141 580.847 293.57C584.982 293 589.117 292.572 593.251 292.287C597.529 291.859 601.592 291.646 605.442 291.646C614.709 291.646 622.979 293.071 630.25 295.923C637.521 298.632 643.652 302.553 648.642 307.685C653.633 312.676 657.411 318.806 659.977 326.078C662.686 333.349 664.041 341.476 664.041 350.458Z" fill="#333333"/>
<path d="M683.185 351.314C683.185 341.333 684.682 332.636 687.676 325.222C690.813 317.666 694.876 311.392 699.866 306.402C704.856 301.412 710.559 297.634 716.975 295.067C723.534 292.501 730.235 291.218 737.079 291.218C753.047 291.218 765.665 296.137 774.933 305.974C784.2 315.67 788.834 329.999 788.834 348.961C788.834 350.815 788.763 352.882 788.62 355.163C788.477 357.302 788.335 359.227 788.192 360.938H715.906C716.619 367.496 719.684 372.7 725.102 376.55C730.52 380.399 737.792 382.324 746.916 382.324C752.762 382.324 758.465 381.825 764.026 380.827V380.827C771.236 379.385 779.094 383.824 780.293 391.079L781.011 395.422C781.72 399.714 779.528 403.957 775.36 405.208V405.208C772.509 406.063 769.301 406.776 765.737 407.346C762.315 408.059 758.608 408.629 754.616 409.057C750.623 409.485 746.631 409.699 742.639 409.699C732.516 409.699 723.676 408.202 716.12 405.208C708.706 402.214 702.504 398.15 697.514 393.017C692.666 387.742 689.03 381.54 686.607 374.411C684.325 367.282 683.185 359.583 683.185 351.314ZM755.354 339.123C756.812 339.123 757.984 337.897 757.778 336.453C757.525 334.674 757.112 332.926 756.54 331.21C755.827 328.644 754.616 326.363 752.905 324.367C751.336 322.371 749.269 320.731 746.703 319.448C744.279 318.165 741.213 317.523 737.506 317.523C733.942 317.523 730.877 318.165 728.31 319.448C725.744 320.589 723.605 322.157 721.894 324.153C720.183 326.149 718.829 328.502 717.831 331.21C717.287 332.843 716.829 334.505 716.458 336.195C716.122 337.724 717.321 339.123 718.886 339.123H755.354Z" fill="#333333"/>
<path d="M883.267 312.37C882.152 317.859 876.676 321.323 871.168 320.303V320.303C867.319 319.448 863.184 319.02 858.764 319.02C856.768 319.02 854.344 319.234 851.493 319.662C848.784 319.947 846.717 320.303 845.291 320.731V406.705H813.425V300.2C819.128 298.204 825.829 296.351 833.528 294.64C841.37 292.786 850.067 291.859 859.62 291.859C861.331 291.859 863.398 292.002 865.822 292.287C868.246 292.43 870.669 292.715 873.093 293.143C875.517 293.428 877.941 293.855 880.365 294.426V294.426C884.053 295.077 886.029 298.783 885.283 302.454L883.267 312.37Z" fill="#333333"/>
<path d="M896.214 351.314C896.214 341.333 897.711 332.636 900.705 325.222C903.842 317.666 907.905 311.392 912.895 306.402C917.886 301.412 923.589 297.634 930.005 295.067C936.563 292.501 943.264 291.218 950.108 291.218C966.076 291.218 978.694 296.137 987.962 305.974C997.229 315.67 1001.86 329.999 1001.86 348.961C1001.86 350.815 1001.79 352.882 1001.65 355.163V355.163C1001.43 358.429 998.704 360.938 995.431 360.938H928.935C929.648 367.496 932.714 372.7 938.131 376.55C943.549 380.399 950.821 382.324 959.946 382.324C965.791 382.324 971.494 381.825 977.055 380.827V380.827C984.265 379.385 992.123 383.824 993.322 391.079L994.04 395.422C994.749 399.714 992.557 403.957 988.39 405.208V405.208C985.538 406.063 982.33 406.776 978.766 407.346C975.344 408.059 971.637 408.629 967.645 409.057C963.653 409.485 959.66 409.699 955.668 409.699C945.545 409.699 936.706 408.202 929.149 405.208C921.735 402.214 915.533 398.15 910.543 393.017C905.695 387.742 902.06 381.54 899.636 374.411C897.355 367.282 896.214 359.583 896.214 351.314ZM969.725 339.123C970.454 339.123 971.037 338.511 970.967 337.785C970.749 335.544 970.283 333.352 969.569 331.21C968.857 328.644 967.645 326.363 965.934 324.367C964.365 322.371 962.298 320.731 959.732 319.448C957.308 318.165 954.243 317.523 950.536 317.523C946.971 317.523 943.906 318.165 941.339 319.448C938.773 320.589 936.634 322.157 934.923 324.153C933.213 326.149 931.858 328.502 930.86 331.21C930.16 333.311 929.603 335.459 929.189 337.655C929.044 338.424 929.643 339.123 930.425 339.123H969.725Z" fill="#333333"/>
<path d="M1021.11 350.458C1021.11 342.331 1022.39 334.704 1024.96 327.575C1027.67 320.303 1031.52 314.03 1036.51 308.755C1041.5 303.337 1047.56 299.059 1054.68 295.923C1061.81 292.786 1069.94 291.218 1079.06 291.218C1085.05 291.218 1090.54 291.788 1095.53 292.929C1096.93 293.207 1098.31 293.525 1099.68 293.881C1105.79 295.47 1108.9 301.947 1107.3 308.057L1106.04 312.912C1104.65 318.227 1098.95 321.157 1093.61 319.876V319.876C1090.04 319.02 1086.05 318.592 1081.63 318.592C1072.22 318.592 1065.16 321.515 1060.46 327.361C1055.9 333.207 1053.61 340.906 1053.61 350.458C1053.61 360.581 1055.75 368.423 1060.03 373.983C1064.45 379.544 1072.08 382.324 1082.91 382.324C1086.76 382.324 1090.9 381.968 1095.32 381.255V381.255C1101.72 380.222 1108.56 383.949 1109.66 390.341L1110.29 393.974C1111.29 399.802 1108.14 405.592 1102.4 407.017C1101.03 407.356 1099.6 407.68 1098.1 407.988C1092.54 409.128 1086.41 409.699 1079.71 409.699C1069.44 409.699 1060.6 408.202 1053.19 405.208C1045.77 402.071 1039.64 397.865 1034.79 392.59C1030.09 387.314 1026.6 381.112 1024.32 373.983C1022.18 366.712 1021.11 358.87 1021.11 350.458Z" fill="#333333"/>
<path d="M921.915 276.897C921.915 266.525 930.323 258.116 940.696 258.116H976.849C976.849 268.489 968.44 276.897 958.068 276.897H921.915Z" fill="url(#paint1_linear_380_3506)"/>
<defs>
<linearGradient id="paint0_linear_380_3506" x1="133.581" y1="241.938" x2="334.094" y2="273.97" gradientUnits="userSpaceOnUse">
<stop stop-color="#FF6262"/>
<stop offset="1" stop-color="#F37F14"/>
</linearGradient>
<linearGradient id="paint1_linear_380_3506" x1="931.62" y1="272.04" x2="969.03" y2="256.6" gradientUnits="userSpaceOnUse">
<stop stop-color="#FF6262"/>
<stop offset="1" stop-color="#F37F14"/>
</linearGradient>
</defs>
</svg>
