<svg width="14" height="12" viewBox="0 0 14 12" fill="none" xmlns="http://www.w3.org/2000/svg">
<path fill-rule="evenodd" clip-rule="evenodd" d="M13.0007 10.6667C13.3688 10.6667 13.6673 10.9651 13.6673 11.3333C13.6673 11.7015 13.3688 12 13.0007 12H1.00065C0.632461 12 0.333984 11.7015 0.333984 11.3333C0.333984 10.9651 0.632461 10.6667 1.00065 10.6667H13.0007ZM13.0007 8C13.3688 8 13.6673 8.29848 13.6673 8.66667C13.6673 9.03486 13.3688 9.33333 13.0007 9.33333H5.00065C4.63246 9.33333 4.33398 9.03486 4.33398 8.66667C4.33398 8.29848 4.63246 8 5.00065 8H13.0007ZM13.0007 5.33333C13.3688 5.33333 13.6673 5.63181 13.6673 6C13.6673 6.36819 13.3688 6.66667 13.0007 6.66667H1.00065C0.632461 6.66667 0.333984 6.36819 0.333984 6C0.333984 5.63181 0.632461 5.33333 1.00065 5.33333H13.0007ZM13.0007 2.66667C13.3688 2.66667 13.6673 2.96514 13.6673 3.33333C13.6673 3.70152 13.3688 4 13.0007 4H5.00065C4.63246 4 4.33398 3.70152 4.33398 3.33333C4.33398 2.96514 4.63246 2.66667 5.00065 2.66667H13.0007ZM13.0007 0C13.3688 0 13.6673 0.298477 13.6673 0.666667C13.6673 1.03486 13.3688 1.33333 13.0007 1.33333H1.00065C0.632461 1.33333 0.333984 1.03486 0.333984 0.666667C0.333984 0.298477 0.632461 0 1.00065 0H13.0007Z" fill="#A5B4CB"/>
</svg>
