<svg width="16" height="16" viewBox="0 0 16 16" fill="none" xmlns="http://www.w3.org/2000/svg">
<path fill-rule="evenodd" clip-rule="evenodd" d="M14.0007 12.6667C14.3688 12.6667 14.6673 12.9651 14.6673 13.3333C14.6673 13.7015 14.3688 14 14.0007 14H2.00065C1.63246 14 1.33398 13.7015 1.33398 13.3333C1.33398 12.9651 1.63246 12.6667 2.00065 12.6667H14.0007ZM14.0007 10C14.3688 10 14.6673 10.2985 14.6673 10.6667C14.6673 11.0349 14.3688 11.3333 14.0007 11.3333H2.00065C1.63246 11.3333 1.33398 11.0349 1.33398 10.6667C1.33398 10.2985 1.63246 10 2.00065 10H14.0007ZM14.0007 7.33333C14.3688 7.33333 14.6673 7.63181 14.6673 8C14.6673 8.36819 14.3688 8.66667 14.0007 8.66667H2.00065C1.63246 8.66667 1.33398 8.36819 1.33398 8C1.33398 7.63181 1.63246 7.33333 2.00065 7.33333H14.0007ZM14.0007 4.66667C14.3688 4.66667 14.6673 4.96514 14.6673 5.33333C14.6673 5.70152 14.3688 6 14.0007 6H2.00065C1.63246 6 1.33398 5.70152 1.33398 5.33333C1.33398 4.96514 1.63246 4.66667 2.00065 4.66667H14.0007ZM14.0007 2C14.3688 2 14.6673 2.29848 14.6673 2.66667C14.6673 3.03486 14.3688 3.33333 14.0007 3.33333H2.00065C1.63246 3.33333 1.33398 3.03486 1.33398 2.66667C1.33398 2.29848 1.63246 2 2.00065 2H14.0007Z" fill="#A5B4CB"/>
</svg>
