<svg width="24" height="24" viewBox="0 0 24 24" fill="none" xmlns="http://www.w3.org/2000/svg">
<path fill-rule="evenodd" clip-rule="evenodd" d="M9.293 3.29301C9.48049 3.10546 9.73481 3.00006 10 3H14C14.7956 3 15.5587 3.31609 16.1213 3.87872C16.6839 4.44136 17 5.20446 17 6.00015V15.0006C17 15.7963 16.6839 16.5594 16.1213 17.122C15.5587 17.6846 14.7956 18.0007 14 18.0007H7C6.20435 18.0007 5.44129 17.6846 4.87868 17.122C4.31607 16.5594 4 15.7963 4 15.0006V9.00029C4.00006 8.73509 4.10545 8.48076 4.293 8.29326L9.293 3.29301ZM14 5.0001H11V9.00029C11 9.26552 10.8946 9.51989 10.7071 9.70743C10.5196 9.89498 10.2652 10.0003 10 10.0003H6V15.0006C6 15.2658 6.10536 15.5202 6.29289 15.7077C6.48043 15.8953 6.73478 16.0006 7 16.0006H14C14.2652 16.0006 14.5196 15.8953 14.7071 15.7077C14.8946 15.5202 15 15.2658 15 15.0006V6.00015C15 5.73492 14.8946 5.48055 14.7071 5.29301C14.5196 5.10546 14.2652 5.0001 14 5.0001ZM7.414 8.00024H9V6.41417L7.414 8.00024ZM19 5.0001C19.2652 5.0001 19.5196 5.10546 19.7071 5.29301C19.8946 5.48055 20 5.73492 20 6.00015V18.0007C20 18.7964 19.6839 19.5595 19.1213 20.1222C18.5587 20.6848 17.7956 21.0009 17 21.0009H7C6.73478 21.0009 6.48043 20.8955 6.29289 20.708C6.10536 20.5204 6 20.2661 6 20.0008C6 19.7356 6.10536 19.4812 6.29289 19.2937C6.48043 19.1061 6.73478 19.0008 7 19.0008H17C17.2652 19.0008 17.5196 18.8954 17.7071 18.7079C17.8946 18.5203 18 18.266 18 18.0007V6.00015C18 5.73492 18.1054 5.48055 18.2929 5.29301C18.4804 5.10546 18.7348 5.0001 19 5.0001Z" fill="#A5B4CB"/>
</svg>
