<svg width="78" height="57" viewBox="0 0 78 57" fill="none" xmlns="http://www.w3.org/2000/svg">
<mask id="path-1-inside-1_711_281" fill="white">
<path d="M75.3131 0.833496H2.68815C2.22955 0.833496 1.78973 1.01568 1.46545 1.33996C1.14116 1.66424 0.958984 2.10406 0.958984 2.56266V54.4377C0.958984 54.8963 1.14116 55.3361 1.46545 55.6604C1.78973 55.9846 2.22955 56.1668 2.68815 56.1668H75.3131C75.7718 56.1668 76.2116 55.9846 76.5359 55.6604C76.8601 55.3361 77.0423 54.8963 77.0423 54.4377V2.56266C77.0423 2.10406 76.8601 1.66424 76.5359 1.33996C76.2116 1.01568 75.7718 0.833496 75.3131 0.833496ZM4.41732 4.29183H73.584V11.2085H4.41732V4.29183ZM18.2506 52.7085V42.3335H25.1673V52.7085H18.2506ZM35.5423 52.7085V42.3335H42.459V52.7085H35.5423ZM52.834 52.7085V42.3335H59.7506V52.7085H52.834ZM73.584 52.7085H63.209V40.6043C63.209 40.1457 63.0268 39.7059 62.7025 39.3816C62.3782 39.0573 61.9384 38.8752 61.4798 38.8752H51.1048C50.6462 38.8752 50.2064 39.0573 49.8821 39.3816C49.5578 39.7059 49.3756 40.1457 49.3756 40.6043V52.7085H45.9173V40.6043C45.9173 40.1457 45.7351 39.7059 45.4109 39.3816C45.0866 39.0573 44.6468 38.8752 44.1881 38.8752H33.8131C33.3545 38.8752 32.9147 39.0573 32.5904 39.3816C32.2662 39.7059 32.084 40.1457 32.084 40.6043V52.7085H28.6256V40.6043C28.6256 40.1457 28.4435 39.7059 28.1192 39.3816C27.7949 39.0573 27.3551 38.8752 26.8965 38.8752H16.5215C16.0629 38.8752 15.6231 39.0573 15.2988 39.3816C14.9745 39.7059 14.7923 40.1457 14.7923 40.6043V52.7085H4.41732V14.6668H73.584V52.7085Z"/>
</mask>
<path d="M75.3131 0.833496H2.68815C2.22955 0.833496 1.78973 1.01568 1.46545 1.33996C1.14116 1.66424 0.958984 2.10406 0.958984 2.56266V54.4377C0.958984 54.8963 1.14116 55.3361 1.46545 55.6604C1.78973 55.9846 2.22955 56.1668 2.68815 56.1668H75.3131C75.7718 56.1668 76.2116 55.9846 76.5359 55.6604C76.8601 55.3361 77.0423 54.8963 77.0423 54.4377V2.56266C77.0423 2.10406 76.8601 1.66424 76.5359 1.33996C76.2116 1.01568 75.7718 0.833496 75.3131 0.833496ZM4.41732 4.29183H73.584V11.2085H4.41732V4.29183ZM18.2506 52.7085V42.3335H25.1673V52.7085H18.2506ZM35.5423 52.7085V42.3335H42.459V52.7085H35.5423ZM52.834 52.7085V42.3335H59.7506V52.7085H52.834ZM73.584 52.7085H63.209V40.6043C63.209 40.1457 63.0268 39.7059 62.7025 39.3816C62.3782 39.0573 61.9384 38.8752 61.4798 38.8752H51.1048C50.6462 38.8752 50.2064 39.0573 49.8821 39.3816C49.5578 39.7059 49.3756 40.1457 49.3756 40.6043V52.7085H45.9173V40.6043C45.9173 40.1457 45.7351 39.7059 45.4109 39.3816C45.0866 39.0573 44.6468 38.8752 44.1881 38.8752H33.8131C33.3545 38.8752 32.9147 39.0573 32.5904 39.3816C32.2662 39.7059 32.084 40.1457 32.084 40.6043V52.7085H28.6256V40.6043C28.6256 40.1457 28.4435 39.7059 28.1192 39.3816C27.7949 39.0573 27.3551 38.8752 26.8965 38.8752H16.5215C16.0629 38.8752 15.6231 39.0573 15.2988 39.3816C14.9745 39.7059 14.7923 40.1457 14.7923 40.6043V52.7085H4.41732V14.6668H73.584V52.7085Z" fill="url(#paint0_linear_711_281)"/>
<path d="M75.3131 0.833496V4.9835V0.833496ZM2.68815 0.833496V4.9835V0.833496ZM0.958984 2.56266H-3.19102H0.958984ZM0.958984 54.4377H-3.19102H0.958984ZM4.41732 4.29183V0.14183H0.267318V4.29183H4.41732ZM73.584 4.29183H77.734V0.14183H73.584V4.29183ZM73.584 11.2085V15.3585H77.734V11.2085H73.584ZM4.41732 11.2085H0.267318V15.3585H4.41732V11.2085ZM18.2506 52.7085H14.1006V56.8585H18.2506V52.7085ZM18.2506 42.3335V38.1835H14.1006V42.3335H18.2506ZM25.1673 42.3335H29.3173V38.1835H25.1673V42.3335ZM25.1673 52.7085V56.8585H29.3173V52.7085H25.1673ZM35.5423 52.7085H31.3923V56.8585H35.5423V52.7085ZM35.5423 42.3335V38.1835H31.3923V42.3335H35.5423ZM42.459 42.3335H46.609V38.1835H42.459V42.3335ZM42.459 52.7085V56.8585H46.609V52.7085H42.459ZM52.834 52.7085H48.684V56.8585H52.834V52.7085ZM52.834 42.3335V38.1835H48.684V42.3335H52.834ZM59.7506 42.3335H63.9006V38.1835H59.7506V42.3335ZM59.7506 52.7085V56.8585H63.9006V52.7085H59.7506ZM73.584 52.7085V56.8585H77.734V52.7085H73.584ZM63.209 52.7085H59.059V56.8585H63.209V52.7085ZM49.3756 52.7085V56.8585H53.5256V52.7085H49.3756ZM45.9173 52.7085H41.7673V56.8585H45.9173V52.7085ZM32.084 52.7085V56.8585H36.234V52.7085H32.084ZM28.6256 52.7085H24.4756V56.8585H28.6256V52.7085ZM14.7923 52.7085V56.8585H18.9423V52.7085H14.7923ZM4.41732 52.7085H0.267318V56.8585H4.41732V52.7085ZM4.41732 14.6668V10.5168H0.267318V14.6668H4.41732ZM73.584 14.6668H77.734V10.5168H73.584V14.6668ZM75.3131 -3.3165H2.68815V4.9835H75.3131V-3.3165ZM2.68815 -3.3165C1.1289 -3.3165 -0.366491 -2.69709 -1.46905 -1.59454L4.39994 4.27445C3.94595 4.72844 3.3302 4.9835 2.68815 4.9835V-3.3165ZM-1.46905 -1.59454C-2.5716 -0.491978 -3.19102 1.00341 -3.19102 2.56266H5.10898C5.10898 3.20471 4.85393 3.82046 4.39994 4.27445L-1.46905 -1.59454ZM-3.19102 2.56266V54.4377H5.10898V2.56266H-3.19102ZM-3.19102 54.4377C-3.19102 55.9969 -2.57161 57.4923 -1.46905 58.5949L4.39994 52.7259C4.85394 53.1799 5.10898 53.7956 5.10898 54.4377H-3.19102ZM-1.46905 58.5949C-0.366484 59.6974 1.12891 60.3168 2.68815 60.3168V52.0168C3.33019 52.0168 3.94594 52.2719 4.39994 52.7259L-1.46905 58.5949ZM2.68815 60.3168H75.3131V52.0168H2.68815V60.3168ZM75.3131 60.3168C76.8724 60.3168 78.3678 59.6974 79.4703 58.5949L73.6014 52.7259C74.0554 52.2719 74.6711 52.0168 75.3131 52.0168V60.3168ZM79.4703 58.5949C80.5729 57.4923 81.1923 55.9969 81.1923 54.4377H72.8923C72.8923 53.7956 73.1474 53.1799 73.6014 52.7259L79.4703 58.5949ZM81.1923 54.4377V2.56266H72.8923V54.4377H81.1923ZM81.1923 2.56266C81.1923 1.00342 80.5729 -0.491972 79.4703 -1.59454L73.6014 4.27445C73.1474 3.82045 72.8923 3.2047 72.8923 2.56266H81.1923ZM79.4703 -1.59454C78.3678 -2.69709 76.8724 -3.3165 75.3131 -3.3165V4.9835C74.6711 4.9835 74.0554 4.72845 73.6014 4.27445L79.4703 -1.59454ZM4.41732 8.44183H73.584V0.14183H4.41732V8.44183ZM69.434 4.29183V11.2085H77.734V4.29183H69.434ZM73.584 7.0585H4.41732V15.3585H73.584V7.0585ZM8.56732 11.2085V4.29183H0.267318V11.2085H8.56732ZM22.4007 52.7085V42.3335H14.1006V52.7085H22.4007ZM18.2506 46.4835H25.1673V38.1835H18.2506V46.4835ZM21.0173 42.3335V52.7085H29.3173V42.3335H21.0173ZM25.1673 48.5585H18.2506V56.8585H25.1673V48.5585ZM39.6923 52.7085V42.3335H31.3923V52.7085H39.6923ZM35.5423 46.4835H42.459V38.1835H35.5423V46.4835ZM38.309 42.3335V52.7085H46.609V42.3335H38.309ZM42.459 48.5585H35.5423V56.8585H42.459V48.5585ZM56.984 52.7085V42.3335H48.684V52.7085H56.984ZM52.834 46.4835H59.7506V38.1835H52.834V46.4835ZM55.6006 42.3335V52.7085H63.9006V42.3335H55.6006ZM59.7506 48.5585H52.834V56.8585H59.7506V48.5585ZM73.584 48.5585H63.209V56.8585H73.584V48.5585ZM67.359 52.7085V40.6043H59.059V52.7085H67.359ZM67.359 40.6043C67.359 39.0451 66.7396 37.5497 65.637 36.4471L59.768 42.3161C59.314 41.8621 59.059 41.2464 59.059 40.6043H67.359ZM65.637 36.4471C64.5344 35.3446 63.0391 34.7252 61.4798 34.7252V43.0252C60.8378 43.0252 60.222 42.7701 59.768 42.3161L65.637 36.4471ZM61.4798 34.7252H51.1048V43.0252H61.4798V34.7252ZM51.1048 34.7252C49.5456 34.7252 48.0502 35.3446 46.9476 36.4471L52.8166 42.3161C52.3626 42.7701 51.7468 43.0252 51.1048 43.0252V34.7252ZM46.9476 36.4471C45.845 37.5497 45.2256 39.0451 45.2256 40.6043H53.5256C53.5256 41.2464 53.2706 41.8621 52.8166 42.3161L46.9476 36.4471ZM45.2256 40.6043V52.7085H53.5256V40.6043H45.2256ZM49.3756 48.5585H45.9173V56.8585H49.3756V48.5585ZM50.0673 52.7085V40.6043H41.7673V52.7085H50.0673ZM50.0673 40.6043C50.0673 39.0451 49.4479 37.5497 48.3453 36.4471L42.4764 42.3161C42.0224 41.8621 41.7673 41.2464 41.7673 40.6043H50.0673ZM48.3453 36.4471C47.2428 35.3446 45.7474 34.7252 44.1881 34.7252V43.0252C43.5461 43.0252 42.9304 42.7701 42.4764 42.3161L48.3453 36.4471ZM44.1881 34.7252H33.8131V43.0252H44.1881V34.7252ZM33.8131 34.7252C32.2539 34.7252 30.7585 35.3446 29.6559 36.4471L35.5249 42.3161C35.0709 42.7701 34.4552 43.0252 33.8131 43.0252V34.7252ZM29.6559 36.4471C28.5534 37.5497 27.934 39.0451 27.934 40.6043H36.234C36.234 41.2464 35.9789 41.8621 35.5249 42.3161L29.6559 36.4471ZM27.934 40.6043V52.7085H36.234V40.6043H27.934ZM32.084 48.5585H28.6256V56.8585H32.084V48.5585ZM32.7756 52.7085V40.6043H24.4756V52.7085H32.7756ZM32.7756 40.6043C32.7756 39.0451 32.1562 37.5497 31.0537 36.4471L25.1847 42.3161C24.7307 41.8621 24.4756 41.2464 24.4756 40.6043H32.7756ZM31.0537 36.4471C29.9511 35.3446 28.4557 34.7252 26.8965 34.7252V43.0252C26.2544 43.0252 25.6387 42.7701 25.1847 42.3161L31.0537 36.4471ZM26.8965 34.7252H16.5215V43.0252H26.8965V34.7252ZM16.5215 34.7252C14.9622 34.7252 13.4668 35.3446 12.3643 36.4471L18.2333 42.3161C17.7793 42.7701 17.1635 43.0252 16.5215 43.0252V34.7252ZM12.3643 36.4471C11.2617 37.5497 10.6423 39.0451 10.6423 40.6043H18.9423C18.9423 41.2464 18.6873 41.8621 18.2333 42.3161L12.3643 36.4471ZM10.6423 40.6043V52.7085H18.9423V40.6043H10.6423ZM14.7923 48.5585H4.41732V56.8585H14.7923V48.5585ZM8.56732 52.7085V14.6668H0.267318V52.7085H8.56732ZM4.41732 18.8168H73.584V10.5168H4.41732V18.8168ZM69.434 14.6668V52.7085H77.734V14.6668H69.434Z" fill="url(#paint1_linear_711_281)" mask="url(#path-1-inside-1_711_281)"/>
<path d="M7.87565 6.021C7.53366 6.021 7.19934 6.12241 6.91498 6.31241C6.63062 6.50242 6.40899 6.77247 6.27811 7.08844C6.14723 7.4044 6.11299 7.75208 6.17971 8.08751C6.24643 8.42293 6.41112 8.73104 6.65295 8.97287C6.89478 9.2147 7.20288 9.37938 7.53831 9.4461C7.87373 9.51282 8.22141 9.47858 8.53737 9.3477C8.85334 9.21683 9.1234 8.9952 9.3134 8.71084C9.5034 8.42648 9.60482 8.09216 9.60482 7.75016C9.60482 7.29156 9.42264 6.85174 9.09836 6.52746C8.77408 6.20318 8.33426 6.021 7.87565 6.021ZM13.0632 6.021C12.7212 6.021 12.3868 6.12241 12.1025 6.31241C11.8181 6.50242 11.5965 6.77247 11.4656 7.08844C11.3347 7.4044 11.3005 7.75208 11.3672 8.08751C11.4339 8.42293 11.5986 8.73104 11.8404 8.97287C12.0823 9.2147 12.3904 9.37938 12.7258 9.4461C13.0612 9.51282 13.4089 9.47858 13.7249 9.3477C14.0408 9.21683 14.3109 8.9952 14.5009 8.71084C14.6909 8.42648 14.7923 8.09216 14.7923 7.75016C14.7923 7.29156 14.6101 6.85174 14.2859 6.52746C13.9616 6.20318 13.5218 6.021 13.0632 6.021ZM18.2507 6.021C17.9087 6.021 17.5743 6.12241 17.29 6.31241C17.0056 6.50242 16.784 6.77247 16.6531 7.08844C16.5222 7.4044 16.488 7.75208 16.5547 8.08751C16.6214 8.42293 16.7861 8.73104 17.0279 8.97287C17.2698 9.2147 17.5779 9.37938 17.9133 9.4461C18.2487 9.51282 18.5964 9.47858 18.9124 9.3477C19.2283 9.21683 19.4984 8.9952 19.6884 8.71084C19.8784 8.42648 19.9798 8.09216 19.9798 7.75016C19.9798 7.29156 19.7976 6.85174 19.4734 6.52746C19.1491 6.20318 18.7093 6.021 18.2507 6.021ZM16.5215 35.4168H61.4798C61.9384 35.4168 62.3782 35.2346 62.7025 34.9104C63.0268 34.5861 63.209 34.1463 63.209 33.6877V19.8543C63.209 19.3957 63.0268 18.9559 62.7025 18.6316C62.3782 18.3073 61.9384 18.1252 61.4798 18.1252H16.5215C16.0629 18.1252 15.6231 18.3073 15.2988 18.6316C14.9745 18.9559 14.7923 19.3957 14.7923 19.8543V33.6877C14.7923 34.1463 14.9745 34.5861 15.2988 34.9104C15.6231 35.2346 16.0629 35.4168 16.5215 35.4168ZM18.2507 21.5835H59.7506V31.9585H18.2507V21.5835Z" fill="url(#paint2_linear_711_281)"/>
<defs>
<linearGradient id="paint0_linear_711_281" x1="14.4004" y1="15.1438" x2="72.8388" y2="26.4821" gradientUnits="userSpaceOnUse">
<stop stop-color="#FF6262"/>
<stop offset="1" stop-color="#F37F14"/>
</linearGradient>
<linearGradient id="paint1_linear_711_281" x1="14.4004" y1="15.1438" x2="72.8388" y2="26.4821" gradientUnits="userSpaceOnUse">
<stop stop-color="#FF6262"/>
<stop offset="1" stop-color="#F37F14"/>
</linearGradient>
<linearGradient id="paint2_linear_711_281" x1="16.2275" y1="13.6234" x2="58.5322" y2="25.2111" gradientUnits="userSpaceOnUse">
<stop stop-color="#FF6262"/>
<stop offset="1" stop-color="#F37F14"/>
</linearGradient>
</defs>
</svg>
