<svg width="24" height="24" viewBox="0 0 24 24" fill="none" xmlns="http://www.w3.org/2000/svg">
<path fill-rule="evenodd" clip-rule="evenodd" d="M6.3013 15.577C4.7783 14.268 3.6913 12.773 3.1803 12C3.6903 11.227 4.7783 9.732 6.3013 8.423C7.8743 7.072 9.8163 6 12.0003 6C14.1843 6 16.1263 7.072 17.6993 8.423C19.2223 9.732 20.3093 11.227 20.8203 12C20.3103 12.773 19.2223 14.268 17.6993 15.577C16.1263 16.928 14.1843 18 12.0003 18C9.8163 18 7.8743 16.928 6.3013 15.577ZM12.0003 4C9.1483 4 6.7573 5.395 4.9983 6.906C3.2333 8.423 2.0083 10.138 1.4643 10.97C1.26333 11.2759 1.15625 11.634 1.15625 12C1.15625 12.366 1.26333 12.7241 1.4643 13.03C2.0083 13.862 3.2333 15.577 4.9983 17.094C6.7583 18.605 9.1483 20 12.0003 20C14.8523 20 17.2433 18.605 19.0023 17.094C20.7673 15.577 21.9923 13.862 22.5363 13.03C22.9473 12.402 22.9473 11.599 22.5363 10.97C21.9923 10.138 20.7673 8.423 19.0023 6.906C17.2423 5.395 14.8523 4 12.0003 4ZM10.0003 12C10.0003 11.4696 10.211 10.9609 10.5861 10.5858C10.9612 10.2107 11.4699 10 12.0003 10C12.5307 10 13.0394 10.2107 13.4145 10.5858C13.7896 10.9609 14.0003 11.4696 14.0003 12C14.0003 12.5304 13.7896 13.0391 13.4145 13.4142C13.0394 13.7893 12.5307 14 12.0003 14C11.4699 14 10.9612 13.7893 10.5861 13.4142C10.211 13.0391 10.0003 12.5304 10.0003 12ZM12.0003 8C10.9394 8 9.92202 8.42143 9.17187 9.17157C8.42172 9.92172 8.0003 10.9391 8.0003 12C8.0003 13.0609 8.42172 14.0783 9.17187 14.8284C9.92202 15.5786 10.9394 16 12.0003 16C13.0612 16 14.0786 15.5786 14.8287 14.8284C15.5789 14.0783 16.0003 13.0609 16.0003 12C16.0003 10.9391 15.5789 9.92172 14.8287 9.17157C14.0786 8.42143 13.0612 8 12.0003 8Z" fill="#A5B4CB"/>
</svg>
