<svg width="24" height="25" viewBox="0 0 24 25" fill="none" xmlns="http://www.w3.org/2000/svg">
<path fill-rule="evenodd" clip-rule="evenodd" d="M8.99967 14.7912L2.15601 4.03688C1.73236 3.37115 2.21058 2.5 2.99967 2.5H20.9997C21.7888 2.5 22.267 3.37115 21.8433 4.03688L14.9997 14.7912V19.5C14.9997 19.8788 14.7857 20.225 14.4469 20.3944L10.4469 22.3944C9.78198 22.7269 8.99967 22.2434 8.99967 21.5V14.7912ZM4.82134 4.5L10.8433 13.9631C10.9454 14.1236 10.9997 14.3098 10.9997 14.5V19.882L12.9997 18.882V14.5C12.9997 14.3098 13.0539 14.1236 13.156 13.9631L19.178 4.5H4.82134Z" fill="black"/>
</svg>
