<svg width="17" height="16" viewBox="0 0 17 16" fill="none" xmlns="http://www.w3.org/2000/svg">
<path fill-rule="evenodd" clip-rule="evenodd" d="M1.16602 3.33347C1.16602 2.80301 1.37673 2.29428 1.7518 1.91919C2.12687 1.5441 2.63558 1.33337 3.16602 1.33337H6.12468C6.57063 1.33342 7.00377 1.48252 7.35527 1.75697C7.70677 2.03142 7.95647 2.41548 8.06468 2.84812L8.35401 4.00017H13.8327C14.3631 4.00017 14.8718 4.2109 15.2469 4.58599C15.622 4.96108 15.8327 5.46981 15.8327 6.00027V12.6673C15.8327 13.1977 15.622 13.7065 15.2469 14.0816C14.8718 14.4566 14.3631 14.6674 13.8327 14.6674H3.16602C2.63558 14.6674 2.12687 14.4566 1.7518 14.0816C1.37673 13.7065 1.16602 13.1977 1.16602 12.6673V3.33347ZM2.49935 6.00027V12.6673C2.49935 12.8441 2.56959 13.0137 2.69461 13.1387C2.81964 13.2637 2.9892 13.334 3.16602 13.334H13.8327C14.0095 13.334 14.1791 13.2637 14.3041 13.1387C14.4291 13.0137 14.4993 12.8441 14.4993 12.6673V6.00027C14.4993 5.82345 14.4291 5.65387 14.3041 5.52884C14.1791 5.40381 14.0095 5.33357 13.8327 5.33357H3.16602C2.9892 5.33357 2.81964 5.40381 2.69461 5.52884C2.56959 5.65387 2.49935 5.82345 2.49935 6.00027ZM6.97935 4.00017H3.16602C2.93268 4.00017 2.70802 4.04017 2.49935 4.11351V3.33347C2.49935 3.15665 2.56959 2.98708 2.69461 2.86205C2.81964 2.73701 2.9892 2.66677 3.16602 2.66677H6.12468C6.2733 2.66678 6.41766 2.71644 6.53482 2.80788C6.65198 2.89932 6.73523 3.02729 6.77135 3.17147L6.97935 4.00017Z" fill="url(#paint0_linear_488_5976)"/>
<defs>
<linearGradient id="paint0_linear_488_5976" x1="3.75713" y1="4.78182" x2="15.1715" y2="6.55343" gradientUnits="userSpaceOnUse">
<stop stop-color="#FF6262"/>
<stop offset="1" stop-color="#F37F14"/>
</linearGradient>
</defs>
</svg>
