<svg width="84" height="83" viewBox="0 0 84 83" fill="none" xmlns="http://www.w3.org/2000/svg">
<path d="M66.8972 23.8604H66.8616L63.914 20.7168C65.0019 21.8733 66.0191 22.9469 66.8972 23.8604Z" fill="#727DFF" stroke="#727DFF" stroke-width="4.15"/>
<path d="M53.5422 39.0411C53.1066 38.9179 52.6426 38.9408 52.2213 39.1062C51.7999 39.2717 51.4443 39.5706 51.2088 39.9572L48.9222 43.7036L46.4249 39.9001C46.1803 39.5261 45.8214 39.2411 45.4016 39.0875C44.9819 38.934 44.5238 38.9202 44.0955 39.0481C43.6673 39.176 43.2918 39.4389 43.0251 39.7975C42.7583 40.1561 42.6146 40.5913 42.6152 41.0383V50.7067C42.6152 51.2571 42.8339 51.7848 43.223 52.174C43.6121 52.5631 44.1399 52.7817 44.6902 52.7817C45.2406 52.7817 45.7683 52.5631 46.1575 52.174C46.5466 51.7848 46.7652 51.2571 46.7652 50.7067V47.9781L47.2529 48.7199C47.6419 49.3144 48.2924 49.69 49.0218 49.6557C49.3713 49.6499 49.7137 49.5558 50.0172 49.3822C50.3206 49.2086 50.5753 48.9612 50.7575 48.6629L50.9049 48.4211V50.7067C50.9049 51.2571 51.1235 51.7848 51.5126 52.174C51.9017 52.5631 52.4295 52.7817 52.9799 52.7817C53.5302 52.7817 54.058 52.5631 54.4471 52.174C54.8362 51.7848 55.0549 51.2571 55.0549 50.7067V41.0383C55.0548 40.586 54.907 40.1461 54.634 39.7856C54.3609 39.4251 53.9775 39.1637 53.5422 39.0411ZM65.8625 48.308H61.4915V40.5932C61.4915 40.0429 61.2729 39.5151 60.8838 39.1259C60.4946 38.7368 59.9668 38.5182 59.4165 38.5182C58.8662 38.5182 58.3384 38.7368 57.9493 39.1259C57.5601 39.5151 57.3415 40.0429 57.3415 40.5932V50.383C57.3415 50.9334 57.5601 51.4611 57.9493 51.8503C58.3384 52.2394 58.8662 52.458 59.4165 52.458H65.8625C66.4128 52.458 66.9406 52.2394 67.3297 51.8503C67.7189 51.4611 67.9375 50.9334 67.9375 50.383C67.9375 49.8327 67.7189 49.3049 67.3297 48.9158C66.9406 48.5266 66.4128 48.308 65.8625 48.308ZM25.0151 38.7267C24.4648 38.7267 23.937 38.9453 23.5478 39.3345C23.1587 39.7236 22.9401 40.2514 22.9401 40.8017V43.575H20.2125V40.8017C20.2125 40.2514 19.9939 39.7236 19.6047 39.3345C19.2156 38.9453 18.6878 38.7267 18.1375 38.7267C17.5872 38.7267 17.0594 38.9453 16.6703 39.3345C16.2811 39.7236 16.0625 40.2514 16.0625 40.8017V50.4982C16.0625 51.0485 16.2811 51.5763 16.6703 51.9654C17.0594 52.3546 17.5872 52.5732 18.1375 52.5732C18.6878 52.5732 19.2156 52.3546 19.6047 51.9654C19.9939 51.5763 20.2125 51.0485 20.2125 50.4982V47.725H22.9401V50.4982C22.9401 51.0485 23.1587 51.5763 23.5478 51.9654C23.937 52.3546 24.4648 52.5732 25.0151 52.5732C25.5654 52.5732 26.0932 52.3546 26.4823 51.9654C26.8715 51.5763 27.0901 51.0485 27.0901 50.4982V40.8017C27.0901 40.2514 26.8715 39.7236 26.4823 39.3345C26.0932 38.9453 25.5654 38.7267 25.0151 38.7267ZM39.2755 39.4322H30.6643C30.1139 39.4322 29.5862 39.6508 29.197 40.04C28.8079 40.4291 28.5893 40.9569 28.5893 41.5072C28.5893 42.0575 28.8079 42.5853 29.197 42.9745C29.5862 43.3636 30.1139 43.5822 30.6643 43.5822H32.8918L32.8845 50.3944C32.8843 50.6669 32.9377 50.9368 33.0417 51.1887C33.1457 51.4405 33.2983 51.6694 33.4908 51.8623C33.6833 52.0552 33.9119 52.2082 34.1635 52.3128C34.4152 52.4173 34.685 52.4713 34.9575 52.4715H34.9595C35.5095 52.4715 36.037 52.2532 36.426 51.8645C36.8151 51.4758 37.034 50.9486 37.0345 50.3986L37.0418 43.5822H39.2755C39.8258 43.5822 40.3536 43.3636 40.7428 42.9745C41.1319 42.5853 41.3505 42.0575 41.3505 41.5072C41.3505 40.9569 41.1319 40.4291 40.7428 40.04C40.3536 39.6508 39.8258 39.4322 39.2755 39.4322Z" fill="#727DFF"/>
</svg>
