<svg width="21" height="21" viewBox="0 0 21 21" fill="none" xmlns="http://www.w3.org/2000/svg">
<path d="M16.8368 15.9166C16.8368 16.4249 16.4247 16.837 15.9163 16.837H12.583C12.0747 16.837 11.6626 16.4249 11.6626 15.9166L11.6626 12.5833C11.6626 12.0749 12.0747 11.6628 12.583 11.6628L15.9163 11.6628C16.4247 11.6628 16.8368 12.0749 16.8368 12.5833V15.9166Z" stroke="#A5B4CB" stroke-width="0.659091"/>
<path fill-rule="evenodd" clip-rule="evenodd" d="M17.1665 8.76024C17.1665 9.26075 16.7608 9.66649 16.2603 9.66649L12.2394 9.66649C11.7389 9.66649 11.3332 9.26075 11.3332 8.76024L11.3332 4.73941C11.3332 4.2389 11.7389 3.83316 12.2394 3.83316L16.2603 3.83316C16.7608 3.83316 17.1665 4.2389 17.1665 4.73941L17.1665 8.76024ZM9.66684 8.76025C9.66684 9.26076 9.26109 9.6665 8.76059 9.6665L4.73975 9.6665C4.23925 9.6665 3.8335 9.26076 3.8335 8.76025L3.8335 4.73942C3.8335 4.23891 4.23925 3.83317 4.73975 3.83317L8.76059 3.83317C9.2611 3.83317 9.66684 4.23891 9.66684 4.73942L9.66684 8.76025Z" fill="#A5B4CB"/>
<path d="M7.15783 13.6151C7.06908 13.5263 7.06908 13.3824 7.15783 13.2937C7.24659 13.2049 7.39049 13.2049 7.47924 13.2937L8.84288 14.6573C8.92892 14.7434 8.93193 14.8819 8.84971 14.9716L7.59971 16.3352C7.51489 16.4278 7.37113 16.434 7.2786 16.3492C7.18607 16.2644 7.17982 16.1206 7.26464 16.0281L8.3676 14.8249L7.15783 13.6151Z" fill="#A5B4CB"/>
<path d="M7.65945 15.0453C7.78497 15.0453 7.88672 14.9435 7.88672 14.818C7.88672 14.6925 7.78497 14.5908 7.65945 14.5908H6.18217C6.05665 14.5908 5.9549 14.489 5.9549 14.3635V12.0813C5.9549 11.9558 5.85315 11.854 5.72763 11.854C5.60211 11.854 5.50036 11.9558 5.50036 12.0813V14.3635C5.50036 14.74 5.80562 15.0453 6.18217 15.0453H7.65945Z" fill="#A5B4CB"/>
</svg>
