<svg width="16" height="21" viewBox="0 0 16 21" fill="none" xmlns="http://www.w3.org/2000/svg">
<path fill-rule="evenodd" clip-rule="evenodd" d="M11 18.5C11.5523 18.5 12 18.9477 12 19.5C12 20.0523 11.5523 20.5 11 20.5H5C4.44772 20.5 4 20.0523 4 19.5C4 18.9477 4.44772 18.5 5 18.5H11ZM7.99966 0.5C12.7126 0.5 16 3.34118 16 7.87862C16 9.72945 15.3164 11.2626 14.0131 12.9493L13.7768 13.2486C13.5676 13.5081 12.7725 14.4414 12.5047 14.7716L12.3528 14.9673C12.1422 15.2498 12.033 15.4444 12.004 15.5468L11.9794 15.7022C11.8851 16.1613 11.4794 16.5 11 16.5H5C4.52064 16.5 4.11491 16.1613 4.02058 15.7022L3.99605 15.5468C3.96704 15.4444 3.85775 15.2498 3.64716 14.9673L3.49532 14.7716L2.22323 13.2485L1.98686 12.9492C0.683744 11.2625 0 9.72944 0 7.87868C0 3.34128 3.28731 0.5 7.99966 0.5ZM7.99966 2.5C4.33235 2.5 2 4.5159 2 7.87868C2 9.20032 2.51274 10.3555 3.56299 11.7179L3.78021 11.9932C3.9488 12.2023 4.63949 13.014 4.98111 13.4294L5.12759 13.6107C5.37961 13.9337 5.57654 14.2224 5.71938 14.5H10.2806L10.3728 14.3319C10.5044 14.1055 10.6708 13.8691 10.8724 13.6107L11.4446 12.9189C11.763 12.5399 12.1074 12.1327 12.2198 11.9933L12.437 11.7179C13.4873 10.3555 14 9.20038 14 7.87868C14 4.51583 11.6676 2.5 7.99966 2.5Z" fill="#727DFF"/>
</svg>
