<svg width="14" height="20" viewBox="0 0 14 20" fill="none" xmlns="http://www.w3.org/2000/svg">
<path fill-rule="evenodd" clip-rule="evenodd" d="M11 0C12.6569 0 14 1.34315 14 3V17C14 18.6569 12.6569 20 11 20H3C1.34315 20 0 18.6569 0 17V3C0 1.34315 1.34315 0 3 0H11ZM11 2H3C2.44772 2 2 2.44772 2 3V17C2 17.5523 2.44772 18 3 18H11C11.5523 18 12 17.5523 12 17V3C12 2.44772 11.5523 2 11 2ZM7 14C7.55228 14 8 14.4477 8 15C8 15.5523 7.55228 16 7 16C6.44772 16 6 15.5523 6 15C6 14.4477 6.44772 14 7 14Z" fill="#A5B4CB"/>
</svg>
