<svg width="124" height="124" viewBox="0 0 124 124" fill="none" xmlns="http://www.w3.org/2000/svg">
<path fill-rule="evenodd" clip-rule="evenodd" d="M62 10.3334C90.5348 10.3334 113.667 33.4653 113.667 62C113.667 90.5348 90.5348 113.667 62 113.667C33.4653 113.667 10.3334 90.5348 10.3334 62C10.3334 33.4653 33.4653 10.3334 62 10.3334ZM62 20.6667C39.1723 20.6667 20.6667 39.1723 20.6667 62C20.6667 84.8278 39.1723 103.333 62 103.333C84.8278 103.333 103.333 84.8278 103.333 62C103.333 39.1723 84.8278 20.6667 62 20.6667ZM54.27 36.8705L85.27 57.5372C88.4868 59.4136 88.676 63.8984 85.8377 66.0817L54.27 87.1296C50.8256 89.1388 46.5 86.6543 46.5 82.6667V41.3334C46.5 37.3458 50.8256 34.8613 54.27 36.8705Z" fill="white"/>
</svg>
