<svg width="21" height="21" viewBox="0 0 21 21" fill="none" xmlns="http://www.w3.org/2000/svg">
<path d="M5.0835 16.9168C4.53121 16.9168 4.0835 16.4691 4.0835 15.9168L4.0835 12.5835C4.0835 12.0312 4.53121 11.5835 5.0835 11.5835L8.41683 11.5835C8.96911 11.5835 9.41683 12.0312 9.41683 12.5835V15.9168C9.41683 16.4691 8.96911 16.9168 8.41683 16.9168H5.0835Z" stroke="#727DFF" stroke-width="0.5"/>
<path fill-rule="evenodd" clip-rule="evenodd" d="M3.8335 8.979C3.8335 9.3587 4.1413 9.6665 4.521 9.6665L8.97933 9.6665C9.35903 9.6665 9.66683 9.3587 9.66683 8.979L9.66683 4.52067C9.66683 4.14097 9.35902 3.83317 8.97933 3.83317L4.521 3.83317C4.1413 3.83317 3.8335 4.14098 3.8335 4.52067L3.8335 8.979ZM11.3335 8.979C11.3335 9.3587 11.6413 9.6665 12.021 9.6665L16.4793 9.6665C16.859 9.6665 17.1668 9.3587 17.1668 8.979L17.1668 4.52067C17.1668 4.14097 16.859 3.83317 16.4793 3.83317L12.021 3.83317C11.6413 3.83317 11.3335 4.14098 11.3335 4.52067L11.3335 8.979Z" fill="#727DFF"/>
<path d="M13.8427 13.6151C13.9314 13.5263 13.9314 13.3824 13.8427 13.2937C13.7539 13.2049 13.61 13.2049 13.5212 13.2937L12.1576 14.6573C12.0716 14.7434 12.0686 14.8819 12.1508 14.9716L13.4008 16.3352C13.4856 16.4278 13.6294 16.434 13.7219 16.3492C13.8144 16.2644 13.8207 16.1206 13.7359 16.0281L12.6329 14.8249L13.8427 13.6151Z" fill="#727DFF"/>
<path d="M13.341 15.0453C13.2155 15.0453 13.1138 14.9435 13.1138 14.818C13.1138 14.6925 13.2155 14.5908 13.341 14.5908H14.8183C14.9438 14.5908 15.0456 14.489 15.0456 14.3635V12.0813C15.0456 11.9558 15.1473 11.854 15.2729 11.854C15.3984 11.854 15.5001 11.9558 15.5001 12.0813V14.3635C15.5001 14.74 15.1949 15.0453 14.8183 15.0453H13.341Z" fill="#727DFF"/>
</svg>
