<svg width="16" height="16" viewBox="0 0 16 16" fill="none" xmlns="http://www.w3.org/2000/svg">
<path fill-rule="evenodd" clip-rule="evenodd" d="M11.3333 13.3334C11.7015 13.3334 12 13.6319 12 14C12 14.3682 11.7015 14.6667 11.3333 14.6667H4.66667C4.29848 14.6667 4 14.3682 4 14C4 13.6319 4.29848 13.3334 4.66667 13.3334H11.3333ZM11.3333 1.33337C11.6752 1.33337 11.957 1.59073 11.9955 1.92229L12 2.00004V8.00004C12 10.2092 10.2091 12 8 12C5.84107 12 4.08162 10.2897 4.00276 8.15L4 8.00004V2.00004C4 1.63185 4.29848 1.33337 4.66667 1.33337C5.00856 1.33337 5.29034 1.59073 5.32885 1.92229L5.33333 2.00004V8.00004C5.33333 9.4728 6.52724 10.6667 8 10.6667C9.42813 10.6667 10.5941 9.54406 10.6634 8.13313L10.6667 8.00004V2.00004C10.6667 1.63185 10.9651 1.33337 11.3333 1.33337Z" fill="#A5B4CB"/>
</svg>
