<svg width="16" height="16" viewBox="0 0 16 16" fill="none" xmlns="http://www.w3.org/2000/svg">
<path fill-rule="evenodd" clip-rule="evenodd" d="M8.66732 10V14C8.66732 14.3682 8.36884 14.6667 8.00065 14.6667C7.63246 14.6667 7.33398 14.3682 7.33398 14V10H8.66732ZM2.00065 8.66671C1.63246 8.66671 1.33398 8.36823 1.33398 8.00004C1.33398 7.63185 1.63246 7.33337 2.00065 7.33337H14.0007C14.3688 7.33337 14.6673 7.63185 14.6673 8.00004C14.6673 8.36823 14.3688 8.66671 14.0007 8.66671H2.00065ZM12.6673 1.33337C13.0355 1.33337 13.334 1.63185 13.334 2.00004C13.334 2.36823 13.0355 2.66671 12.6673 2.66671H8.66732V6.00004H7.33398V2.66671H3.33398C2.96579 2.66671 2.66732 2.36823 2.66732 2.00004C2.66732 1.63185 2.96579 1.33337 3.33398 1.33337H12.6673Z" fill="#A5B4CB"/>
</svg>
