<svg width="16" height="16" viewBox="0 0 16 16" fill="none" xmlns="http://www.w3.org/2000/svg">
<path fill-rule="evenodd" clip-rule="evenodd" d="M3.33268 14.6667C2.96449 14.6667 2.66602 14.3682 2.66602 14C2.66602 13.6319 2.96449 13.3334 3.33268 13.3334H6.13068L8.50135 2.66671H5.99935C5.63116 2.66671 5.33268 2.36823 5.33268 2.00004C5.33268 1.63185 5.63116 1.33337 5.99935 1.33337H12.666C13.0342 1.33337 13.3327 1.63185 13.3327 2.00004C13.3327 2.36823 13.0342 2.66671 12.666 2.66671H9.86735L7.49668 13.3334H9.99935C10.3675 13.3334 10.666 13.6319 10.666 14C10.666 14.3682 10.3675 14.6667 9.99935 14.6667H3.33268Z" fill="#A5B4CB"/>
</svg>
