<svg width="16" height="16" viewBox="0 0 16 16" fill="none" xmlns="http://www.w3.org/2000/svg">
<path fill-rule="evenodd" clip-rule="evenodd" d="M4.00065 14.6667C3.63246 14.6667 3.33398 14.3682 3.33398 14V2.00004C3.33398 1.63185 3.63246 1.33337 4.00065 1.33337H8.00065C9.86023 1.33337 11.334 2.99134 11.334 5.00004C11.334 5.97606 10.986 6.86927 10.415 7.52972C11.7337 8.02461 12.6673 9.40123 12.6673 11C12.6673 12.9585 11.2663 14.5836 9.47271 14.6636L9.33398 14.6667H4.00065ZM9.44568 8.67034L9.33398 8.66671H4.66732V13.3334H9.33398C10.4199 13.3334 11.334 12.3051 11.334 11C11.334 9.74003 10.4819 8.73796 9.44568 8.67034ZM8.00065 2.66671H4.66732V7.33337H8.00065C9.08659 7.33337 10.0007 6.30505 10.0007 5.00004C10.0007 3.74003 9.14854 2.73796 8.11235 2.67034L8.00065 2.66671Z" fill="#A5B4CB"/>
</svg>
