<svg width="69" height="69" viewBox="0 0 69 69" fill="none" xmlns="http://www.w3.org/2000/svg">
<path d="M12.9359 57.1215L13.8473 56.21C21.4014 55.194 29.0144 58.4363 33.5772 64.5099V65.6725C33.5772 65.9178 33.6747 66.153 33.8481 66.3264C34.0215 66.4999 34.2567 66.5973 34.502 66.5973C34.7472 66.5973 34.9825 66.4999 35.1559 66.3264C35.3293 66.153 35.4267 65.9178 35.4267 65.6725V64.4605C37.6799 61.4552 40.6928 59.1041 44.1557 57.6491C47.6186 56.194 51.4065 55.6875 55.13 56.1815L56.0414 57.0929C56.1537 57.2052 56.2888 57.2699 56.4315 57.3117L56.4867 57.3232C56.7873 57.3936 57.1146 57.327 57.3486 57.0929C57.5827 56.8589 57.6493 56.5316 57.5789 56.231L57.5675 56.1758C57.529 56.0292 57.4536 55.895 57.3486 55.7857L56.4372 54.8743C55.9432 51.1508 56.4498 47.3628 57.9048 43.9C59.3598 40.4371 61.7109 37.4242 64.7162 35.171H65.9264C66.1716 35.171 66.4068 35.0736 66.5803 34.9002C66.7537 34.7267 66.8511 34.4915 66.8511 34.2463C66.8511 34.001 66.7537 33.7658 66.5803 33.5924C66.4068 33.419 66.1716 33.3215 65.9264 33.3215H64.7657C58.6901 28.7568 55.4497 21.1456 56.4657 13.5916L57.3772 12.6802C57.4632 12.5945 57.5314 12.4926 57.578 12.3804C57.6246 12.2683 57.6485 12.148 57.6485 12.0266C57.6485 11.9051 57.6246 11.7849 57.578 11.6727C57.5314 11.5606 57.4632 11.4587 57.3772 11.373C57.2551 11.2569 57.1028 11.1778 56.9376 11.1446C56.7856 11.1046 56.6258 11.1046 56.4738 11.1447C56.3217 11.1847 56.1826 11.2633 56.07 11.373L55.1585 12.2844C47.6045 13.3005 39.9915 10.0582 35.4286 3.98449V2.8238C35.4286 2.57854 35.3312 2.34332 35.1578 2.1699C34.9844 1.99648 34.7491 1.89905 34.5039 1.89905C34.2586 1.89905 34.0234 1.99648 33.85 2.1699C33.6766 2.34332 33.5791 2.57854 33.5791 2.8238V4.03587C31.3258 7.04149 28.3126 9.39271 24.8493 10.8478C21.3861 12.3028 17.5978 12.8092 13.874 12.3149L12.9625 11.4034C12.8533 11.2984 12.719 11.2231 12.5725 11.1846L12.5173 11.1732C12.3659 11.1347 12.2072 11.1356 12.0563 11.1759C11.9054 11.2162 11.7673 11.2945 11.6553 11.4034C11.5463 11.5153 11.4679 11.6534 11.4275 11.8043C11.3872 11.9552 11.3864 12.114 11.4251 12.2654L11.4365 12.3206C11.475 12.4671 11.5503 12.6014 11.6553 12.7106L12.5668 13.6221C13.0608 17.3456 12.5542 21.1335 11.0992 24.5964C9.64412 28.0593 7.29309 31.0722 4.28777 33.3253H3.07761C2.8326 33.3253 2.59763 33.4227 2.42438 33.5959C2.25114 33.7691 2.15381 34.0041 2.15381 34.2491C2.15381 34.4941 2.25114 34.7291 2.42438 34.9024C2.59763 35.0756 2.8326 35.1729 3.07761 35.1729H4.2402C10.3158 39.7377 13.5562 47.3488 12.5401 54.9028L11.6287 55.8143C11.5186 55.9266 11.4396 56.0657 11.3995 56.2178C11.3595 56.37 11.3598 56.5299 11.4004 56.6819C11.4384 56.8418 11.505 56.9959 11.6287 57.1215C11.9902 57.483 12.5744 57.483 12.9359 57.1215ZM14.5723 15.6276L18.7698 19.8251C18.9698 22.4516 18.5393 25.0879 17.514 27.5142C16.5725 29.7203 15.1721 31.7006 13.4059 33.3234H7.12482C7.35505 33.1141 7.64047 32.8725 7.85548 32.6575C10.0784 30.4278 11.8212 27.7665 12.9764 24.8377C14.1316 21.9088 14.6747 18.7744 14.5723 15.6276ZM37.5921 31.1752C37.6967 32.2959 38.0849 33.3634 38.7281 34.2881C38.4225 34.722 38.1714 35.1917 37.9803 35.6867C37.7883 36.228 37.6687 36.7923 37.6244 37.3649C37.0612 37.4182 36.5018 37.5171 35.9576 37.7188C35.4676 37.9086 35.0025 38.1571 34.5724 38.459C34.1186 38.1304 33.6242 37.8618 33.1015 37.6599C32.5622 37.4679 31.9998 37.3483 31.429 37.304C31.328 36.2005 30.9461 35.1413 30.3197 34.2272C30.6165 33.7934 30.881 33.3348 31.0675 32.8287C31.2692 32.2845 31.37 31.7251 31.4214 31.1619C31.9884 31.1105 32.5516 31.0096 33.0996 30.806C33.6039 30.6196 34.0624 30.357 34.4963 30.0602C35.4159 30.6904 36.4818 31.0744 37.5921 31.1752ZM28.7004 35.1729C28.8089 35.3213 28.9268 35.4641 29.0163 35.6258C29.3226 36.17 29.511 36.7694 29.5795 37.3916C29.5966 37.5476 29.5795 37.7074 29.5795 37.8654L26.6416 40.8032C26.4681 39.9426 26.2308 39.0961 25.9319 38.2706C25.5267 37.1908 25.0155 36.1538 24.4058 35.1748L28.7004 35.1729ZM30.9152 39.1421C31.0541 39.144 31.1931 39.125 31.3339 39.1421C31.7125 39.184 32.0893 39.2544 32.4565 39.3914C32.7134 39.4865 32.9531 39.6102 33.1834 39.7453C33.3242 39.8271 33.4459 39.9356 33.5772 40.0307V44.3443C32.598 43.735 31.561 43.2239 30.4814 42.8183C29.656 42.5193 28.8094 42.2821 27.9488 42.1085L30.9152 39.1421ZM35.4248 44.4128V40.1354C35.5961 40.006 35.7635 39.8728 35.95 39.77C36.4923 39.4656 37.0917 39.2772 37.712 39.2068C37.8566 39.1897 38.005 39.2087 38.1515 39.2068L41.0799 42.1352C40.2193 42.3087 39.3728 42.546 38.5473 42.8449C37.459 43.2671 36.4134 43.7921 35.4248 44.4128ZM39.4644 37.9053C39.4663 37.7531 39.4473 37.6028 39.4644 37.4505C39.5063 37.0719 39.5786 36.6951 39.7137 36.3279C39.7993 36.0996 39.9135 35.8884 40.0296 35.6791C40.1304 35.4983 40.2598 35.3366 40.3816 35.1729H44.6647C44.0441 36.1619 43.5185 37.2074 43.0949 38.2954C42.796 39.1208 42.5587 39.9674 42.3852 40.828L39.4644 37.9053ZM40.315 33.3253C40.2122 33.1845 40.1 33.0513 40.0124 32.901C39.6952 32.345 39.4958 31.7297 39.4264 31.0934C39.4092 30.9411 39.4264 30.7851 39.4264 30.631L42.3586 27.6988C42.5374 28.5513 42.76 29.3999 43.0683 30.2314C43.4755 31.3255 43.993 32.3549 44.5943 33.3272L40.315 33.3253ZM38.1058 29.339C37.9612 29.3371 37.8166 29.3542 37.6739 29.339C37.0465 29.2726 36.4392 29.079 35.8891 28.7701C35.7255 28.6787 35.579 28.5589 35.4267 28.4466V24.1558C36.3971 24.7552 37.4285 25.2747 38.5226 25.6819C39.3541 25.9901 40.2027 26.2127 41.0551 26.3916L38.1058 29.339ZM33.5772 24.0835V28.4257C33.4193 28.5417 33.2671 28.6635 33.0958 28.7587C32.8915 28.8779 32.6784 28.9816 32.4584 29.0688C32.096 29.1981 31.7189 29.2819 31.3358 29.3181C31.1835 29.3352 31.0332 29.3162 30.881 29.3181L27.9222 26.3593C28.7828 26.1857 29.6293 25.9485 30.4548 25.6495C31.5437 25.2295 32.5894 24.7051 33.5772 24.0835ZM29.5795 30.6329C29.5776 30.7794 29.5947 30.9259 29.5795 31.0724C29.5114 31.6936 29.3192 32.2947 29.0144 32.8401C28.9173 33.0114 28.7936 33.1655 28.6757 33.3253H24.3373C24.9272 32.3644 25.5056 31.2798 25.9071 30.2029C26.2154 29.3714 26.438 28.5227 26.6169 27.6703L29.5795 30.6329ZM24.2003 38.9119C24.6247 40.0536 24.893 41.2238 25.0414 42.4016L23.8617 43.5813L20.6764 46.7665C20.6016 44.5215 20.1174 42.3091 19.2474 40.2381C18.464 38.3869 17.3836 36.676 16.0488 35.1729H22.1834C23.0225 36.3218 23.701 37.5797 24.2003 38.9119ZM25.1689 44.8885L26.3486 43.7088C27.5404 43.8535 28.7114 44.1357 29.8383 44.5498C31.1711 45.0476 32.4292 45.7263 33.5772 46.5668V52.7013C32.0744 51.3663 30.3634 50.2858 28.512 49.5027C26.4411 48.6328 24.2286 48.1485 21.9836 48.0738L25.1689 44.8885ZM35.4248 52.766V46.641C36.5832 45.7892 37.8494 45.095 39.1904 44.5765C40.3174 44.1625 41.4884 43.8803 42.6801 43.7354L47.0451 48.1004C44.8001 48.1752 42.5876 48.6594 40.5167 49.5294C38.6595 50.3334 36.9411 51.4257 35.4248 52.766ZM45.169 43.6098L43.9892 42.4301C44.1339 41.2383 44.4161 40.0673 44.8303 38.9404C45.325 37.6085 46.0804 36.2994 46.8948 35.1748H53.0198C51.6778 36.6904 50.5853 38.4098 49.7832 40.2686C48.9132 42.3395 48.429 44.552 48.3542 46.797L45.169 43.6098ZM46.8206 33.3253C45.9801 32.1773 45.3014 30.9192 44.8036 29.5864C44.3897 28.4594 44.1075 27.2884 43.9626 26.0967L45.1423 24.917L48.3276 21.7317C48.4023 23.9767 48.8866 26.1892 49.7566 28.2601C50.55 30.1439 51.6403 31.8374 52.9551 33.3253H46.8206ZM43.8332 23.6097L42.6535 24.7895C41.4617 24.6448 40.2907 24.3626 39.1638 23.9484C37.8309 23.4507 36.5728 22.772 35.4248 21.9315V15.795C36.9277 17.1301 38.6386 18.2105 40.49 18.9936C42.561 19.8635 44.7734 20.3478 47.0185 20.4226L43.8332 23.6097ZM33.5772 15.7303V21.8554C32.4189 22.7071 31.1527 23.4014 29.8116 23.9199C28.67 24.3442 27.4998 24.6125 26.3219 24.7609L25.1422 23.5812L21.957 20.396C24.202 20.3212 26.4144 19.8369 28.4854 18.967C30.3433 18.1644 32.062 17.072 33.5772 15.7303ZM25.0147 26.0681C24.87 27.2599 24.5878 28.431 24.1737 29.5578C23.679 30.8898 22.9236 32.1989 22.1092 33.3234H15.9841C17.3262 31.8078 18.4187 30.0884 19.2208 28.2297C20.0907 26.1587 20.575 23.9463 20.6498 21.7013L25.0147 26.0681ZM7.88212 35.8123C7.65759 35.5877 7.40833 35.3879 7.17619 35.1729H13.463C15.3144 36.8679 16.7568 38.9611 17.6814 41.2948C18.6059 43.6284 18.9885 46.1415 18.8003 48.6446L16.9374 50.5055L14.5989 52.844C14.7019 49.6969 14.1591 46.562 13.0039 43.6327C11.8487 40.7035 10.1056 38.0419 7.88212 35.8123ZM32.9379 60.868C30.7079 58.645 28.0463 56.9022 25.1171 55.7471C22.1879 54.5919 19.0532 54.0488 15.9061 54.1512L18.2446 51.8127L20.1037 49.9537C22.6067 49.766 25.1196 50.1489 27.4532 51.0734C29.7867 51.9979 31.88 53.44 33.5753 55.291V61.5778C33.3622 61.3399 33.1624 61.0907 32.9379 60.868ZM36.0908 60.8947C35.8758 61.1097 35.6341 61.397 35.4248 61.6253V55.3443C37.0475 53.5779 39.0278 52.1774 41.234 51.2362C43.6609 50.2127 46.2967 49.7822 48.9231 49.9803L53.1207 54.1779C49.9739 54.0758 46.8396 54.6191 43.9108 55.7742C40.9819 56.9294 38.3206 58.672 36.0908 60.8947ZM54.4298 52.8707L52.0913 50.5321L50.2322 48.6731C50.0322 46.0466 50.4628 43.4104 51.4881 40.984C52.4296 38.778 53.83 36.7977 55.5962 35.1748H61.8772C61.647 35.3841 61.3616 35.6258 61.1466 35.8408C58.9236 38.0704 57.1809 40.7317 56.0257 43.6606C54.8705 46.5895 54.3274 49.7239 54.4298 52.8707ZM61.1199 32.686C61.3445 32.9105 61.5937 33.1103 61.8259 33.3253H55.5391C53.6877 31.6304 52.2453 29.5371 51.3207 27.2035C50.3962 24.8698 50.0136 22.3567 50.2018 19.8537L52.0608 17.9946L54.3993 15.6561C54.2988 18.803 54.8431 21.9372 55.9989 24.8659C57.1547 27.7946 58.8974 30.4559 61.1199 32.686ZM36.0642 7.63021C38.2942 9.85321 40.9558 11.596 43.8849 12.7512C46.8141 13.9064 49.9489 14.4495 53.0959 14.347L50.7574 16.6855L48.8984 18.5445C46.3954 18.7322 43.8825 18.3494 41.5489 17.4248C39.2153 16.5003 37.122 15.0582 35.4267 13.2073V6.92428C35.6398 7.15642 35.8396 7.40759 36.0642 7.63021ZM32.9113 7.60358C33.1263 7.38856 33.3679 7.10124 33.5772 6.87291V13.154C31.9546 14.9204 29.9742 16.3208 27.7681 17.2621C25.3412 18.2855 22.7053 18.716 20.0789 18.5179L18.218 16.6589L15.8795 14.3204C19.0265 14.4226 22.1612 13.8794 25.0904 12.7242C28.0195 11.5691 30.6811 9.82639 32.9113 7.60358Z" fill="#A5B4CB"/>
</svg>
