<svg width="24" height="25" viewBox="0 0 24 25" fill="none" xmlns="http://www.w3.org/2000/svg">
<path fill-rule="evenodd" clip-rule="evenodd" d="M11.9998 18.4999L7.91541 20.6472C7.42656 20.9042 6.82194 20.7163 6.56494 20.2274C6.4626 20.0328 6.42728 19.8098 6.46446 19.5931L7.24451 15.045L3.94017 11.8241C3.54469 11.4386 3.5366 10.8055 3.9221 10.41C4.07561 10.2525 4.27675 10.15 4.49439 10.1184L9.06086 9.45486L11.1031 5.31693C11.3475 4.82168 11.9471 4.61834 12.4424 4.86276C12.6396 4.96009 12.7992 5.11972 12.8965 5.31693L14.9387 9.45486L19.5052 10.1184C20.0517 10.1978 20.4304 10.7053 20.351 11.2518C20.3194 11.4695 20.2169 11.6706 20.0594 11.8241L16.7551 15.045L17.5351 19.5931C17.6285 20.1374 17.2629 20.6544 16.7186 20.7477C16.5018 20.7849 16.2788 20.7496 16.0842 20.6472L11.9998 18.4999Z" fill="#A5B4CB"/>
</svg>
