<svg width="84" height="83" viewBox="0 0 84 83" fill="none" xmlns="http://www.w3.org/2000/svg">
<path d="M67.5226 26.3686L65.8626 26.7074V28.4017V70.0314C65.8626 70.169 65.8079 70.3009 65.7107 70.3982L67.1779 71.8654L65.7107 70.3982C65.6134 70.4955 65.4814 70.5501 65.3439 70.5501C65.2063 70.5501 65.0743 70.4955 64.977 70.3982C64.8798 70.3009 64.8251 70.1689 64.8251 70.0314V25.9376C64.8251 25.8 64.8798 25.6681 64.977 25.5708C65.0743 25.4735 65.2063 25.4189 65.3439 25.4189H66.6407C67.535 25.4189 68.3927 25.0636 69.025 24.4313C69.6574 23.7989 70.0126 22.9413 70.0126 22.047C70.0126 21.1527 69.6574 20.2951 69.025 19.6627C68.3927 19.0304 67.535 18.6751 66.6407 18.6751H54.9689C54.8313 18.6751 54.6993 18.6205 54.602 18.5232L53.1348 19.9904L54.602 18.5232C54.5048 18.4259 54.4501 18.2939 54.4501 18.1564C54.4501 18.0188 54.5048 17.8868 54.602 17.7895L53.1348 16.3223L54.602 17.7895C54.6993 17.6923 54.8313 17.6376 54.9689 17.6376H62.7501H64.8251V15.5626V12.9689C64.8251 11.7306 64.3332 10.5431 63.4577 9.66755C62.5821 8.79199 61.3946 8.30011 60.1564 8.30011H36.8126C35.5744 8.30011 34.3869 8.79199 33.5113 9.66755C32.6357 10.5431 32.1439 11.7306 32.1439 12.9689V25.9376C32.1439 26.0752 32.0892 26.2071 31.9919 26.3044L33.4592 27.7717L31.9919 26.3044C31.8946 26.4017 31.7627 26.4564 31.6251 26.4564H18.6564C17.4181 26.4564 16.2306 26.9482 15.3551 27.8238C14.4795 28.6994 13.9876 29.8869 13.9876 31.1251V70.0314C13.9876 71.2696 14.4795 72.4571 15.3551 73.3327C16.2306 74.2082 17.4181 74.7001 18.6564 74.7001H60.1564C60.2939 74.7001 60.4259 74.7548 60.5232 74.8521C60.6204 74.9493 60.6751 75.0813 60.6751 75.2189C60.6751 75.3565 60.6204 75.4884 60.5232 75.5857L61.9904 77.0529L60.5232 75.5857C60.4259 75.683 60.2939 75.7376 60.1564 75.7376L18.6626 75.7376C18.6618 75.7376 18.661 75.7376 18.6602 75.7376C17.1474 75.7325 15.698 75.1292 14.6282 74.0595C13.5586 72.9898 12.9554 71.5406 12.9501 70.028L12.9501 28.0904L12.9501 28.0794C12.9461 27.3337 13.0914 26.5947 13.3773 25.906C13.6632 25.2172 14.084 24.5926 14.6149 24.0689L14.6149 24.0689L14.6249 24.0589L29.7464 8.93735L29.7465 8.93739L29.7564 8.92735C30.2801 8.39646 30.9047 7.97569 31.5935 7.68979C32.2822 7.40388 33.0212 7.25863 33.7669 7.26258V7.26261H33.7779H60.153C61.6656 7.26788 63.1148 7.87109 64.1845 8.94073C65.254 10.0102 65.8572 11.4592 65.8626 12.9716V15.6923V17.3865L67.5226 17.7254C68.5186 17.9287 69.4137 18.4698 70.0565 19.2573C70.6993 20.0447 71.0503 21.0301 71.0501 22.0466V22.0474C71.0503 23.0639 70.6993 24.0492 70.0565 24.8367C69.4137 25.6241 68.5186 26.1653 67.5226 26.3686Z" fill="#2C2C2C" stroke="#2C2C2C" stroke-width="4.15"/>
<path d="M52.375 59.6562H26.4375C25.7496 59.6562 25.0899 59.9295 24.6034 60.4159C24.117 60.9024 23.8438 61.5621 23.8438 62.25C23.8438 62.9379 24.117 63.5976 24.6034 64.0841C25.0899 64.5705 25.7496 64.8437 26.4375 64.8437H52.375C53.0629 64.8437 53.7226 64.5705 54.2091 64.0841C54.6955 63.5976 54.9687 62.9379 54.9687 62.25C54.9687 61.5621 54.6955 60.9024 54.2091 60.4159C53.7226 59.9295 53.0629 59.6562 52.375 59.6562ZM52.375 46.6875H26.4375C25.7496 46.6875 25.0899 46.9608 24.6034 47.4472C24.117 47.9336 23.8438 48.5933 23.8438 49.2812C23.8438 49.9692 24.117 50.6289 24.6034 51.1153C25.0899 51.6017 25.7496 51.875 26.4375 51.875H52.375C53.0629 51.875 53.7226 51.6017 54.2091 51.1153C54.6955 50.6289 54.9687 49.9692 54.9687 49.2812C54.9687 48.5933 54.6955 47.9336 54.2091 47.4472C53.7226 46.9608 53.0629 46.6875 52.375 46.6875ZM52.375 33.7188H26.4375C25.7496 33.7188 25.0899 33.992 24.6034 34.4784C24.117 34.9649 23.8438 35.6246 23.8438 36.3125C23.8438 37.0004 24.117 37.6601 24.6034 38.1466C25.0899 38.633 25.7496 38.9062 26.4375 38.9062H52.375C53.0629 38.9062 53.7226 38.633 54.2091 38.1466C54.6955 37.6601 54.9687 37.0004 54.9687 36.3125C54.9687 35.6246 54.6955 34.9649 54.2091 34.4784C53.7226 33.992 53.0629 33.7188 52.375 33.7188Z" fill="#2C2C2C"/>
</svg>
