<svg width="38" height="38" viewBox="0 0 38 38" fill="none" xmlns="http://www.w3.org/2000/svg">
<path d="M30.25 21.7501C29.7859 21.7501 29.3407 21.9344 29.0126 22.2626C28.6844 22.5908 28.5 23.0359 28.5 23.5001V24.1651L25.91 21.5751C24.9955 20.6678 23.7595 20.1587 22.4713 20.1587C21.183 20.1587 19.947 20.6678 19.0325 21.5751L17.8075 22.8001L13.4675 18.4601C12.5402 17.5774 11.309 17.0851 10.0288 17.0851C8.74851 17.0851 7.51729 17.5774 6.59 18.4601L4 21.0501V11.2501C4 10.7859 4.18437 10.3408 4.51256 10.0126C4.84075 9.68444 5.28587 9.50006 5.75 9.50006H18C18.4641 9.50006 18.9092 9.31569 19.2374 8.9875C19.5656 8.65931 19.75 8.21419 19.75 7.75006C19.75 7.28593 19.5656 6.84081 19.2374 6.51263C18.9092 6.18444 18.4641 6.00006 18 6.00006H5.75C4.35761 6.00006 3.02226 6.55319 2.03769 7.53775C1.05312 8.52232 0.5 9.85768 0.5 11.2501V32.2501C0.5 33.6425 1.05312 34.9778 2.03769 35.9624C3.02226 36.9469 4.35761 37.5001 5.75 37.5001H26.75C28.1424 37.5001 29.4777 36.9469 30.4623 35.9624C31.4469 34.9778 32 33.6425 32 32.2501V23.5001C32 23.0359 31.8156 22.5908 31.4874 22.2626C31.1593 21.9344 30.7141 21.7501 30.25 21.7501ZM5.75 34.0001C5.28587 34.0001 4.84075 33.8157 4.51256 33.4875C4.18437 33.1593 4 32.7142 4 32.2501V26.0026L9.075 20.9276C9.3321 20.6826 9.67361 20.5459 10.0288 20.5459C10.3839 20.5459 10.7254 20.6826 10.9825 20.9276L16.53 26.4751L24.055 34.0001H5.75ZM28.5 32.2501C28.4975 32.5851 28.387 32.9103 28.185 33.1776L20.2925 25.2501L21.5175 24.0251C21.643 23.897 21.7927 23.7953 21.958 23.7258C22.1233 23.6564 22.3007 23.6206 22.48 23.6206C22.6593 23.6206 22.8367 23.6564 23.002 23.7258C23.1673 23.7953 23.317 23.897 23.4425 24.0251L28.5 29.1176V32.2501ZM36.7425 6.50756L31.4925 1.25756C31.3261 1.09824 31.1298 0.973353 30.915 0.890063C30.4889 0.715031 30.0111 0.715031 29.585 0.890063C29.3702 0.973353 29.1739 1.09824 29.0075 1.25756L23.7575 6.50756C23.428 6.83709 23.2428 7.28403 23.2428 7.75006C23.2428 8.21609 23.428 8.66303 23.7575 8.99256C24.087 9.32209 24.534 9.50722 25 9.50722C25.466 9.50722 25.913 9.32209 26.2425 8.99256L28.5 6.71756V16.5001C28.5 16.9642 28.6844 17.4093 29.0126 17.7375C29.3407 18.0657 29.7859 18.2501 30.25 18.2501C30.7141 18.2501 31.1593 18.0657 31.4874 17.7375C31.8156 17.4093 32 16.9642 32 16.5001V6.71756L34.2575 8.99256C34.4202 9.15659 34.6137 9.28678 34.827 9.37562C35.0402 9.46447 35.269 9.51021 35.5 9.51021C35.731 9.51021 35.9598 9.46447 36.173 9.37562C36.3863 9.28678 36.5798 9.15659 36.7425 8.99256C36.9065 8.82988 37.0367 8.63633 37.1256 8.42307C37.2144 8.20982 37.2601 7.98108 37.2601 7.75006C37.2601 7.51904 37.2144 7.29031 37.1256 7.07705C37.0367 6.8638 36.9065 6.67025 36.7425 6.50756Z" fill="#A5B4CB"/>
</svg>
