<svg width="25" height="27" viewBox="0 0 25 27" fill="none" xmlns="http://www.w3.org/2000/svg">
<path fill-rule="evenodd" clip-rule="evenodd" d="M13.6654 0.166748C14.019 0.166748 14.3581 0.307224 14.6082 0.557272L21.2748 7.22394C21.5249 7.47399 21.6654 7.81313 21.6654 8.16675V9.50008C21.6654 10.2365 21.0684 10.8334 20.332 10.8334H12.332C11.6483 10.8334 11.0847 10.3187 11.0077 9.65558L10.9987 9.50008L10.9974 2.83341H4.33203C3.59565 2.83341 2.9987 3.43037 2.9987 4.16675V22.8334C2.9987 23.5698 3.59565 24.1667 4.33203 24.1667H6.9987C7.73508 24.1667 8.33203 24.7637 8.33203 25.5001C8.33203 26.2365 7.73508 26.8334 6.9987 26.8334H4.33203C2.12289 26.8334 0.332031 25.0426 0.332031 22.8334V4.16675C0.332031 1.95761 2.12289 0.166748 4.33203 0.166748H13.6654ZM17.6653 13.5C18.4017 13.5 18.9987 14.097 18.9987 14.8334V18.8334H22.9987C23.735 18.8334 24.332 19.4303 24.332 20.1667C24.332 20.9031 23.735 21.5 22.9987 21.5H18.9987V25.5C18.9987 26.2364 18.4017 26.8334 17.6653 26.8334C16.9289 26.8334 16.332 26.2364 16.332 25.5V21.5H12.332C11.5956 21.5 10.9987 20.9031 10.9987 20.1667C10.9987 19.4303 11.5956 18.8334 12.332 18.8334H16.332V14.8334C16.332 14.097 16.9289 13.5 17.6653 13.5ZM13.6636 3.38548L13.6649 8.16681H18.4462L13.6636 3.38548Z" fill="url(#paint0_linear_732_1992)"/>
<defs>
<linearGradient id="paint0_linear_732_1992" x1="4.57203" y1="7.0633" x2="23.3964" y2="9.45391" gradientUnits="userSpaceOnUse">
<stop stop-color="#FF6262"/>
<stop offset="1" stop-color="#F37F14"/>
</linearGradient>
</defs>
</svg>
