<svg width="16" height="16" viewBox="0 0 16 16" fill="none" xmlns="http://www.w3.org/2000/svg">
<path fill-rule="evenodd" clip-rule="evenodd" d="M5.36186 3.45071C5.75256 3.15455 6.19939 2.9409 6.67519 2.82271C6.65337 2.63583 6.67134 2.44645 6.72793 2.26701C6.78452 2.08758 6.87845 1.92215 7.00354 1.78161C7.12862 1.64106 7.28204 1.52858 7.4537 1.45156C7.62536 1.37454 7.81138 1.33472 7.99952 1.33472C8.18767 1.33472 8.37369 1.37454 8.54535 1.45156C8.71701 1.52858 8.87043 1.64106 8.99551 1.78161C9.1206 1.92215 9.21453 2.08758 9.27112 2.26701C9.32771 2.44645 9.34568 2.63583 9.32386 2.82271C9.7999 2.94081 10.247 3.15447 10.6379 3.45071C11.2885 3.95071 11.6652 4.62071 11.8879 5.28937C12.1092 5.95271 12.1892 6.64404 12.2279 7.22604C12.2439 7.46271 12.2539 7.69004 12.2619 7.89071L12.2679 8.02604C12.2779 8.26604 12.2885 8.44604 12.3065 8.57804C12.4365 9.55271 12.5985 10.236 12.8292 10.7827C13.0545 11.3167 13.3559 11.7467 13.8045 12.1954C13.8977 12.2886 13.9612 12.4074 13.9869 12.5367C14.0126 12.666 13.9994 12.8 13.949 12.9218C13.8985 13.0436 13.8131 13.1477 13.7035 13.221C13.5939 13.2942 13.465 13.3333 13.3332 13.3334H9.15452C9.27143 13.5361 9.33294 13.766 9.33286 14C9.33278 14.234 9.27112 14.4638 9.15408 14.6664C9.03703 14.8691 8.86872 15.0373 8.66606 15.1543C8.4634 15.2713 8.23352 15.3329 7.99952 15.3329C7.76553 15.3329 7.53565 15.2713 7.33299 15.1543C7.13033 15.0373 6.96202 14.8691 6.84497 14.6664C6.72793 14.4638 6.66627 14.234 6.66619 14C6.66611 13.766 6.72762 13.5361 6.84452 13.3334H2.66652C2.53469 13.3333 2.40583 13.2942 2.29622 13.221C2.18661 13.1477 2.10119 13.0436 2.05074 12.9218C2.00029 12.8 1.98709 12.666 2.0128 12.5367C2.03851 12.4074 2.10198 12.2886 2.19519 12.1954C2.64452 11.746 2.94586 11.3194 3.17052 10.7874C3.39986 10.2427 3.56186 9.55937 3.69319 8.57804C3.71119 8.44537 3.72186 8.26604 3.73186 8.02537L3.73786 7.89071C3.74586 7.69071 3.75586 7.46271 3.77119 7.22604C3.81052 6.64404 3.89052 5.95271 4.11119 5.28937C4.33452 4.62071 4.71119 3.95004 5.36186 3.45071ZM4.04586 12C4.17719 11.7827 4.29386 11.5534 4.39852 11.306C4.69519 10.604 4.87719 9.78671 5.01519 8.75537C5.0409 8.53239 5.05714 8.30841 5.06386 8.08404L5.07052 7.94004C5.07852 7.74004 5.08719 7.53337 5.10186 7.31537C5.13786 6.77271 5.20852 6.21404 5.37652 5.71071C5.54319 5.21271 5.79386 4.80004 6.17386 4.50804C6.54986 4.21937 7.11452 4.00004 7.99986 4.00004C8.88519 4.00004 9.44986 4.21937 9.82586 4.50804C10.2059 4.80004 10.4572 5.21271 10.6232 5.71071C10.7912 6.21404 10.8619 6.77271 10.8979 7.31537C10.9125 7.53337 10.9212 7.74004 10.9292 7.93937L10.9359 8.08337C10.9459 8.31671 10.9579 8.55471 10.9845 8.75537C11.1219 9.78071 11.3039 10.5974 11.6005 11.3007C11.7052 11.5494 11.8232 11.7807 11.9552 12H4.04652H4.04586Z" fill="#A5B4CB"/>
</svg>
