<svg width="16" height="16" viewBox="0 0 16 16" fill="none" xmlns="http://www.w3.org/2000/svg">
<path fill-rule="evenodd" clip-rule="evenodd" d="M12.6663 2.66663C13.7709 2.66663 14.6663 3.56206 14.6663 4.66663V11.3333C14.6663 12.4379 13.7709 13.3333 12.6663 13.3333H3.33301C2.22844 13.3333 1.33301 12.4379 1.33301 11.3333V4.66663C1.33301 3.56206 2.22844 2.66663 3.33301 2.66663H12.6663ZM13.333 4.88529L8.43868 9.16834C8.20827 9.36995 7.87371 9.38675 7.62595 9.21874L7.56067 9.16834L2.66634 4.88596V11.3333C2.66634 11.7015 2.96482 12 3.33301 12H12.6663C13.0345 12 13.333 11.7015 13.333 11.3333V4.88529ZM12.3197 3.99996H3.67834L7.99967 7.78078L12.3197 3.99996Z" fill="#A5B4CB"/>
</svg>
