<svg width="16" height="16" viewBox="0 0 16 16" fill="none" xmlns="http://www.w3.org/2000/svg">
<path fill-rule="evenodd" clip-rule="evenodd" d="M3.75766 3.75729C4.00528 3.50966 4.29926 3.31322 4.62281 3.1792C4.94635 3.04518 5.29312 2.9762 5.64333 2.9762C5.99353 2.9762 6.3403 3.04518 6.66385 3.1792C6.98739 3.31322 7.28137 3.50966 7.52899 3.75729L9.41433 5.64263C9.66196 5.89025 9.8584 6.18423 9.99242 6.50777C10.1264 6.83132 10.1954 7.17809 10.1954 7.52829C10.1954 7.8785 10.1264 8.22527 9.99242 8.54881C9.8584 8.87236 9.66196 9.16634 9.41433 9.41396C9.35283 9.47763 9.27926 9.52842 9.19793 9.56336C9.11659 9.5983 9.02911 9.61669 8.94059 9.61746C8.85207 9.61823 8.76429 9.60136 8.68236 9.56784C8.60043 9.53432 8.52599 9.48482 8.4634 9.42222C8.4008 9.35963 8.3513 9.28519 8.31778 9.20326C8.28426 9.12133 8.26739 9.03355 8.26816 8.94503C8.26893 8.85651 8.28732 8.76903 8.32226 8.68769C8.3572 8.60635 8.40799 8.53279 8.47166 8.47129C8.72162 8.22126 8.86204 7.88218 8.86204 7.52863C8.86204 7.17507 8.72162 6.836 8.47166 6.58596L6.58699 4.69996C6.33681 4.44977 5.99748 4.30922 5.64366 4.30922C5.28984 4.30922 4.95051 4.44977 4.70033 4.69996C4.45014 4.95015 4.30958 5.28947 4.30958 5.64329C4.30958 5.99711 4.45014 6.33644 4.70033 6.58663L5.17166 7.05796C5.23678 7.11911 5.28894 7.19273 5.32506 7.27443C5.36117 7.35614 5.38049 7.44427 5.38188 7.53359C5.38327 7.6229 5.36669 7.71159 5.33313 7.79438C5.29957 7.87717 5.24972 7.95236 5.18653 8.01551C5.12334 8.07865 5.04811 8.12845 4.9653 8.16195C4.88249 8.19545 4.79379 8.21197 4.70447 8.21052C4.61515 8.20907 4.52703 8.18968 4.44536 8.15351C4.36368 8.11734 4.2901 8.06512 4.22899 7.99996L3.75766 7.52863C3.51002 7.281 3.31358 6.98702 3.17956 6.66348C3.04554 6.33994 2.97656 5.99316 2.97656 5.64296C2.97656 5.29276 3.04554 4.94598 3.17956 4.62244C3.31358 4.2989 3.51002 4.00492 3.75766 3.75729ZM7.52899 6.58596C7.65397 6.71098 7.72418 6.88052 7.72418 7.05729C7.72418 7.23407 7.65397 7.40361 7.52899 7.52863C7.27903 7.77866 7.13861 8.11774 7.13861 8.47129C7.13861 8.82484 7.27903 9.16392 7.52899 9.41396L9.41433 11.3C9.66443 11.5501 10.0036 11.6906 10.3573 11.6906C10.711 11.6906 11.0502 11.5501 11.3003 11.3C11.5504 11.0499 11.6909 10.7107 11.6909 10.357C11.6909 10.0033 11.5504 9.66406 11.3003 9.41396L10.829 8.94263C10.7653 8.88113 10.7145 8.80757 10.6796 8.72623C10.6447 8.64489 10.6263 8.55741 10.6255 8.46889C10.6247 8.38037 10.6416 8.29259 10.6751 8.21066C10.7086 8.12873 10.7581 8.05429 10.8207 7.9917C10.8833 7.9291 10.9578 7.8796 11.0397 7.84608C11.1216 7.81256 11.2094 7.79569 11.2979 7.79646C11.3864 7.79723 11.4739 7.81562 11.5553 7.85056C11.6366 7.8855 11.7102 7.93629 11.7717 7.99996L12.243 8.47129C12.7431 8.9714 13.0241 9.6497 13.0241 10.357C13.0241 11.0642 12.7431 11.7425 12.243 12.2426C11.7429 12.7427 11.0646 13.0237 10.3573 13.0237C9.65006 13.0237 8.97177 12.7427 8.47166 12.2426L6.58699 10.3573C6.33936 10.1097 6.14292 9.81569 6.0089 9.49215C5.87488 9.1686 5.8059 8.82183 5.8059 8.47163C5.8059 8.12142 5.87488 7.77465 6.0089 7.45111C6.14292 7.12756 6.33936 6.83358 6.58699 6.58596C6.71201 6.46098 6.88155 6.39077 7.05833 6.39077C7.2351 6.39077 7.40464 6.46098 7.52966 6.58596H7.52899Z" fill="#A5B4CB"/>
</svg>
