<svg width="16" height="16" viewBox="0 0 16 16" fill="none" xmlns="http://www.w3.org/2000/svg">
<path fill-rule="evenodd" clip-rule="evenodd" d="M4.66634 10.6667H11.333C13.174 10.6667 14.6663 12.1591 14.6663 14C14.6663 14.3682 14.3679 14.6667 13.9997 14.6667C13.6578 14.6667 13.376 14.4093 13.3375 14.0778L13.3296 13.8825C13.271 12.8715 12.4615 12.062 11.4505 12.0034L11.333 12H4.66634C3.56177 12 2.66634 12.8955 2.66634 14C2.66634 14.3682 2.36786 14.6667 1.99967 14.6667C1.63148 14.6667 1.33301 14.3682 1.33301 14C1.33301 12.2075 2.74788 10.7455 4.52175 10.6698L4.66634 10.6667H11.333H4.66634ZM7.99967 1.33337C10.2088 1.33337 11.9997 3.12423 11.9997 5.33337C11.9997 7.54251 10.2088 9.33337 7.99967 9.33337C5.79054 9.33337 3.99967 7.54251 3.99967 5.33337C3.99967 3.12423 5.79054 1.33337 7.99967 1.33337ZM7.99967 2.66671C6.52692 2.66671 5.33301 3.86061 5.33301 5.33337C5.33301 6.80613 6.52692 8.00004 7.99967 8.00004C9.47243 8.00004 10.6663 6.80613 10.6663 5.33337C10.6663 3.86061 9.47243 2.66671 7.99967 2.66671Z" fill="#A5B4CB"/>
</svg>
