<svg width="21" height="21" viewBox="0 0 21 21" fill="none" xmlns="http://www.w3.org/2000/svg">
<path fill-rule="evenodd" clip-rule="evenodd" d="M7.99967 12.7912L1.15601 2.03688C0.732365 1.37115 1.21058 0.5 1.99967 0.5H19.9997C20.7888 0.5 21.267 1.37115 20.8433 2.03688L13.9997 12.7912V17.5C13.9997 17.8788 13.7857 18.225 13.4469 18.3944L9.44688 20.3944C8.78198 20.7269 7.99967 20.2434 7.99967 19.5V12.7912ZM3.82119 2.49999L9.84318 11.9631C9.94528 12.1236 9.99951 12.3098 9.99951 12.5V17.882L11.9995 16.882V12.5C11.9995 12.3098 12.0537 12.1236 12.1559 11.9631L18.1778 2.49999H3.82119Z" fill="#7D8592"/>
</svg>
