<svg width="18" height="14" viewBox="0 0 18 14" fill="none" xmlns="http://www.w3.org/2000/svg">
<path fill-rule="evenodd" clip-rule="evenodd" d="M0 3.42453C0 1.80936 1.30936 0.5 2.92453 0.5H15.0755C16.6906 0.5 18 1.80936 18 3.42453V10.5755C18 12.1906 16.6906 13.5 15.0755 13.5H8.98298C8.72567 9.591 5.47349 6.50003 1.49938 6.50003C0.985902 6.50003 0.484473 6.55164 0 6.64994V3.42453ZM15.1437 2.33967C15.5084 2.1433 15.9632 2.27975 16.1596 2.64445C16.356 3.00916 16.2195 3.464 15.8548 3.66038L9.35482 7.16038C9.13284 7.27991 8.86565 7.27991 8.64367 7.16038L2.14367 3.66038C1.77896 3.464 1.64251 3.00916 1.83889 2.64445C2.03527 2.27975 2.49011 2.1433 2.85482 2.33967L8.99924 5.64821L15.1437 2.33967Z" fill="#26E023"/>
</svg>
