<svg width="18" height="25" viewBox="0 0 18 25" fill="none" xmlns="http://www.w3.org/2000/svg">
<path fill-rule="evenodd" clip-rule="evenodd" d="M10.9154 0.564051C11.08 0.634692 11.2162 0.758555 11.3021 0.915795C11.388 1.07303 11.4186 1.25455 11.389 1.43125L9.9442 10.1001H17.0002C17.1488 10.1001 17.2944 10.1414 17.4208 10.2195C17.5472 10.2976 17.6493 10.4094 17.7157 10.5423C17.7822 10.6752 17.8103 10.8239 17.797 10.9719C17.7836 11.1199 17.7293 11.2612 17.6402 11.3801L8.0402 24.18C7.93262 24.3232 7.78013 24.4261 7.60714 24.4723C7.43415 24.5185 7.25066 24.5054 7.08603 24.4349C6.9214 24.3645 6.78516 24.2409 6.69911 24.0839C6.61306 23.9269 6.58217 23.7455 6.6114 23.5688L8.0562 14.9H1.0002C0.851626 14.9 0.705992 14.8587 0.579611 14.7806C0.45323 14.7025 0.351096 14.5907 0.284654 14.4578C0.218212 14.3249 0.190086 14.1762 0.203428 14.0282C0.216771 13.8802 0.271054 13.7389 0.360196 13.62L9.9602 0.820051C10.0677 0.67649 10.2203 0.573208 10.3935 0.526783C10.5667 0.480357 10.7505 0.493482 10.9154 0.564051ZM2.6002 13.3H9.0002C9.11632 13.3001 9.23105 13.3254 9.3364 13.3743C9.44175 13.4232 9.5352 13.4944 9.61026 13.583C9.68532 13.6716 9.74019 13.7755 9.77105 13.8874C9.80192 13.9994 9.80804 14.1167 9.789 14.2312L8.7282 20.5961L15.4002 11.7001H9.0002C8.88407 11.7 8.76934 11.6747 8.66399 11.6258C8.55864 11.5769 8.46519 11.5057 8.39013 11.4171C8.31507 11.3285 8.26021 11.2246 8.22934 11.1127C8.19847 11.0007 8.19235 10.8834 8.2114 10.7689L9.2722 4.40405L2.6002 13.3Z" fill="#7D8592"/>
</svg>
